<mxfile host="app.diagrams.net" modified="2023-11-08T07:03:08.578Z" agent="Mozilla/5.0 (Windows NT 10.0; Win64; x64) AppleWebKit/537.36 (KHTML, like Gecko) Chrome/118.0.0.0 Safari/537.36" etag="rjzSgxs5SAhxk-A6hLlV" version="21.7.0" type="device">
  <diagram id="vrp2P6lK3jrRYG1gMjua" name="Seite-1">
    <mxGraphModel dx="1034" dy="424" grid="1" gridSize="10" guides="1" tooltips="1" connect="1" arrows="1" fold="1" page="1" pageScale="1" pageWidth="827" pageHeight="1169" math="0" shadow="0">
      <root>
        <mxCell id="0" />
        <mxCell id="1" parent="0" />
        <mxCell id="m7VxHknI9QD3Q0uFePXc-1" value="" style="rounded=0;whiteSpace=wrap;html=1;" parent="1" vertex="1">
          <mxGeometry x="40" y="40" width="720" height="360" as="geometry" />
        </mxCell>
        <mxCell id="m7VxHknI9QD3Q0uFePXc-2" value="" style="rounded=1;whiteSpace=wrap;html=1;" parent="1" vertex="1">
          <mxGeometry x="130" y="60" width="560" height="60" as="geometry" />
        </mxCell>
        <mxCell id="m7VxHknI9QD3Q0uFePXc-5" value="" style="endArrow=none;html=1;rounded=0;entryX=0.25;entryY=0;entryDx=0;entryDy=0;exitX=0.25;exitY=1;exitDx=0;exitDy=0;" parent="1" source="m7VxHknI9QD3Q0uFePXc-2" target="m7VxHknI9QD3Q0uFePXc-2" edge="1">
          <mxGeometry width="50" height="50" relative="1" as="geometry">
            <mxPoint x="250" y="130" as="sourcePoint" />
            <mxPoint x="300" y="80" as="targetPoint" />
          </mxGeometry>
        </mxCell>
        <mxCell id="m7VxHknI9QD3Q0uFePXc-6" value="" style="endArrow=none;html=1;rounded=0;entryX=0.25;entryY=0;entryDx=0;entryDy=0;exitX=0.25;exitY=1;exitDx=0;exitDy=0;" parent="1" edge="1">
          <mxGeometry width="50" height="50" relative="1" as="geometry">
            <mxPoint x="411" y="122" as="sourcePoint" />
            <mxPoint x="411" y="62" as="targetPoint" />
          </mxGeometry>
        </mxCell>
        <mxCell id="m7VxHknI9QD3Q0uFePXc-7" value="" style="endArrow=none;html=1;rounded=0;entryX=0.25;entryY=0;entryDx=0;entryDy=0;exitX=0.25;exitY=1;exitDx=0;exitDy=0;" parent="1" edge="1">
          <mxGeometry width="50" height="50" relative="1" as="geometry">
            <mxPoint x="565" y="122" as="sourcePoint" />
            <mxPoint x="565" y="62" as="targetPoint" />
          </mxGeometry>
        </mxCell>
        <mxCell id="m7VxHknI9QD3Q0uFePXc-8" value="Chat" style="text;html=1;strokeColor=none;fillColor=none;align=center;verticalAlign=middle;whiteSpace=wrap;rounded=0;" parent="1" vertex="1">
          <mxGeometry x="160" y="76" width="60" height="30" as="geometry" />
        </mxCell>
        <mxCell id="m7VxHknI9QD3Q0uFePXc-9" value="&lt;u&gt;Teams&lt;/u&gt;" style="text;html=1;strokeColor=none;fillColor=none;align=center;verticalAlign=middle;whiteSpace=wrap;rounded=0;" parent="1" vertex="1">
          <mxGeometry x="310" y="77" width="60" height="30" as="geometry" />
        </mxCell>
        <mxCell id="m7VxHknI9QD3Q0uFePXc-11" value="About Us" style="text;html=1;strokeColor=none;fillColor=none;align=center;verticalAlign=middle;whiteSpace=wrap;rounded=0;" parent="1" vertex="1">
          <mxGeometry x="450" y="75" width="60" height="30" as="geometry" />
        </mxCell>
        <mxCell id="m7VxHknI9QD3Q0uFePXc-12" value="Impressum" style="text;html=1;strokeColor=none;fillColor=none;align=center;verticalAlign=middle;whiteSpace=wrap;rounded=0;" parent="1" vertex="1">
          <mxGeometry x="590" y="75" width="60" height="30" as="geometry" />
        </mxCell>
        <mxCell id="m7VxHknI9QD3Q0uFePXc-13" value="" style="shape=callout;whiteSpace=wrap;html=1;perimeter=calloutPerimeter;position2=0;" parent="1" vertex="1">
          <mxGeometry x="250" y="131" width="260" height="60" as="geometry" />
        </mxCell>
        <mxCell id="m7VxHknI9QD3Q0uFePXc-14" value="" style="shape=callout;whiteSpace=wrap;html=1;perimeter=calloutPerimeter;position2=1;" parent="1" vertex="1">
          <mxGeometry x="250" y="201" width="260" height="60" as="geometry" />
        </mxCell>
        <mxCell id="m7VxHknI9QD3Q0uFePXc-16" value="" style="shape=callout;whiteSpace=wrap;html=1;perimeter=calloutPerimeter;position2=0;" parent="1" vertex="1">
          <mxGeometry x="250" y="271" width="260" height="70" as="geometry" />
        </mxCell>
        <mxCell id="m7VxHknI9QD3Q0uFePXc-17" value="Type for Message!" style="rounded=1;whiteSpace=wrap;html=1;" parent="1" vertex="1">
          <mxGeometry x="240" y="360" width="290" height="30" as="geometry" />
        </mxCell>
        <mxCell id="m7VxHknI9QD3Q0uFePXc-18" value="" style="html=1;verticalLabelPosition=bottom;align=center;labelBackgroundColor=#ffffff;verticalAlign=top;strokeWidth=2;strokeColor=#0080F0;shadow=0;dashed=0;shape=mxgraph.ios7.icons.pointer;" parent="1" vertex="1">
          <mxGeometry x="493" y="367" width="30" height="20" as="geometry" />
        </mxCell>
        <mxCell id="m7VxHknI9QD3Q0uFePXc-21" value="" style="shape=image;verticalLabelPosition=bottom;labelBackgroundColor=default;verticalAlign=top;aspect=fixed;imageAspect=0;image=data:image/png,iVBORw0KGgoAAAANSUhEUgAAAgAAAAIACAYAAAD0eNT6AAAAAXNSR0IArs4c6QAAIABJREFUeAHsXQd4VFXa/kgPKaSQQhohkEJCSEjoCb2FJITQETuiqKgoimBHBcQOFrAh0qSo6669Yl/rWlbFbbpVd91dXXvX8z/f/Bkdh8lk7jnnztzyzvPkmcnMPfee8573fO932neI8AICQAAIHIhADyJKJ6J8IioJ8JfR8Ttf4/1LO/A2+AYIAAEgAASAABAwG4E4IiogoqFENJmI5hLRMUS0gojWEtFGIrqViO4lomeI6E0iepuI/kFEHxLRx0QkNPx9RkT/7rj3Kx3PepiIbiOirUR0FRGdQ0RHE1EbEY3ocDCSzAYI9wcCQAAIAAEgYCcEYoioDxGNI6JDiehUIrqCiLYT0aNE9AYR/UeDcOsQf9V7fE5EfyaiZ4loLxFdTETHEVETEZUTUbydKg55BQJAAAgAASAQDIEoIiomojFEdDgRrSKiW4jocSL6CxF96xBxV3UOOP0PRPQuET3d4QDxSMIsIiojouhgIOM3IAAEgAAQAAKRQiC2Y6h7Wsew/DYieomIeMhchzi6/R7fdExr8MgBO1FziKiKiNjBwgsIAAEgAASAgOkIsOBwj3QeEa0joruJ6E9E9B2EPiKOzv+I6AEiOp+Imoko03QG4AFAAAgAASDgeAR4fp57mYcR0QYi4sVuH0DoIyL0RkZA3utYY7CUiBqJKMHxTEUBgQAQAAJAQAkBnqs/mIiuIaLfENHXEHvLi30ojgFPw9xPRKcR0SBMGyi1ESQGAkAACNgeAW/vnrfS8Xw9r04PRUxwjf1x4l0VvJaARwjqbc9kFAAIAAEgAASCIsCL9EZ1zBU/SURfQPDh8HRw4B0iurJjK2JQEuFHIAAEgAAQsD4C3YiohoiWEdF9WI0PsQ/B4eMtmasxRWD9xo0cAgEgAAT8EeDQtouIaFdHtDoM19t/uD4SdXizP7HwPxAAAkAACFgPAV7UdW7HnnsOJBMJwcAznYf7kdajOnIEBIAAEHA3Arx4j7d28ba8v0Hw4fCYxAGOSMjrRvACAkAACACBCCLAB8nMJ6LbiehTkww+evHO68Wr1ikfuoQXEAACQAAIhBkBDt4yg4h2ExEfIqNqzJG+A8OY2FgRGxcnEhITRfek5AP+EhISPb/zNd6/6JgYN+J3dpg5j8cBASAABFyLAB9529pxEIyu42sdI1wxMTEiOSVVZPbMErm98kVh72JR0q9MlPevElUDB4na+qFiyPBGMXL0ODFmwhQxsalVTGpuE1OnzRRT22aKtlnzlf/4PpNbposJTa1i9PjJomHMBDG8cYwYPKxB1NQNERVV1Z485RcWiZ5Z2SIltYeIj0+wax1c6tqWiIIDASAABMKEwEgiurHj3Hq7ioV0vqOjo0VKaqrIyc0TRcUloqx/laiurRdDRjSKxrETPULe0j5HWbx1OACy95g2c57HcWCnYfDwBlFVXSuKS0o9ZU5JSRVR0dHS+Jk4OnRWmPiPxwABIAAEXIVALhEtJ6L9JhpwS4hKVFSUSE5OEdk5uaK4pJ/oP6BG1A8bKUaNmySmtLbbWthlHYJA6aa0tItRYyd6RjL6llaIrJxczzRFpPhR2LsPhw7meBJ4AQEgAASAgCICvIK/jYh+SUR8vKslBFpXPrgn3yMtXRQU9hYVVQPFkOENYtzkZtE6Yy5EXmH6gacweKph4KDBok/fUs8UiNlrEngdBI9atM2a/07b7PkXTpt1UIUi95EcCAABIOBKBPoS0SVE9E9dYhvp+yQlp4j8giJROaBGDGsYLSY2TfMKBsReQewDjQwE+o7Fmdc5sFNQ2LuPZwqlW7du2hzK2vphAerxoDenzZ6/onnOHB69MvLitS1DiWg6EY0nIg5YhRcQAAJAwLEI8NDpJCK6i4i+j7Rgyz6fRYXn5wuKij0L7RpGjxfNbbMCiIP6ArtAQofvQsd1atssMWLUWM9CxJ7ZOYJHZGTqnR2KLnD/dtqsefdOnzl/wdgjjgh21HBOx8mSH/nlgwNWPUtEzY5t/SgYEAACrkQgmYiOt+vcflxcvGeFPffsG8dMEC3TZ3clBvg9DD3+LgQ5YB20ts8RI0eNE6XllSI9I1N0NULAv5dWVBodyfmobdb861tmzBvg19p5Yev7fsIfyCG5loii/dLiXyAABICArRDo13Gimn9vJ5DRs8x3SUnJnu10vIVt3KTmgEIiIz5IE3rPPVxY8VoC3lnB6wh4rQYvzuS1BDzC06dvmRg/Wa3+p82c99L02fMOS05OZmfgfyGIv7cd8EmEeAEBIAAEbIcAz23eaZdh/sTuSaJ3n75i8LCRgledh0t88BzrOQRm1UlaesbXBsTf6wSMs13LR4aBABBwLQIcj/9uCUPnNXhheeceXlZ2jmexHu9BN8vo477uEfhgdT1y9HhZXvOR1XgBASAABCyLQBQRtRPR81YW/rT0DFHef4AniE7HVi4Iv0Xn6YOJqR1/61taLusA8KgBn3mBFxAAAkDAUgiw8M8hojesKPy8eCsjs6cYUFPnCX1rR+FAnp0xgsDRHBXaSKWlWj0yAwSAgKsR4K18LPx/UDBqKgax07S8xSunV54YNHi4tjj3EGFniHAk6zErO7dTzobQhupcbW1QeCAABCyDAEfs+20IRkvF4BlKy4fh8H58DryD6HoQ60gKfWfP5hgCCm0m2zKtHxkBAkDAlQg0ENETCkZMxQAekJaH93kRH/f0m7EnH2sZLL6WoW7I8AM4HEpbSk5J+bJt9jwebcPZA640uyg0EIgsArydzxKr+n3n9JtaZ0D0LC56nfWG3fg9B46KTzB+/DGHNGa8OJZA++z5YyNrCvB0IAAE3IJAMRHtJSIOTyrVe9GVrntSkucQncnN0yH6EH3bcqBu6AhD7Yh3rRw4pXXQwwGiC7rFJqGcQAAImIxAdyJaRURf6BJwmft4h/gHD2swGoLVtgLhxp6x28pcXlkdkhOQnJIqgji833KY4ba2g/hMAbyAABAAAsoI8BzjIUT0DxnB1pWGT9OrrK4RU1oRjc9t4uiW8g4Z3ii6d08K6Aiw48sRKfkAoxDw+Kht5kGnz5kzh08VDPbi7bpDiGghES0jooOIqDBYAvwGBICAexDgeX4+hSygUTL7ezZ6uXkFYuTocaEYPVyDaQDbc4CH9oc3jBH9yvt7drDwOQTVtfVS8SqmzZq/v23m3EAhg9mpP4qI/hqgDfPU3oNEVOseM4eSAgEg4ItAFhHdEql5ft6+x4etTGhqtb1BD6G3hjLCcTGbA3fPnHlwQUcDj+1Yw9OVU/8tEZ2Fkwd9zSI+AwFnI8A9gyOI6L8BegZdGQzl3/ngnarq2lCHOc02mrg/hNlJHPiobda8pUR0g8G2zVt8i5xt9lA6IAAESonoUYPGQVn0+Xl89jqftoc4/AjWgxET8zjQMGaCbHv9sCPCJ6wkEAACDkOAhwTPjMTq/syeWWLEqLFO6mWhLBg1sCwHOBS2ooO/GQcQOcz6oziuRmBEJML39szKFnwMKnp75vX2gC2w9eUALy6Mio5WdQA4/ZtEVOFqq4nCAwGbI5BARFcQ0feKPQJDBiUrJ1c0jpkA4UcvGRwIMwcmTp1mqK12YRc+IaK5NreByD4QcCUCvL0nrMf08olno8ZNgtEPs9H37QHis7tHBCY2aXUAvM7EeiLiKUS8gAAQsDgC0US0koi+7sK79zZu5fceaemY44fow/GzAAda2+eIqKgo5TYdwHY8Q0T5Frd9yB4QcDUCJUT0VIDGa4ZBEByjn+ObY1W/u3udGHWwVv3zSJxJNuA9IhrmaguLwgMBiyJwGBHxnJ1Zjf/H+8bFxYvKATWCexsw/tYy/qgP1MewhtE/tlUT7MFXRHS4RW0gsgUEXIdADyK63YSGfoAR4aHF0vJK0RxanHI4BxYYEoZD4E6HIL+g6ID2q9lGXEREfMYAXkAACEQIgUFE9EfNDTug4cjO6SXGT2mBqEPUwQEbcKBl+myRndsrYFvWaC9+RUQpEbJ9eCwQcDUCxxDRlxobc0BjwWF7h4xohNG3gdFHb9+dvf3O6p3X5pRWVAo+bMtEO/EKEeW52hKj8EAgjAgkEtFNJjZoj7Hg4f6SfmWiefpsiD/EHxywMQdGjZ3oWbBros14l4hqwmgD8Sgg4EoEKjsidJnp0Qse7p8wBSf0ddazwvfoaduNA1OnzRR5+YVm2g0+R2C0K60yCg0EwoDAfCL6zEQvXsTFxYlBg4ejt2fj3p7dhAn5Da8zVVs/VETHxJjlCPAOAUQODIMY4BHuQYCP7r2QiH4wU/x75RWIKS3tEH+IPzjgcA6Mm9QsklNSzXICOOz4Ce4xzygpEDAPAY7lv9NM4Y+PT0Cv3+EGH73s8Pay7YA3r+0xeavgOvPMIu4MBJyPAIfdfNFM8c8rKBRNrTPQ44MDAA64lAM1dUPMCh3MIwwbiIhHMPECAkDAAAIcbpPDbpoyTMdz/UOGN8Dou9To26GHijyGb9SicexEkZCQaIqtIaLrEDDIgOXHpa5HYIGZ+/szs7LFpOY2iD/EHxwAB37kwOTm6SItPcMsJ2A7EfEhZXgBASAQBIGlZi3242Ag5f0H4OAeGP0fjT562eHrZdsBaz7bo6Co2CwnYA8RxQSxffgJCLgWAZ4nu8SsIX+O5tc4ZgIMP8QfHAAHuuQAH/RlUvRAOAGulTgUvDMEYoloh1nin1/YW0zF4T1dGj079NCQR/TYw8UBXiMUHR1txmgApgM6UwJ87zoEkojofjPEn0P5Dqyth/ChxwcOgANSHODFgXz0twn2aRsWBrpO61BgPwQyiOgZExqXZ0UvN95w9RbwHPRMwQFncmBCU6tISk4xwwm4GVsE/RQB/7oGgUIiessM8c/smYWIfujxwfkDB7RxYEpru1k7BBAsyDWSh4J6ESgionfMEH8+va91xlxtDR+9Omf26lCvqFejHGiZPltk5eSaMRJwhtcw4h0IOB2B3maIPy/WqRsyAsKPXh84AA6YxgHuXPCZISZ0Xo5zuuFH+YAA9/zf1t144uLjBeb70aMz2qPD9eCMDAemzZwniopLdDsBfIDQbEgEEHAqAqaIf0pqqpg4dZppHr+MgUAaCAs44HwOlPQr1+0EfElEjU4VAJTLvQiYMuzfMytHTG2bCfHHkC84AA5EhAP9yip0OwEfEFF/90oFSu40BFj8/6x72L+wdx8s9oPRj4jRR+/e+b17I3XcV78T8Bci6uU0IUB53IdANhH9Qbf4V1RWw/BD/MEBcMAyHOhbqn0kgI9BT3SfZKDETkEglYh+o1P8OTZ3bf1QyzR6I70EXIteIzjgbA70LdW+JoDDo+MFBGyHQDwR7dMp/hzWd/CwkRB/9PrAAXDAshwoLinVvSbgdNtZf2TY1Qjwmdd7dYv/0BGNlm306Nk5u2eH+kX9GuGA5i2CvD2w1dWKgsLbCoGrdIp/dEyMGDFqHMQfvT5wABywBQc4TkBefqHOkYBPiKjKViqAzLoSgdU6xT8uLk6MGjfJFo3eSA8B16JHCQ44mwOt7XMEb1PWaA9/R0RprlQVFNoWCByrkeyCo/uNndgE8UevDxwAB2zJgebps0WPtHSdTsB9RMRTrHgBAUshMJqIvtblAMTGxonR4yfbstGjZ+fsnh3qF/VrhANNrTNEUnKyTifgEktZfmTG9QiUEhFHr9JC8pjYWIg/enxw/sABx3Bg/ORmwdOZumwkEc1zveoAAEsgwHNSb+kiNi/4w6E+6GEZ6WHhWvDFDhxguxYVHa3LCfiIiEosoQDIhGsR4Lmoe7SJf3S0GDkaq/3tYMyQR4guOGCcA3xcuS57SUQcKTDOteqDgkccgQ26yMxBfoY1jHbMkB+Mo3HjCMyAmRs4oPnwIKwHiLgMujMDR+sSfw7vO3h4A8Qfc77gADjgeA5wjIDs3F66RgJ+IKImd0oQSh0pBIYQ0Ve6HIABNXWOb/Ru6NmgjOjBgwOhcYC3B6akpupyAv5NRHmREgM8110I8KK/d3SJP5+gBaMRmtEATsAJHHAOB8ZPbhG83VmTLX0M8QHcJcSRKG03IvqFJsKKvIJCwcNhMGrOMWqoS9QlOBA6B0Y0jhU8BarJpp4ZCVHAM92DwDJNRBWZPbMEh8qEsQjdWAArYAUOOI8DldU1uhyAb4loqHvkCCUNJwIjiOgbHQ4Az31NnTYT4o8FX+AAOAAOzJov8guLdDkBbxIRH8WOFxDQhkAmEf1Vh/jHxcWLiU3T0Ohh+MEBcAAc6OBAc9ssneGC12qz/LiR6xHgeX8twX54rgvH+jpvCBPD0qhTcECdA3z2CcdD0dDR4qmAwa5XLgCgBYETNRDSQ+qqgYPg8aPXBw6AA+BAJxyoGlirwwHge+wnogQtCoCbuBYBjjX9qQ4HoKCwNxp9J40evSf13hMwBIZO4UBur3xdTsCFrlUuFFwZgSgielKH+Kf2SBMtWPEPBwgOEDgADnTJAT4+OCEhUYcTgKkAZRl07w1W6BD/uPh4MXEqFv05pXeCcqCnDQ6Yz4GRo8frig/wKhHFulfGUHIZBAboCPX7/4v+xnbp8cKgmG9QgDEwBgfsxYGyiiodowB8j9NlRABp3IlATMcxk8rkKy3vD/HHkCc4AA6AAxIc4CipaekZynaYiD4not7ulDOU2igCvHBEmXRM3NYZc9HwJRo+emr26qmhvlBfZnFg7MQmXVsD9xgVAlzvPgQGEhEvHFFyAGJjY8XEplaIP8QfHAAHwAFFDpRXDlCyxz72fKL7JA0lDhUBXvX/jA9ZpElXN3QEGr1iozerR4H7orcKDtiLAxqnAv6AMMGhyqH7rjtGh/gXFZdA/CH+4AA4AA5o5IDGqYCV7pM2lLgrBLKI6ANVByA5JUW0TJ+Nhq+x4aO3Zq/eGuoL9WUWB8r6a9kV8BkRFXYlCPjdXQjcoir+vOWvcexEiD/EHxwAB8ABEzjAi6o5qJqqrSaize6SN5Q2GAKjiOgHVVL1LS1Hozeh0ZvVm8B90VMFB+zHAe5kqdpqIvqOiMqCiQJ+cwcCcR2HRiiRKik5GaF+If5wAMEBcCAMHCgq7qNkrzsciBvdIXEoZTAEeEGIMpkaRo9Hww9Dw0ePzX49NtQZ6kw3B6a0tovYuDhVu81rAVKCiQN+czYC2UT0iaoDUFxSCvGH+IMD4AA4EEYOVNfWqzoAnJ53fuHlUgQ2qop/Yvck0YxV/zB8YTR8untTuB966HbkgKbYAA+5VPtcX+xyIvpG1QEY3jgG4gfxAwfAAXAgAhwYNXai6omBXxJRkuvV0IUA3Kkq/r3yCtDoI9Do7dhbQZ7RywYHzOFAQWFv1amAqS7UP1cXeYTqtr/o6GgxsWkaHAA4AOAAOAAORJADHCFQsTN3tqvV0GWF70ZEzykSRlRUVqPRR7DRozdlTm8KuAJXO3IgMytbxQm4zWUa6OrizlUV/6SkZNHaPgcOABwAcAAcAAcswIHK6hoVB+C3rlZEFxU+hoj+qOoADBs5Go3eAo3ejj0V5Bk9bHBAPwcUowP+y0Ua6OqiHqYq/jm98iD+EH9wABwAByzEgea2WSojABwWmI+Cx8vBCEQT0e9VHICoqCgxYUoLGr6FGj56U/p7U8AUmNqNAxwTQMW2ExGHhMfLwQgsUCSIKC7pB/GH+IMD4AA4YEEO8GmsCjaep4fxcigCPLzzpgI5BG/7m9wyHQ3fgg3fbr0V5Bc9bHBALweaWmeoiP/3RMS7w/ByKAJzVMSf05ZWVEL8If7gADgADliQA4qLAP/pUN1DsTo8u9dUHIC4uDgxtW0mGr4FGz56Unp7UsATeNqRA9W1dSojAC9DKZ2LQLuK+HPayupaiD/EHxwAB8ABi3IgI7OnigNwh3PlDyV7UcUBSEzsLloQ9AeGz6KGz469NeQZoww6OTChqVVF/DktQgE71E9oUBF/Tjtw0GCIH8QPHAAHwAGLciC/sEjVAWh2qP65vlh7VByAhIREhPy1aKPX2YPAvdAjBQfsyQHFxX/sOHxNRCmuV0oHApBPRN+oOABVmPtHrwcOEDgADliSA1Na2kVi9yTV3v+DDtQ+FImILlIRf1753zx9tiWJj96KPXsrqDfUGzighwMt02eLtPQMVfHn9MdDLZ2HQCIR/VfFASjvPwDij54POAAOgAMW48Ck5jZd4v8FEaU7T/5QokUq4h8TEyOaps1Aw7dYw0fvSU/vCTgCR7tyYOiIUSIuLl5Hz5/vsQVS6UwElAL/9C2rgPhD/MEBcAAcsAgHxk9uEekZWob8vc4Dh/+tdqb8ubtU41R6/3ziH2L+o4dk1x4S8g3uOokDrTPmiryCQq9o63zf4W6ZdG7pd6o4ALyn1EkNCGWBIIAD4IAdOdAwZoKIi9c23O/rPHxORCXOlUD3lqwHEXHl+la2oc+8r9SOjQV5hpEHB8ABJ3Bg0tQ2UVBUbMhuG7T5K9wrkc4u+WKDRPgZyXqkpUP8LTLn5wRDhjJAkMGB0DnAC69L+pULnoZVseNdpOXQ8LHOlkH3lu65Lio/KLFq64fCAYADAA6AA+BAGDnA8/w1dUPMGu73tfkfElEf98qjs0veX0X8OfAPDv0J3VtHzwZYgQPggAoHvMKvIZqfr8h39vlbImpytgS6u3SXqDgA/bD1D72eMPZ6VAwn0kJ47cwBFv5Bg4eLpKTkzsRa9/c/ENFCd8ujs0sfQ0TvyToA3bp1ExObWiGAEEBwABwAB0ziQGv7HFFdWycSEhN1C3yw+7H4L3G2/KF0LbLiz+mysnPQ6E1q9HbuqSDv6GmDA+ocmDptpqgcUCP4dFUVOy2R9isimgd5dD4CSsf+1g0ZDgcgQg4AG4fBwxoET8Fk5/QSqT3SRPekZM9fUnKK6JmVLYqKSzyLhMZPaUE9RaieIITqQug2DCdMaRF9+paK6JiYcAs/P+99IhrlfOlDCfngn08lvEMPKTnuP58s5bbGGcnyTps5Twwd0SiycnINb/lhB4GPaZ7S2o46gzMADliQAyNHjxe5vfIFT63K2mUN6U6BNLoDgXYVshT27gMjEkYjMmR4o+CevUqdcVreK5xXUCRGjh6H+gtj/UXSccSzrTsK0dw2SwwcNFhwLBXVtq0pPQ76cYf+03YVwrC3CsNivmHh8xW4x69SV52lTU5O8YwKNLXiBEdw2XwuA+OfMB41bpJnii5Cw/zB7MkfXaJ/ri5mHBF91JkwdPU97z/l4Wg06J8atBlYcC9d4xGenTZ6HhUoKOwt2KlDvZpbp2bwBPe0R53xup0BNXUiJbVHp22xK9sbpt97uVodXVD4ZhUilVVUQfxNHj6uGzrC8Dy/Sp160yYmdhel5f3FuElTUccm1zGE2x7CrVJPvHefp+965RdEpD1727XB95ku0EBXF3GzQUL8zGPFqnJzDdfQEaMivRDIU988L1k1cBCOeYYjAGfQAAd4FI1H03gXTmxs3M9sp4rdDWPai1ytjg4vPAf/+a8smXg1uYpHjLTBnYcxE6aIqOhoSxkNXpWcnZMr+MwHrBcIXn/gtzvxYdHnef2+ZRWCR9Fk7atF0j3icA10dfEmqpCsvP8AOAAGegNGBKF5+mwtK/1V6rertOwMcIyB6tp6Mbl5OrhgEheM8AbXRsbp4OH9EaPGieKSfpEI1mOmk8Hrw7q5WiUdXPiruzLywX4fO7EJRt8ko9+3tNzMRm3KvdMzMkVlda2YgJDQaBcmtQsrOTgc+2TIiEZR2LtYxMZZc3g/PiFB5Bf1UW3vpQ7WQFcX7ffBBD7Yb3wIhZUao5PyMn5yi50WCQU0LskpKZ5zyYc3jhEcv9xJ9YOyRKaXbQXcx01u9qyFyco2HoArmD3V/Vt8QqLo069cDB4x2vMXFaU0lbjA1Srp0MIXq5CuX1l/GHWTejlFxcoee0BRVqlvlbTR0dGesyI4lvm4Sc3gjUm8sYJAOi0PfLw5D+2X9CsT3bsnWapdBWqT3OMv7lvmEf0hI8cI719yitJ2wyscqoGuLtbiQAQK9btRYyfCkJtgyDk8L+/FD7Ue7HgdRzHs3aevqB86ArsKTOCQ00Q4nOXhYf1hDaNFTm6eiI2NtU075MWGJaX9DxB+rwOQ06tApSxPuVopHVr4O2TFg0+kQpAYc4ZBORSobL3YNV1ySqpn8VT90JFiSgvOJwin4Ln9WSz4I0aNFWUVlSIjs6ftnG8OJNSvourHnr5X8P3fS8r6q9iVz4go2qE66Mpi8fY/6eh/vNLV7YbDrPLzFju7CrmufKekpP54eiEvNIWzaY6zaRaHrXxfXqBaN2SE54S9tPQMS8TYMNpuePdNZla2qBxY16Xwex2B6rqhqnal2pVK6dBCNxglne/1vPLVyo3crnnjrX+qw/9pKUli47lHiX88tlH888nrxJ1XnypmTBwiYiwWT8CXT1195tMme2bleHppQ0eOwimGmDYIyf5MbZvpOeiq/4CBnpP14uMTVEUwoum5HfTKLxI1g4eHLPxeB4DfOX1XbS3I70c6VAtdWazzg1R0UJKw9zm1bVZIDdCuQhypfHOYUNl64XQpSYnijbsuE2L/7gP+3n18k7jgxLmiMDdT6Rkq+dOZls+gyM3LFxyLgo9Fnjh1GjjpYseAD8riufuKqmpPqN3uSdZfsBdqe+A1M7ywr35Yo5Twe50AxVMGN7pSKR1a6OdCJZ//dTxPFimBdPpzVVf/33D+0QcIv78z8N3rt4q7rl0uWsYMElFRET1rXLsjwnuxOTARx1AYNHiYGD1+suBRFafzxk3l484HR9njSJR9Sys8USnt3rP3t7H8f3R0jMjOzRNVNfVKou8Vf37no78DPSvE7553qBa6rlg9iOi7ECv9AMIg+p8587EcSSwuPv4AvEOtp5LCbPHt6zu7dAB8HYK/PHKNOPf4WaJPQbb0c0PNXySvS+ze3XOMMm/l4kWWDWMmIIyxxUcLOLIk11NN3RBPPAk+Bttp1d9cAAAgAElEQVQBYXW7bGe8IJb379cPH6VN+L1OQGlFVZfPD9JOeSFglOvU0oEFnhKkkrskSCO2/5nSoxzeMKZL7IPV2znHzTQk/r6OwA9v7hJP7Vgljpk7QaSnOmfoNBhe/BuPGPBCsLz8QsFxLdg54BXhE6a0CnbI3NSzDndZOTjUhCktggNFDayt94za8JQOr2q32vkXXfFI9Xd2/Hluf0DtYO2i7xV/fq+pH65kY4gIEQEd4BCskiUs74vFimxzRgA4nKhsvXC63/7yEmkHwNcZ+OrV7eL29aeI6eMHi7hYpUVDSuVRwUJHWl7rwusMMnpmifzCIo9ADagZJAYPGynYCZ40tQ1OQiejCLy1bmJTq2gcM0HwUdaV1TWiT98yz0I8nod24pC9Uc7xgrysnF6iYkCtqaLv6wDw55gYpdgGsxygf64vwkNGyeq9PjevAL2iToyeSg+K56lVVujywj5fEdf1+b+/vlFcv+poMaWxRsTGKIUStbUz4OV/oHeOvMa9Vt6WxSMJxSWlorx/laiurfMEOuIocnyqIwti07QZtnMaOBIeL7DjCI7s+PBCO95Gx+Ur61/lCeiU2ytfpGf2FLzwjqM+BsIJ35Fnhw87lKUVAzoN2OMv2Lr/T0lNU6kf7jziZWMEOJjDx7KNkU99UxE6pA08esDznLJ1wulOOHiKKQ6AryPx4XObxdaLjhdt4+pFQrxSL0KprCo4WSUtiyT3gnl1N09BZGXniF55BSKvoFAU9u7jEVVer9CvvL/HmeAQylUDaz3z4cyVQH91Q4aLwcMaBL/7/s7D65ze+9e/aqDnvnx/jsbIoxu98gs9ecjsmeXJT3JyimDHRnVLqlXwjmQ+omNiPM5hv/JK5VX8OpyBnF75Ku2Pg8fhZWMEBqo0Bu7JQMQDi7gKLiwCKvWyb8s5pjsAvs7AJy9uEbsvXyrmTBkukrvbe2+1Cu5IS0q8dSp+vLaEV/CXVw6MWE+/M2ehuK/SKaN/tLH2IetEdKxso+Mhasz/6xd/3tIkWyecrmd6iuHV/75irvr569d2iEduPlucemSr6F+i1LtQwkEFQ6SFkOviQFp6Zljn9DsT+s6+5+iBCmX9nogSoaT2RWCbbOX3zM5B79+E+f98tb254rj5k8La++/KYXjnoavEtecs9MQZ6J4gv61RlqdIBzGPNAcqqwdZ1gng7YW8wFUBoxr7yh9yzkM4UpVfVlEFB0CzA8DR6xQbo/jN7RdZygHwdRC+eHmbeOims8TKo6eL4TWltg5HLNtukE7O3tgZN17b0VkP3ArfxyckSmlAR53Mg4zaE4FslUbFq39V5rmR9sDpA14xrlIndZV9LCv+vo6A9zOvHbhn0wrPdEF9VYmIjnb2sccqdYu09nYcOJiPFcQ+UB54mkKBX+fZU/6Qa6UAQFOnzYQDoHEEgE8lU11lzYf+eMXVju+8s+BX1y4Xpx/VJkbVV4jEhDgVw4S0kqN7CmLgGMx5Zwtz8OxjZ4qVi6YrlysmNlYMGjLSkk5Abn6hSvl2QUrticBy2YaekpoK8dco/jwawtuvZOuD07FY/u/5zbZ2APydFg5lzIcZceyBQ9tGicq+BUoYqeCLtPbugXdVf72y0kTr2DqxbtkCTxTML1/Z/mNb+v6NXWJguVr75Ofznv9APfBIf8ejE13hE+T3V+0pf8j1LUEqNSghiopL4ABodAB4O6Xq3P+i2eN/NFj+Quqk//lY4zs2LPP0zJpHDxJsuGV5jHTOFvXO6jcrI9UTzIrPveApqP88c2OXbefJ7auU2yjnp195leWcgP7Vg1Ta0NdEVAw5tR8Cj3XWQLr6fkBNHRwAjQ5Adk6uSgP0GKb991zepRFzkiPgW5b3nrhO3HvdCnHhSXPFjIlDHH+YUVftE7//v2PDp1uWFffyxKdYe/J8D0f4GGxf7hj5zHEuVLGNjY0Tg4Y2WMoJqBumdux4Byb/I6IniOhqIppLROn2k0R35fhtWTLzgR1YxHfgIj4ZTEaOHqdsVHjo0oghc8O1H7+wRTy/Z7W46cLFnkWGHL64qFdPZaxl2wzSmTvawHU7aWS1OOmQJrHpvKPEr2+9QHz60i1a28Xf9l0rkhLVt7LyFupID/v7P5+DFWnmKJ8w+zQRnUVE9e6SVnuUlo9zlKp03q4mI3ZI83OngU+YS+2hPoTNJ/e5QdR1lJEdg+d2rxabVy/2bEfkXh3vnkhNVtoKJdWOZNufW9PxwjxeBzJz0lBxxjHtYtu6JeLFvWsF7ybRwY1Q7rF66TwtdV3Wv9pSTkByag8t5QrCzf1EtIyIetpDHp2fS47iJFXpOBr150Iu69hUVA2Uwt+33iaOqA6b8QvFQNr5mn8/fYN4dteFYvvFS8R5S2Z7Fh7ySvA+BdmuPgnRl29mfuZ1MAU5GZ7V94e3jxHnnzDHI/JP7zhf8DSPFbjFkS55WkEVB94VUDt4hGWcgJ5ZOcplChGTr4hoDxGNc77EWreE8SFW1gGk4INLZAUP6X5yHMZNblbe9sd1yMbRCobR6Xn44c1dHhHi0QM+HvnKlYeJUw5v9swvN9ZViPI+eaJHSvcD2otsO3Nauvi4WI8jxVjNbx4plh3R4sFwzxVLPRz+yyPXCBZXO/DormuXa6nnlB5pljkbIK+wt5YyGeTtk0Q01roy6dycpRmsqB/JwaeCQch/EnIZLPgMhYxM9flonvO0g8F0Ux6/enW7+Pu+jZ6haV6YuGXNceLiUxd4YhscM3eCx2HgUZvBA0pEv6JckZmWYqsASLywLj01ySPmNeW9Pb11XoNyxIwx4rQjW8Wlyw/xlPnujad7RlP+9OCGsA7Rh4tr08cP/tEmytpSTldQ1McSowCKWwFVseC1AuOdK7fWK1meLGkTE7vDAVDcAcBnp8vi703HhvjlO9bBAdi/2xEY8NoEdhzefvAq8dJtaz3i+fDms8QvrzlN7L3yZHHD+Ud7zlTgferevxWL2oTvH58DwU5GoD8+nMn3Wv581uIZnntdctrBnlgLHG+Bn8V/D954puDn84gH7zDh1fO6F9WFS6zNeA5PSWT0SFZuxzztwdvw/Bflhfv/fhVVymXx2iaF991ElGs9uXRejopkKykuPh4OgIIDMLGpVfBJirL4e9MdOWOsI4TPDOOMezrDKbJ6Pd6y9jjldsztOT4+IeJbA6vrhmopi9c+Kbx/SESLiKib82TXOiVKla2g6JgYOACSDkBr+xyRlp6h3ND4VD3ekmR1A4n8QYidzoGpo2qV2zPb4tQe6RFfDyCrCSal45gCfa0jmc7KCXtX38hUHA9ZYReA3BqA3n36ajEWHPDG6YYV5YPzYAcO8NRIWkqSlnad0ys/olMB0dHqI5MymhIkDQcXanOW9FqnNP8KAnxQQo+f0oJRAIOjAHVD1KOIcX3xFiReaGYH44g8QsTdwAFenyFrS/3TFfcti5gTwMcW++fHAv//QERriSjaOtLpjJz8SbZyEQnQ2AjA2IlNgrdPyuLtTcejL49uOQfi75CFf24QRzeUkbeINjXWKLdvbufdoqIitiiQDyvy2hoLvj9KRJnOkN7Il2IkEUkHAsrplYcRgBBHAJqmzRRJSeqrhblBYuEfetRuEFQ7lvH9p2/QdjAVnxcwsG5Y2EcCcnpZ/rTNN4iId7DhpYBACxFxnGZpby8mJhYOQAgOQEv7HC37/bmu+NS7//6661PL7Gg8kWc4Nk7gwGO3nKstpkN8QqKoHRLeSIEFvUukNUFFTwym5TNs+ijon6uTNqv0/H0rSiYAjpvScLCfXvl6PGoe+uegMk4wkigDxN7JHODYCr52UuVz96RkUTcsfCcHlpT215Z3lXKHkPZdIqpytZJLFL5Jl/hzBU1oasUoQJBRgKJifd70sfMmQfwx7w8O2IAD376+UzTUlWsT0pTUHqJ++KiwTAeUVVZL57uyOEfMH18jMlPDFg77fWwTDN0LqCWib0PwrEImQGV1DRyAThyA0orKkHHsqk76FuYgApsNDL+Te7Uom7FRm78+eo2WKIFe25CWkRmWGAHllfKHk40b1FeIxy8W3+27SDxyxdEeZyA+1vRthX/A6YJdOwG9iOgLL5l0vadnZMIBCOAAVA0cpE38+QCVF/auQc8PDgA4YDMO3Hf9Sm3rAdhmp2f0NN0J6FsmPwUwdVi5xwFgJ8D799+7zhOXHtcictL1LILuRLueJaLuXcugO6+IIqK/dwKcslCNn9wMJ8DHCShXGEILVEcbzz0Kht9mhh+9ZWO9ZSfjddnyQ5RtrK9d6JGeYep0QF6B/ImAh0wa9KPwex0A7/vnD6z2OAJZaXoCJvli0vH5l0TEWoeXHwIPBQBLGymLS0rhAHQ4AH3LKrThynV2UEsDxB/iDw7YnAOLZo/Xahd4TUDdsEZT1gSoBAK6YOHkTh0AryPw2QMXihULxoroqCitmHRo3Eo/7XP9vyeZKf58bz7UZmrbTFc7Abzav7ikn1ZCDygtFJ/9ZiuMv82Nv5N7tyhbaCMdHLVzRG2ZVvuQnMJOgN7dAQNq1Y433nXugi4dAK8j8OzGJWJAn1ytmHSEth/uetXvAKC37kV/nTkTZRWVrnUA+EyEgkL5YbNAmPL58H+4fz3EH+IPDjiEA/988jpRmJupVfASuyeJgfX6ggXxGoNA9ijU735zw0khOwDsCHz18Bpx0qwGpWcGyNvfiCgdTgDROwHA0Q22534c4nZy83TXOQFTWtu1Bfnx1hUv+nty+yoYfocYfvSSQ+sluwGn39x+kUhJStRqg2NjY7WEDS5RWPzHtis1KUF8/fBaQw6AdzRgy8o5IjE+Vicuu93uAJzhFZRwvRf2LnaVAzB6/GSRmKh3vysH+7n10hMh/hB/cMChHOBzPNjJ12mXo6KiBK/eHzJyjNRfWeVAwbZHJU9zxw2UEn+vE/DcpiUiQ2/8AA5458pXhuwxvyoE4LTDGka7wgmoHzZSy8E+/nivOXk+DL9DDb8bergoY2ijHXdsWKZ1e6DXjuQV9ja8TTA3r1BJ+L3P3nn2QUoOADsCb96yTOT37KElP0TEB93Fu9EDeMxbKeF+T0hMFFOnOXdBIM/39y3Vu9LfW0eI9Bea8YTIACcncOCmCxcr97q9tsP3nVfxVwyo7XIkYEDtEKGy4t/3mQlxMeLDu1cpOwDsBPxx5+kir2eqLieAR8Jd9aokIj47WReAhu+TndNL8Kp4p8X8HzdpquiRlm4Yj1Dq4vD2MeL7N3ah94/ePzjgIg5cfOoCU+wJ2xwW9/yiYlHWv1pU1dSLyoF1gof6C3uXiJTUNK3PXTJjhBbx904HvL7lFJGWrGWtxOdExIvhXfP6bSiCY/Y1/cr7O8YBYGemsrpW8DybGbjxXv/vXr8Vht9Fht8JPViUQc9IzJnHtJtiV8ywVYHuGRsTLf6yZ6VWB4AdgYcuWyT43oGeafC7G9yi/kMMAhMQ3JTE+IDfG713Td0Q2zsBE5taRWbPLC14BMJv5qShgg8OgTHVY0yBI3C0IwfOP2GOaTYmkN3R+d2RUwdrF3/vSMCGE9t04PIVEeW5wQl4WbVikxLixFNXHyeiotRWhHrzYVcnoKV9jijvP8CUhX5ebNonDBFfv7YD4o+ePzgADohrzl5oypoAr70x451P/fvnL842zQH44bF1oq1By6FqlzrdAShVreBu3Ug8vn6xpzI5prPq/bzpB9TU2WokoH7oSO3b+7xYeN8XzhyHnj+MPoQfHPgZB65btUhb58tra8x833PewaaJv3cU4D+/OlfHosDPiCjTyU7AXaoVPW9czY+VyXM6PBqgek9v+qLiEsEr6K28MJD39WeYONzvxWLFojbxw5tY8GfHoVrkGVMMZnPg5jXHmrJF0Gt/dL3PG/+TXnjF2qz32y/QcqDSmU52AHieQ1qw+czmLx9a86MDwBW5adkM6fsFygsfHTx+SovlnICG0eMF71wIlGed33GgjctPP/RnHr/ZxgT3h2CBA/bjwC+vOU0kaVqLpdOGee9VUZQlPrnvgp/phVni773vlCHKZyn8kYi6OdEJONFbMbLvlx7XfEBl8vwLn+8se89A6ThkcNXAWktsExw6cpRIz1SLfR2ojIG+48hf2y9eAvHHkC84AA6ExIHX7rxEFPUKj30KZLOCfXf+kZMO0AuvUJv1vn/rqTp2BQx1ogPwRrDK6uq33IyUTivzvTvOFrzQo6t7GP2dj7McMqIx7KMBk5rbROWAGpGcoi3QRJfY5GWni+d2rw6p0aO3Zr/eGuoMdWYWB959fJOoryrp0sYYtb+q1y+YWNupZpjlAPB9FzYPUcVig9McgDgi+l6lQjefPjtoZd5xwaGmrU5NS88QdUNHiNb2OaY5A83TZ4tBg4eLrOwc08rRGf58BOh7T1wH8UevDxwAB6Q48OUr28X85pGqwqc1fWlBz6CaYZYT8Lvtp6kukvw3EcU6yQk4uTPxCeX75MT4kCrygoWTtRLIP29xcXGipF+ZGDl6vPJiQV5s2DhmgqiorBY9s7JFVLSWYBKGy3/UrHGCzwE3q3eA+6LnCQ64gwMcJfS8JbMtsziQ1zN9cNd5IWmHbmdg1uhqw7bYT28mOMkBeNavcIbAOXl2Y8iVeETTYEP3ls0Xk4vPFMjtle8ZHRg7sUlMaWn/2QgBR+drmjZT8G88lVBVXSuKS/p5BJ/XGcg+W0e6hPhYsfHcoyD86PGBA+CAVg48dsu5ok9BdkTtm9dG7rvymJC1Q6cT8ORVx6qWf42THACOdSwFSHRU1AEr/4NV1DePrBWTBpdKPUs2j3ZLV9WvQLx658VaGz16ee7o5aGeUc+hcODzl7eKM45pF90T9ERslbWxG0+ZEREHgBen9+mVoaJDzzjFAegjW3mcrqZvL8MV+L97VokhFQUq4DsyLUdOXL5wGob80eOD8wcOhIUDvEBw6aFTRaqeQ3MM2+UTZzYY1o9gHUwjv51x8DjD+fXRym+IKMkJTsDZPoUyDMjFi6dKVeBnD1yIkQCfUZfC3Eyxb8s5YWn0ofQQcA16kuCAezjwyYtbxC1rjxOzJw8LqzMwsb5USj+MCH1n1/725lMM652fVk5xggOwz69QIYPCYX8/vf9C6QrkoEHT9cRoDjnPsmU1K110dJQ44eAp4qPnb4b4o9cHDoADEefAN7/dKXidwJUrD/PYpqbGGjGwvMizlZC3E/LflMYacdIhTZ51SuuWyR9HXJDVQ1o/OhN2I9/3ykxR0Y5VTnAA/ikrbkU5acqV9+2jF4nDm+pVKsG2aYfXlIqX71gX8QaPnp57enqoa9S1bg68/eBV0jaYF2t/fO/5yjpiRPR9r50/vkY670R0qxMcgK9lHYDZY6q1VdzWM+aK7gmxKpVhm7TpqUli/RmHi+9evxXijx4fOAAO2JoDvL1QZTHhC9edqE1HfMU9lM+KoepfsrsDwAGApIWTz1kOBeRQr3l188mivDBLOj8qZQlHWm4kpx7ZKv776xtt3eB19yBwP/RKwQF7c6CmvLe03ebOX6gaofu6V25aKp1vIvrE7ucCjFYRvj/tPF17xfGaAqdNCXAM/xMPbkI0P/T04PiBA47kgEqUwZULxmrXkVAdBV6MztMQCjqYZ+dRgGNlC877/0MFWea6xzcs9mwxlM2fFdLFxcaIxXMnir/tu9aRjR69Nnv32lB/qD9dHOAIg7I2N5xHAgfSIl6IKJt3Imq0swOwTrbg6cmJpjoAXFHf71sneHgoOz1ZpYLCnja3Z5pYsahN/H3fRgg/enzgADjgeA7suuwkaTs7oqq36VoSSPi9342v6yuddyJqtrMDsF3WAcjLTA1bpX149yqx6ohJgk8clM1vONKNGVIp9l55suBtNLo8a9wHvTRwABywOgdeum2ttG2O9FZAHoFQ0Ie5dnYA7pQteL/88J/k9NXDazwjArX98lQqTGtaXvxy4Ulzxe/uvQKiL9HT+/q1HeKNuy4Tv7jqVHH9qqPFZcsPEWtOni94b/Gm844S29Yt8RyD/OFzm4GvBL5WF45A+eO6fnbXhZ66Zw4wF5gTzA3mCHPlzbsvE8ydQOnxXfgdpn8/fYO0XeXpZA4R7+2Rh/t9UctQ6bwT0VF2dgAekHUAakvzIlZhb96yTKXClNJy4J7BA0o8Bun3910JA2RQlPhkw3uvWyGWHdEiaiuKDZ1Mlp+TIQ5ubRSbVy8W/3wSxyM7Rej4qOubLlzsqdu87PSQ2ye3xUH9iz07a+67fiUcAoNtUSd/fnhzl0hMiAu57vx15y97VkZMT06ZM0o630TEJ+na9vWof0WE+n9jdZ+IVdg9645UqTBDaXkhX0NduefgDBauj1/YAtGXMDQc8Oj4gyaLjB561nPEREeL5tGDxJ4rlopvX8eUi05jHo57cZ3tvnypmDqq1pATGMw+ZaaleCLXvfILBNcKRx36P6NfUa4h2+pbl09dfVzE9OTsQydI55uIOJS+bV/3+FaCkc9DKwojVmF8gpSRvHZ2LR++w0F5euf1FJV9CwTP4S+aPV5cfOoCzzAjD01zj9Wf6Pg/9CHGJ7evEhxKtLM60PF9SWG2uG7VIvQAJRyzcHOZ2xMfc12cb168D97Wxc7hMzsvQNsNIyfGDauSbue3nnNQxPTktHmjpfNNRKfZVv07QhlKFb6yOCdiFcYLAmWFg+NXsxH64uVtMA4mGgc+ZezQNqWhNcN1zD2Q+284A/VqYr2qOAyPbjlHVJSEd/1O69g6bMMNEx9U2vu6Y+QOldOxXuCYacMM2xof/VlsZwdgo09BDIHAZynrAF/mHse3jzCUV98y8oIiFSOGtF33/nmhVnL3BOk68q0vmc+HTBuFqZowGf1Q2gMfdKUSKEaGA75p+KhbXmMQSl5xTdftuzOMzjymXbrNnzBjZMT05KAJtdL5JqKD7OwArPZtKEY+Z6clR6zC+AwCI3n1vfbmNcfCEJgkDnykaCQNvW89l/bOxUFLJtVzZwIQ6PsX964VfQtzpNurb52qfmbH8NOXbkH7N4kXvGNDto5YhGU6gzrSTB1WLp1vIppmZwfgVNkKi4uJjliFja7pI11h92xaAQNgggHgVfm8ql+WT2ak4xDMd2xYhvo2ob4Dib3/d3ddu1xpZbgZnBhQWih4eso/r/hfvufvxe5X1y6Xbv+Th5RFTE/65WdK55uIxtjZAeAoRtKF//yBCyNSaRVF8guIXti7Bo1fsyD86cENok9BtjSPVDjYVVreLbD1ouNR55rr3Gv0O3vnkTbGvqv6icTvPCLBR9h2lnd8L+cMPLVjlXR915flR0RLvn54rYiJjpLONxGV2tkB6K7SAO+/ZGFEKi0jtbt0hf3lkWvQ8DWKAfemzFzRrcJPb1re7cHbBWHY5Qy7Udw4LCxj7sXfiu/ssHL8AaNlw/Wdc4iDM8nWdaTWlCnGlPmaiGLs7ABw3rkQUhW3dFZD2B2Abx+9SMm4fP7yVjR6TQ7A/57fLKrLiqS4I8s52XQ8HbBvyzmoe01135kQPnTTWYJjZ8jWUzjT8ZQV4np0Luid1XFn3//rqeul6z01KSHsWsLrB3aefZB0nolov93Fn/P/L9lGV1mcHfZKe++Os6UrjFemd0ZefG/MEHDkrxkTh0jXhSznVNJxEKK/PooRILO4zqdecjAelToKd9rZk4fBJmhyCvkMFJWjdXk4XseiPiP3OKpFyYZxKH3bv16QbXSxEVgIqDJkw8N+Zhk/t913/RmH28rQezk+qr4CkQM1GXxfznNkP46Y6cXZTu8cmMi3LPhsrDPgi1dKUqI0B/515zlhdwB46kGBq3yaru1f0rEAGLjnNi0Ja6W9cN2J0hVWV9kHDV2D8f/jA+tFQnysdD0oNDgtz7z89EPBAw088DX8a0+er6VuIsENjmH/zkNYFOhbn7KfOaqqbB3u33pqWLXknV0rpPPaUUZbxwDwei6DZCuM07U1VIa10h5bv1i60kYP7g/Dr8Hwc5hVFc5EOi33Uv7x2EZwQQMXWCh4WiUpMd7WnOAzCWRFD+l+GjHgw5lk2/ezG8PbmeTog7J5JaIfiCjXK6J2f5deCJgYHxtWB0DlICA08p8aqqzRunvj6SqNptO0OZk9PPHbF84cJ1YePV2ceHCTZ40BH7es0Eg7TcthS2UxQLqf82jeVPnInMHqlut+5qShHi4wJ46cMdbDkeyM1E7rNdj9uvrtwRvPBCcUnUKV8wC4c2dk/l712uoS+cOLiOgNu4u+b/65MNKN6rbzDwlbxe0572DpfGLBz88Nt4yQDRvYTxp/f47xNAKfzcCHtnz/xq5OjS9v3eQ1BzpjDfAedY5fIIMB0vzEo9/de4XSrhx/TvAe/Q1nHhF0sSZz5ekd53scA51TUY11FeCDogOgcvBXOLeVv3zjUlU7dpWvgNr982X+DdHI/wP65IbNAbh5xRzpiju8fQwauEID58NcjPAi2LWHTR9t+JCWr1/b4XEEeqTIx4HwzdPRcyaADwp8YEeIe+W+mMp+5lM5rzrrCMMnOvL0A4f4lX2uf7rHt54LTihwon2C/Kr6O1cfFjYdObZtuCpnZthd9H3z38e/IRj9/7WbTw5L5V29dLp0xS1ZMBmNW6Fxz5mi3Gg8e8RVz2PgRYj9S/KleeDldveEeMHnF6BH/1OP3ggWvIeeMfTiKfvO5za8dc8VSvWw45ITtCxMXdDaoJQPI/g58VqV6aBd5y4Ii4a8e/tZIiFOKVbFl0TUw1dAnfD5XdkGzOmGVhSGpfJUFm6cflQbGrekA8BBf1SHWzm9rh4W52fwgBJl8dmy5jhwQpITN15wjDL+Qwb0FVyXOsTwsVvOVeYoOzQIDiTnEHId8iirrI5sWTknLBpyyhzlEaM9ThB8/zKsla04TteNSLy+ZZnpFXjOYROkCXb+CXO0GBodxspu9+BeuxI/unUT3EvTWW5eyZ+Xna6Ur+idr5oAACAASURBVMkNA7XmSWf5rH6v8cOqlLDPz8nQfjAPn/ugwlNOu23dEnBC0ik8Zq68fd60bIbp+sGB5JIS4lQ50uovnk74n88F+F6l8fTNzzS9As84eJx05a1btgANW7Jh89CoCjeOP8ic6Zcnt69Sij7Ge8C/enU7eGGQF1+8vE2pt80R43jxpxlOjooIMcd5fYoZ+XLDPXlRr6yduPKEaabrx4KJtdL56yjXv4ko1gmCH6gMr8lWnjfdFUtaTa1EFQfg4lPhAMgaIZWeNu+7f//pG0wzqrxVzMs/mXdd0xKy2Nox3cObz1LCnOeKzSr3v5++QaQmy0ek45EJs/Lm9PsuXzhNmhcXHTPVVO14YsOxSp2FDtuyPpBwOuW7aTIG1DdNfGyM+N8955tWkXAA5OfnZI0Pr7T2rWOjn1ctmW2qQeWtaCoxyDEyZJxTaxQi//FJgX+4f72pnDjnuJlKnEWgKOOcYPty1uIZ0rivPbrJNN348qE1on9v5SPLeYS8wili31k5lBYDsjhwgAXVIA2dpYcDINcwZcWf03GAFKOi73u92cae88iLyXyfaeQzb2VTwceNaTmQkhGMfa8dUVtmOt7MOd9nGv3MW17dWK+qZeaATUax9l7PC7w7s/uq3y9uGyadL2/+iMiRi//8HYF5PgWWBm1J+0hTKhMOQPgdgKvPOlKaB1X9CsJiSFcvnSedx5GDzBckVcNqtfQqAaEuOuWgsHCioiRPmhM4IEjOzvBOK1n9uOTYZlM0QyV4nE9ZOPRvnb9YOvV/XuggXZGctls3EvdcdKT2CoUDINcwVQREZViPF2SpPDvUtLwFTJazJYU4JTJUnL3XFednSeP9xLbzwsKJo2bJLxg+9/hZYcmjF0+nvJ96ZKs0Ly4/Xv/6sTduWSZSuqvHqiCiu5wq9oHKtVjWmPqmi4mOEnx6n+rwjW96OADhdwCWHip/aIbZ8/9ew/n7+66UNjxZGakw9gZ3AWSmpUjjHa4QzCzivvbIyOdTDm8GJwxygtsi42YEZ99rde8C+NveM0RBVg/p/PjkjXv/QwMJpZO/+7MPANIg8qLAP+08XZsTAAcg/A6ASk/q+lVHh8WQfvrSLdIc5a2AXkcC76HxKz5O/jjoz36zNSx4bzrvKGlOLJo9Pix5dBrfVLYBbjixTZtO/Peu83Qs+vPyZ4uThb6zsg3sOPLQC4L0OwdeeGvbaVoq98xDxkvnA6u9QzPu/kbp5MPkvfp7Nq0ImyHl7YYyTiufROhfZvwfnCs90+VGANJSksKG9a+uXS7FB+YQD2WDA8E5EAifEw6eIo05h3n3He2V/fz+neeI+jL1UOEdtuRDIsruTCSd/v0dMgY1UJrY6CjxyBVHK1fwqiMmSRMM83rGGzQ3cl4QFahOQ/kuHDsAvIaovkouNPCoepwC58Uw1HdeOBlK/ftfM7S6X9iElc8X8H9+qP+Ha+QqVLztct1x8+Xt87Untyvrw593rxRlhT2l6z0AP451usgHK18cEX0RABQpgHn/77Yz5ylV8qXHtUg9m8twGrx6KeP7t33XiujoKMO4V/YNzw4Ar3G84MS5hvPIvLhs+SFSuHif68Z3DqolYxc4fkA48SrvY3wnAHP93cc3hTWf4cTEzGfx1IkMLzjN9afOVNKG5zedIHIz5EamOsnzC0QUFUwg3fBbeyfgSFf01KHl4vt9F0lV9sZT5ANNsHdqJvmdfG+ZY19vvfTEsOL94XObRUaPZEO85AWAOPzF+MgQn6KYnZFqCGs+8veDZ28KKydkzgbAMdHG+eC1fSqnAe48+yApTeCpAnYe4mKjDfGxC137jIgq3SDwoZRxaxdgGQY+r2eq+IPE4sCtZ8j18jj/iPEt37DZcPcryg25njk87w9v7gqrsWcjdMeGZYJHmkLhK19398bTw55Hr7G0+/t9168MeWSIIzXuuWJp2LFmDhoRpT4F2eI/z9wY9nzanQve/DePHhRS2wvUPu9ae4RhB4AX+80YNUD6mYHy0fHd4aEIo5uueTsIWFIVwEZhxqgq8e2joY8G3H7BIVLP4rzPnjwMDVtia4+3cb/z0FWiuqyoS/znN48UfFiMN12437nX19UqdT72dffl4RekcGNh9vN2XXaS4F0UwWwDHwO9/eLInbDHXJzbNCJoHjn/A8uLxJ8fvjpivDW7rsJxf15PE4wLwX57bP3ikB2AHx5bJ7gzmJWWJP28IHm52U3CHmpZc4jo6yCgSVcEB2rYfPrskCr//ksWSj9n6qhaNG4FB4ANCBtT3k3RO+/nC23YmeNwvNwDj0TP39+48fkA7Ij4i1NSYrzgMLbh2ovuny8n/v/HB9aLg1sbBTtVvvaB/+dTJMO5ELQzfJmTt60/RQwecOBCUebyJacdLL58BadCdoZfqN/XVhT/jAO+fOjq84vXhxYz5tmNS8SIqt7Sz+kiH28QEZ+Mi1cABCaoHhkcDPzU7vHi7MMmBHUEnrxK/lz6MUMq4QAoOgC+hoBF9pGbzxZP7Vgl3nviOkti+/nLW8WLe9d6zjN46ba1ER2Z8MXOiZ/ZOWSM+ewIxpyxt2I5eYEfHyPN8f45gJQV82jXPPUtzJEW5t9tD75V/KmrjxOtI/pL3z+Y9nT8xhFwywLoHr7yQeBQXfEBOquQpMQ4MX98bcAAQi/fuFSaALxNzK4NC/mWX78A7IAdOBAeDhhdGOqrAe/eftYBnb8P7jpP8PbAof0Lpe2+7zOCfP7YTbH+ffRc6uOKIEBqrai8zFRx5NTBgr0/Xu35++3ywT2KevWEA6BxBABGNTxGFTgDZ7twwH/KzYhOfHLfBR4b/86uFeKm5bNFe2OV7pX9nWnTV0TEo9t4GUDgKiOVq+NaDiZU0iujs0rs8ntejGSXhoR8wuiDA+CAnTjw1avbu7TBnekAryE6vKle9FGw753du4vvvyOiuQZ0D5f6ILCuC3ClCWHWfbHnG0bVTkYVeQVf7cKBvz56jeXsfRc6wkHupvvoGT5KIHCi2WsCuqhEQ6TjFct2aVDIJ4w/OAAO2IUDL+xdY8gW67TrEvfiGP+NEnqHJAEQmG3m7gCJyu2UiM/svAAOANYBgAPgADigmQMcVEunrTbxXv8gogEBdAxfKSAwnIg+MbHStJDrzqtPRcPX3PDt0kNBPtGbBgfM48BNFy7WYqNN1pCniahAQeeQNAgCHECBD1CwLBFWL50HBwAOADgADoADmjlw1rHy57SEQTN+ICJesxYTRL/wkyYETrfqlEBdZR80fM0NH70q83pVwBbY2oUD44dXWbXj9x8iatakbbhNiAjUE9Hfw+DZGSJdj5TucADgAIAD4AA4oJkDfJCS1ew9Ee0horwQNQuXmYDAmUT0jVWIERcbg4avueHbpYeCfKI3DQ6YxwE+7tkqdp6Ifk9Ek0zQM9xSAoE0ItpnBXLExETDAYADAA6AA+CAZg5woDUL2PjPiOhsIoqX0CkkMRmBCiJ6JpJxAzji1Lev70Tj19z40bMyr2cFbIGt1Tnw6Uu3CLatEXQAPiKi1UTU02QNw+01INCbiB6NlCOAM79hUK1uUJE/cNROHHjtzksiJf68wI97/D006BJuEWYEMojoGiLiYxjDRiA+BtROjQt5hRiAA+CAlTnA8VXCaMO/JaJ7iWg+ESWGWbPwOJMQqCWiXxERz+GYSiYOWGHlxoS8wdiDA+CAnThw+emHmmqziYgP7eEYM6cQUa5JGoTbWgSBvh1BG14jIj6qUSu5zjymHQ4A1gCAA+AAOKCJAyccPEWrje6w+W8QEZ86205E6RbRJmQjAgiUEtESItra4QX+i4h4GEiKdDMmDkHD19Tw7dRLQV7RqwYHzOFAU2ONlC3usOFsz3n09xIiWkREo4goMwI6g0faCIEZsg5A38IcOABwAMABcAAc0MSBgpwMFQdgmo10B1m1CALVsg5AVFQ3wdtW0BswpzcAXIErOOAeDvzv+c0q4s9p+1lEU5ANGyEQS0RfyzoBz+66EA6AJu8fxt49xh51jbr258CT21epOABfElG0jXQHWbUQArxIUIp8N5x/NBwAOADgADgADihy4NpzFkrZ4A7b/bKF9ARZsRkC22UdgBMPbkLDV2z4/j0B/I/eITjgPg4cO2+SigOww2aag+xaCAE+dliKfGOGVMIBgAMADoAD4IAiBxrqyqVscIft5sPi8AICUgg0yToAGT2S0fAVGz56e+7r7aHOUee+HPjhzV0iLUXpFEDe448XEJBCgM95lvY+//TgBjgBcALAAXAAHJDkwB/uXy9tfztsN8d4wQsISCMgfY7AtnVL0PAlG75vLwCf0SsEB9zJga0XHa/iAPAJft2kLT8SAoGOUwWlSHjc/ElwAOAAgAPgADggyQG2oQqjsI9AwYCAKgKXyhKwprw3Gr5kw0ePz509PtQ76t2XA4P6F6s4AOtUjT/SA4GZsg4ARwT8+IUtcALgBIAD4AA4YJADn7+8VcRER6s4AHMgX0BAFYEcWQeA0z28+Sw0fIMN37cHgM/oEYID7uTA41vPVRF/TttH1fgjPRBgBN6WdQLOP2EOHAA4AOAAOAAOGOTAumULVByAD7AAEOKtCwHpiIB8jCV6MO7swaDeUe/ggDwHWsfWqTgA9+sy/rgPEDhOdgQgKTFefPXqdjgBBr1/GE55wwnsgJ3dOfDt6ztFanKiigOACIDQbW0I1Mg6AJzusVvOhQMABwAcAAfAgRA58PSO81XEn9OO0mb9cSPXIxBFRBxUQoqUZxzTjoYfYsO3e88F+UfvGxxQ58CqJbOlbG2Hjf6KiBJcr1oAQCsCD8k6AHWVfeAAwAEAB8ABcCBEDoyqr1BxAJ7QavlxMyBARCtlHYBu3bqJ95++AY0/xMaPHpR6DwoYAkO7cuCz32wVcbExKg7AhVAsIKAbgUGyDgCn23HJCXAA4ACAA+AAONAFB+7ZtEJF/DntZN3GH/cDAnyoxHuyTsChbaPQ8Lto+HbtsSDf6G2DA/o4cNIhTSoOAM//J0GugIAZCGyVdQBye6aJ79/YBScATgA4AA6AA0E4UJyfpeIA8FotvICAKQgcLOsAcLpndl6Ahh+k4aMXpa8XBSyBpR058NJta1XEn9Oeaorlx02BABH1JKLvZZ2AUw5vhgMABwAcAAfAgU44cM5xM1UdgCooFRAwE4GXZB2AgpwM8cObmAawY88EeUaPGhwwnwMDSgtVHIC/m2n4cW8gwAiskXUAON2zuy6E99+J929XA/uH+9eL85bMFhOGDxBV/QpESWE2/kzAgLGdOKJacJCYPz6wHu3IYe3oTw9uUBF/TnsDJAoImI1Ag4oDcOqRrTBcDjFcX7+2Q/CKZcUzy1WNnivTx8ZEi5MPaxbf/HYn2pND2tNlyw9R5fJMs40/7g8EOCzwP2SdgMLcTEwDOMBgsfhzj1+WB0gnF1bbH7dJI6vhBDigPfHo37CB/VTa0+fY/gdxDhcCV/kbIiP/v7B3DXotNjdainuVVQwd0vqdyYHFtebPzZs9PcdTOhwx1Ygd9bv2jnAZfzwHCPBJU9JkPQ3TALZ2gHjOH8P+8vxXaTuB0vJ0AM8fmy1SuL95joaG1f+8RRsvIBAWBHga4N1AxiiU73Iye2DY0sYjAOceP0va+QuFH7jGuHNxwYlz4QDYtE3xziheOKvA+2+IKD0slh8PAQIdCFytQFjxy2tOg8GyqcHilegqdY+0xgW+K8ymNNagPdm0PT2943zV9nQfVAkIhBuB0V0ZpWC/TxtXD4NlU4NVXVakarCQXmEKLVC7GlhehPZk0/Z07LxJqu3h6HAbfzwPCChNA/Ac8ruPb4LRsqHRGtS/WNVgIb1mB6C+qgRtyYZt6atXt4uMHskq7YEP/8mAHAGBSCBwTaDeSKjfrT15PoyWDY3W6MH9VQwW0moWf25vY4dWoi3ZsC1tv3iJanvA6v9IKB+e6UFgaKhiH+g6XviC0MDmrSw2a9V28+hBqkYL6TU7AZhSs1874vY5clCZaltohxYBgUgi8GogcQ/1uye2nYeei816LvOmjlA1Wkiv2QFY0NqAdmSzdvTanZeotoMPiCg+ksYfzwYCS0MV+0DXzW8eCcNlM8N19JwJqoYL6TU7AIvnTkQ7slk74joLZBMNfHct5AcIRBqBTCLihShSZI6OjhLvPHQVjJeNjBfvOZetb6STaydd4Yb1NPaaAvj4hS0iuXuCajsaHmnjj+cDAUZgT1cGKtjvOCDIXsZrzxVLVQ0X0ks6zJ21ozs2LIMTbSMn+qqzjlBtA/uJqBvkBwhYAYHJnRmmUL5PSUoUHz1/MwyYTQyYytxlVFQ38ermk8Xbt67Anw8GjAljE0p7CXTNG3ddhvZjk/bz/Ru7REVJnnRdd9T/CVYw/MgDEGAE2BN9O5BhCvW7K1YcBgNmEwP2xcvblMTq3nVHCvH4xfjzweDui+R7hDyN9uUr29F+bNJ+fnHVqarizyf/IfQvtNdSCJwXqtgHuq53Xk/x7es429ysrXu671ucnyVtxE6dNxri7yP+7AydMmeUNJ59C3Mg/jYRf26HI2qVt/7daCnLj8wAASLKJ6KvA4l7qN/x3LJuocL9zFlfoLIVsKIoCw6AnwNQWtBT2gHAFkBzOG6G7Xh867nS9exjRwdDcYCAFRHY5kNSw0QfWt0PDoBNejLXrVpkuH59ufHyjUvhBHQ4AS9cd6ISljdduBjtxibtRkMQrRetaPiRJyDACAwkoh98Db3Rz/ddvxLGzAbG7A/3r1cSLUwD/LQGYunsRiUssY3WHiMAvHi2Wzf5hZ4dtvRgSA0QsDICjxoVfd/r+VAThAe2h0HjdRu+dWfkc2Zqd/HZAxe6fhTg8wdWi549kqRx5DowY6ga99TfBnmqxkgbCXDt34go1srGH3kDAs0BiGuI+HdefSqMmg1GAY6YMcZQvfrzYtOyGa53AK5Z2q6E4VGzxqGt2KCt8DZNlW2eHW1nGeQFCFgdAd4S+Ka/sTfy/4DSQsF7ZdEL0d8L0YkpT9cYqVf/a8sKe4rv9l3kWifg20cvEn3zMpUwfPDGM9FObOAATB8/WKmeiehjIuphdeOP/AEBRuBof2Nv9H/sCLC2+LMjwds2c3umKRm2G5fPcq0DwCMgRtuF7/V52eniu9dvhQNgcQfghb1rdMz9XwxpAQJ2QYBPqPqnr7Ey+rmsuBfiAljcsLETsOyIFiURy05PFh/fe77rnIBP7rtA5GakKGF3+lFtEH8btJEJwwco1XPH9uoCuxh/5BMIMAJnGRV9/+u3rVsCA2dxA/fqnRerGjexYsFY1zkAy+errZ/gtvLbX16C9mHx9vHw5rOU2wcRbYKkAAG7IZBMRO/7i7qR/wtyMsRnv9kKI2dxI8c7N4zUq/+1MdFR4vlNJ7jGCfj1tceL6KgoJcwQM8P6U2S8m4nryZ/vBv/n4Gq97Wb8kV8gwAgsN0j2AxrLeUtmwwGwuANw+/pTDqg3o/Xev3e2+PKhNY53AnjbHy9+NIqP//UcT17ngk7cS79DwSOY/vUm8f91kBIgYFcEEonoHxKk/7HhJCbEiT8/fDWMnYWdAO7p8M4NlXrmtIdOrnO8A3BEk/JqcFHZtwC7ZCzcHtiZ+vSlWwQv0lRsE98QUR+7Gn/kGwgwAicpNgIxZ8pwOAAWN3iaejti/QnTHOsEXHac2oJJbzu69dIT0R4s3h5WHj1dVfw5/fWQECBgdwR4RwBHsFJqEA/ddBaMnoWNHm8J5FPpVOuZ1wPw0bhOOy74l2sOF1w2VXx4dwy2/ukfrtc5BfKnBzeI+LhY1br+EnP/dpc+5N+LwGJVw1fVrwDbAi3sALABvWPDMlWj50kfFxst7r9koWOcgIcvXyQS4mK0YHPXtcvhCFu8HUwbV6+jrrHv36seeLc9Ahy/+m1VJ+DacxbC+Fnc+Gk47cxjPJMS4sSjVxxjeyfgocsWie4Jyr1BDyZt4+rBf4vz/4EbztAh/h8QUbrtrT4KAAR8EOBTrJQaR3pqknj38U0wghY2gn955BrRPSFeqZ69POGRgJ1nH2RbJ2DHWfMFl8FbHpV3XgyLU/+sPfT/+ctbtUyDEdHJPnYTH4GAIxDgMwKeVDGCnLZlzCA4ABZ2AHgq4IIT52oRPa5vPj519VFTxPf71tnGEeC8XrBwso7wrz/iuObk+eC9xXm/9NCpP9aXgp17h4h43RReQMBxCAwiou8UGoenge245AQYQwsbw69f2yEGD1ALDuTPkaah5eI/vzrX8k7A+3eeIyYPKdMhBD/eY9jAfoIx1blQDffSO5rw3O7VIlrDIk8imu84q48CAQEfBG70N+5G/89MSxH/eup6GEQLOwFvP3iV6JHS/UcRM1rHga7P65kqfnHhoZZ1Am47/xDRK1Mtvr9/uXnaC3Ew9Iq1bueHnTNepOxfdxL/P0VEPFKKFxBwLALZRPQ/icbxswaGBVHWNopsZHVECAzEk+kNleKve86wjCPw590rxbSR/X/Gz0D5NvodT3/ceTUi/ukWbN33O/f4WTrq/lsiqnGs1UfBgIAPAqcYNYaBrt975ckYBbDwKAAb2iULJuswjgfcgxfXHTNtmHj39rMi5gj8+5fneg4y0rXFz5/jJx/WDH5bnN+v/GKdiIvVssVzvY99xEcg4GgEeFvgfn+DZ/T/7IxU8Z9nboSRtLCR/Oa3O8WUxpoDBNxoXXd2PW+xW9w2TLy2+eSwOQKvbj7Z43zo2t4XqGy8nZKx091bxf30jZx9+cp2UV1WpIPb/yKiNEdbfBQOCPghMCGQ4TP63TFzJ8BIWtgBYMHhuOgaTkXr0tA2VheLq5dOF3+/7UztzsDf9p4hrjqpTYwc0LvLfBjlsP/1w2tKcQqmxTnNvD7+IG2jW4f52Ub8CwRcgcCt/sbP6P+88haxAfT1aszqIfJITXmfPNPFk/nDc+eDywvEsrmjBC/Mk3EIWPD3rjpYnDJnlKgvy9e6pS8YxytK8sR/f41RLbN4qOu+912/Uhcn9mHhnyu0DoUMgEBPIno/mEEM5bfrVi3CKIANekwcJKh3nvpRuKFwwv8ajixYXZIr2hoqxaKWoeLEmQ2e+fsVC8Z6Ph/VMsTzG1/D1/qnD8f/xflZ4q+PXgMuW5zL7z99g8jJ7KGDI58TUd8AdhFfAQHXIDBH1bhyAA5dnj3uY+5owntPXCdqys0fRlflVLjT8zayv+/bCB5bXPz56OsmfWtaEPHPNTKHggZD4HYVg4t1AOaKtm6n6H/Pbxaj6it09KAccQ+e88ewvz04fOFJ2qJcPkdE0cGMIn4DAm5BIIeI/ivrBPA+XN0ihfuZa5C/eHmb4FgOsnXulHQzJg4RvJocfDOXbzrwfXjzWbqi/X1FRFVuMe4oJxAIBYEFskZ935ZzYEAtPnQayADzcOr6Mw4XsTF6DsyR5U8k0vHi1fOWzBbfv7EL3LUBdzkaI0cg1cSV5aEYRFwDBNyGwC+MNrD+JfkwojYwoIEcAO93T2w7T+Rlp+syrpa/T35Ohnhy+yoIv014yyM09VXazrbgA9Ew9O82ZUN5Q0KgFxFxUIyQjHhUVDfx4I1nwpDaxJB6BT/QO6+s1ri4KiT+hMoznddxgB8Er7L+cL8vR4+cMVYXnzgEelFIlhAXAQGXIjCUiD7qyujyXm8ePvZtqPhsL8MaqL7uuna5KMzN1GVwLXOfXllpYutFxwue9ghUbnxnTe5eufIwnRya51KbjmIDAUMIlBLRE0GcgD+3jq1fKvbv/gKG05qGU6VePvvNVrFiUZuIibb/2gAuw0mHNImPX9gC4bfZSNU9m1boWvTHTsQ2QxYQFwMBIEAjiGg1EfE2wbuJ6FoiaieieMZGvLXnaBWhQVprOw+v3nmxZ6cAj/YEcQYt+RvnuX3CEPHanZdA+G0m/GwXXty7ViQlxuvi1u+JKBX2HAgAAc0IiP27b4KQW1vIVevn9V9dKg5tG6WzN6bLsB9wH16X0jq2Tvzm9osg/DYUfubqPx7bKApyMg6oW0kn9EsiGqTZ7OF2QAAIMALiz1sSxP7dL6mKDNJb34n43b1XiGPnTRLpqUm6jLO2+2T0SPYcDvP7+66E8NtU+NkGfPLiFjGwXMsJf15uHQFLDQSAgIkIiN/tyhP7d/8VIm59EddRR1+9ul3wYsE5U4brOovda6wNvfNe/okjqj2L+z5/eSuE38bCz7xkXk0YPsAQB7oYFbjJRLOHWwMBIOBFQPzu1oFi/+6PdQgM7mEfR4K31G2/eIngrVp8mE4XBln59z4F2WLhzHFixyUnIHyvzQXft51/+/pOMX38YGV++PDvFSJK9NonvAMBIGAyAuJ3e8aJ/bu/9m3Y+GwfMddRV28/eJXYvHqxOPHgJjG5YaDHKZBZRMhz+exQ8D14FT/f852HrkIv30Gi7+Ubb83UuNefnQgOa45T/ky297g9EDgAAfHmnoXeho13d4l/Z/XN5w7wjgKO5X7HhmWeIftrz1ko1i1b4Pnjz7xHn3/ja3jlPqfp7H743jm8YvHndSU+PXfVz98Q0dgDDBO+AAJAIDwIiP27V8NIO8dIoy5Rl2ZxgONNaBR/vtfi8Fg5PAUIAIGACAghuon9u7eZZTRwXwgSOGB/Dpx5TLtu8b8qoEHCl0AACIQXAfHm3jjx1p772VBzFLZt65aIo2aNEy1jBon5zSM9J7EhSIv9jTiEGHVolAM87H/qka26xf9BIooJr5XD04AAEOgUAfH3vYlrTznorZ7pnR/jydHa/vnkdZjvdeDiLqPCgOud70yw+C89dKpu8f8tEfXo1BDhByAABCKCwIZQ5vc46tcfH1gPJwBOADjgYA6w+C9ZMFm3+L9DRLkRsW54KBAAAp0icFwo4u+9prJvgeBzv9ELdH4vEHXsvjr+7vVbxeHtY3SL/3+IqKxTC4QfgAAQiAgCaUT0gVfcQ32/dPkhPElVYQAAIABJREFUcAAc3AOE8LtP+LnO+XRJPp8hVDsQ4nWfE9HwiFg3PBQIAIGgCBwVYiP+mVEo7Z0LBwAOADjgIA7899c3ipGDyn7WzmVsg1+ar4moOagFwo9AAAhEDAE+e1uq0b/3BBYEoqfszp6y0+qdo0KWFfeSsgNB7Md3RDQnYpYNDwYCQKBLBB4O0oCDGoSXbluLHqCDeoBOEzWUJzTn7Pk9q0V2RmrQti5hI74nogVdWh9cAASAQEQR+JVE4/YYCz5yFkY2NCMLnICTFTmw+/KlontCvG7x/4GIFkbUquHhQAAIhITAxTIOQGJCHGLAo/cPB9CmHPj+jV1i5dHThczhT13YC+75HxuS5cFFQAAIRByBEV006IC9Aw4KZMUeDfKEnjY4EJwDn7y4Rfdxvl4bwXP+6PlH3KQjA0DAGAKPGHECuhEJzP8HN7IQIeBjRQ78/r4rRf+SfK9g63xn8T/MmNnB1UAACFgBgd5E9L4BJ+A88daeg8T+3V9a0cghTxBfcOBADvziqlNFanKiTtH33ouP9Z1tBUOGPAABICCHQDURcahOb6MO9M6Le84nom78CPHWrpHirT3vw9geaGyBCTCxCgc4aucJB08J1J51fPcFEU2TMzlIBQSAgJUQSCaiVUT0Vz9H4CsiupuIhvpnVvxhZ4nYv/tNqxg75APCCw78xAEe8q+tKNYh9IHu8T8iGuVvE/A/EAAC9kaAe/h9Oxr3QCJKCVYc8btfpYj9u++G4f3J8AILYBFpDvCx3sndEwIJt47v3iOimmB2Ab8BASDgEgTEY4/FiLd2XxVpo4fnQ3jdzoGPnr9ZHDZ9tA6R7+we+4moyCWmDcUEAkAgVATEW7uOEPt3f+52I4zywxGJBAcevPFMUZib2Zlw6/j+SSLKDNUe4DogAARchoD4/a0VYv/u1wMZwL/tu1acf8IcMXpwf1GcnyUqSvI8p4/dcP7ROGLYpkFlAtUzvguvA8R7+xfPnWhGYB9fp2ELEcW5zJyhuEAACBhFQPx9b6LYv/tGrxD88OYusebk+SIhPtbXoPzsc0FOhrj10hMRYAiOADhggAP7tpzjcab9Fu7+rG0p/sbR/VYYtQG4HggAAZcjIPbvPoynBI6eMyFkgzS5YaD404MbIAIGRMDraOE9vD3vSOL94XObxbHzJpnd6/+UiNpdbsZQfCAABGQRGF7b7zyjPRA+a2D10nni69d2wBGAIwAO+HCAR9O2XnS8GSf4+TvpfyIi3gWEFxAAAkBACoHuRPRPow6A9/rKvgXiye2rIAA+AhDJXieeHdkRhjfuukyMGVLpL9Rm/H8PEaVLtXgkAgJAAAh0IMDDh0oGik8sWzhznHj/6RvgCMARcCUHPn3pFrFiUZuIjYlWakshtEWe7+cRuyhYMCAABICAKgKXhGB0QjJqKUmJnmmBz1/e6koRQO87sr3vSOD/3eu3Ct4h0ysrLaQ2otjWPiCiZtUGj/RAAAgAAS8CvHVIq/Hi3QJb1hwn+EzzSBhlPNN9QhyJOr//hjPEgNJCrW0nSFvk/f2F3kaLdyAABICADgSuCGJ0lIwbrw+4Z9MKOAGYFnAUB/bfc7knNoZZ7cbvvjzkv4GIYnU0dtwDCAABIOCLAJ8RriT0XaVvaqwRL9221lEiEIkeJ54Z2ZGN3917hThk2igRHR1lanvxaU//IKKxvo0Vn4EAEAACOhHgsKGf+xgdU4wbLxRsGTNIPLd7NRwBjAjYigN8Yl+YhZ/b4F6E9NVp5nAvIAAEOkNgtdkOgO/9OZDQUzuwdRA9+sj26LvCn4X/0Law9vhZ+Hmh3/zOGiq+BwJAAAjoRoDnFx/3FelwfB43rEo8dsu5tuoNdiUa+N3aoh5K/fB01UEtDeEc6veOuvHe/l66GzfuBwSAABDoCoEkItoTDuH3f8bwmlKx67KTxDe/3QlnANMDEeEAR++797oVgp1Sf36G4f8PiWhhVw0UvwMBIAAEzEZgGhHx4qOwG8LcnmnivCWzxb8RUCgiIhhK79hp13Aoaw7bW9WvIOx872hjdxNRgdmNGvcHAkAACISKAIcY3UxEP0TCEeATCY+aNU68eufFEEKMCJjCAT7MiiP35WT2iJTw/4WIWkJtkLgOCAABIBBuBHgL0u8j4QR4nzl2aKXYfvESgeiC9p9bj/ToAU8x3b7+FMGLUKOiukVK+L8losuJKDncjRnPAwJAAAgYRSCeiM4gos+8ohyJ99TkRMFHFj+z8wJTeoSRFic83zwH548PrBdnLZ4RrnC9wRyLR4ioymgDxPVAAAgAgUgjkEdE2yI1LeDrdJQV9/KsFfjzw1fDGcAUQUAOfPDsTeL6VUeLhrpywTEofPkTgc9/JyIOuIUXEAACQMDWCIwhotciYEQPMOIckW38sCqx4YwjcBIhHAHPNNHNqxeLKY014TiV7wA+BmgTPGq2iogSbd3ikXkgAASAgA8CfBTpHCL6cwCjF4phNOWarIxUseyIFvGPxzYG7BVimN28YfZIYfvhc5vFRaccJPoUZFuhp+/lNcfv59Ey7On3MRr4CASAgLMQ4J4Nrw/4yEqOQLduJBoGlYsrVx4meLV3pMQJzzXH4fj7vo3imrMXignDB0RyMZ9X7P3ff0lE/Z3VzFEaIAAEgEDnCPQkovVE9KWVHAFvXvoV5YolCyaLu65dLj596RY4BDabLuC9+vu2nCPOOKZd1FeVWKmn7yv+TxDRqM6bCH4BAkAACDgbgXwiuoaIvvKKr9Xe42JjPNHe1i1bIF75xTrx/Ru74BBY0CF4654rxIYzj/AcIJWUGO8rtFb7/DQRTXB2s0bpgAAQAAKhI1BERNcR0ddWcwD885PRI9lztjvPI/MBRV+9uh0OQZgdgm9f3yle3LtWrD/jcDG3aYTIy063msgHys+viWhS6E0CVwIBIAAE3IVAMRFdHY7jhv2FXfb/+LhYz9YxjhJ398bTxT+fvA4OgWaHgDG97/qV4tzjZ3l2cVi8h+8v/g8T0UR3NWOUFggAASAgjwCvEeDtUHzUqb9Btfz/6alJHqfgpEOaPHHj37jrMkwdhOgUvPv4Js/aCz7joXVsnSgpzLZ8fQfgKK/q55j9w+SbAFICASAABNyNAIc/XUZEHAfdjkLwY55TkhI9TsGi2ePFJacdLO68+lSx/57/a+9MwKOosj1+Ot3p7ixkIRASIAmBsCUBQiALIPsWCEICgigILoiiyOaCIigwymMcHTdEUfTpuC8wKDIuDxcUl3HFhcVxQ5/rcxvfiLs5851+6bymrXR36lZ3uvv+6/v666Srurru7577/5+6VXXvZSw3rOl297+Uee/2S3nLlct43ZKZPLduOFf1LeL0NslNvGK0vuU5/o1E1E3vZovSgwAIgIB1BOxENI2I5M7pWDeJw45fBieSs1wZjOaMWTX85+Vz+K7LFvPu29bwwZ0bYjJBEIN/95Gr+ImbL/D0gKw9YwZL4iNj6ncvyGGH3X4Ygzio0/eI6EwiyrAu5LEnEAABEAABfwJlRPRkHJhGyCYoSYJcVqgo7cYnHzWKzzlpsmcwGxm69t4rlvLOm1byK1vWswx1LAPdWPXo4g+v3urZn5i5nLG/dO86/q8bz/f85jWrTuTVpx/FC2eN55kTB3Np9zxOT01mOVaN6ka6+q8iIklQsYAACIAACISRgAjt5RoZjLKZSuIgr7ycLE9Pg/Q2BHrJHfWyfRSMh69c9gjGiczWhyQgjA0fuwYBENCbgJuItkZQ1GPJgHCsrX9paAsRSYxiAQEQAAEQsJCAXFvVqtsfiU5M3uvxBBGlWxj32BUIgAAIaE1AJkiJitkEYcoxacqR7h15lYhytG6xKDwIgAAIWECgKxG9DeOF8cZYDMhTAT0siH/sAgRAAAS0JDCAiD4Pi/DbbOzMbBfpM0P8Xutfp2+qg6TcPG7br4ptCWF7auEzIirXsuWi0CAAAiCgQEBGUPs2HOaf0rmQh9/+NE87wDzpmc944PpbuHPNdHYkpzaZQzh+F/ts3V4MMfrMkgHc8+Tl/1f/+xs8MTD8tqc4uVOXcNW9THtdodAO8FUQAAEQ0IqAnDV9Ew7DzJt0LE9+6VuP8EsC4Puq23OIB2+8n7vOPJVT84vCZQjYbwR7AVxZ2ZxXO5MHrr+ZJz37P4fVt2/dS0zIduGIOSL6mohk7AosIAACIAACAQj0IaIvrRZim93BpWeub9YAfM3A+3ft059w1RX3cOGM+ezO7hguc8B+LUwI7O5kzh48xlPXo7a8xFP3/daiOi9fu4kTHInhqJMviKg0QNxjFQiAAAhoTUBumvrUavN3Zbbjof+5s0VG4E0Cmt73N/DY7W9w/9XXcv6Rs1iuH1t9nNhfyy8RODOyOHfUZO5z9iU84q5nuf7Nn9Xq+QCzXBJwt8sJR/3K/SzFWrdwFB4EQAAEDAgUEdHHVptgRnE5T3j8oLIpNCUCPpcNJjzxAVdeejsXzVnMWeVDWM4+rT5+7O//kwLpxcnoXcaF0+dx+drreeyDe3la43V8o/pR+Wziro88NwiGgb/cGNjTIP7xEQiAAAhoSaCAiD60Wmy7TD2B61//MSzmb2QuU/f+wmO27eHyP9zguY9AkoLE1DQkBSa6+BOcLpbkraBuLpetvMpzdl+35/uI1aXUb91rP3BB3Zxw1N8HRJSvZUtHoUEABEDAh0AaEb1utfnLnd7hOjs0Mv9An9XsfM9zc2HJkos4r/YYz53ojpQ24TCWmNunGH1aUQl3HFvPvRas5KrL7+ZxO/axJFOBmEZs3f4G7r3wwnBw3YuZA31UAH+CAAhoRyCRiB610vxtdrvnOn3EDMLnkkBLf7P2qY952C2Pc/8114XDYKJ6n0fc+AhPeOz9Ft+k11LGVm0/4OIbWS5BWBmrRCTDBju1a/UoMAiAAAgQ0bVWCqpcgx983fboOHNsYWJgJYdI7CvV5lQyQ6uMOZL7kUdEw3Cfx2YoAQiAAAjoRuA8K41K7vQfeffzMWn+YmIqj569m3wav5Y0j3cnzeGH3DP5fvd0vsM1hTe7avlaVw2vd45sev3BOZzPSxz8u9ca57CmbWT7ja4avt410bOfre5pvMM9g3clzeY9SfP4/eTT+b3k00wnAFLWSBq3lb8lTxrIkwdWxi4Rna1b40d5QQAE9CVwFBH9ZpWIutq25zEPvB6zpiIG5UzLNG0qryfN4w+TF0b0JYmA2fpzpreN6boac/9rLAmn2fIbfK+BiI7RVw5QchAAAV0IVBPRDwYiaEpQxfzl+Xwrz/JaY18q4wr8zX10RM1fko3t7hmm6kvqXYbdbQ3GVv5mGJKA7zFksC4SiHKCgJ4E2hLRQSvNP9bP/L2mJGPUm+Wyzjki4gnARc7hpo83s09FzCcAUm9hSALkUdh2ekoDSg0CIBDPBGxEdL9Zk/P/Xjx0+3vNX97l8UD/Mob6/wh7fsQTgKF28yMh5k+eHRcJQJiSgB1EJG0FCwiAAAjEDYEVoRpasO3kGnK8nPl7kwCVZ82dZOd9SfMjlgTsTZrPiWQ3nbAUL1obNwmAJwnYtocT0zJM8zCI93PiptWjICAAAtoTGE5EvxgIXYtF0+5yN03l6zXPeHgfdM22FrPw5bkicXDEEoBzEwcpHevgax+IqwRA4m/4rbtYYtO3ThT+lrYyVHvVAAAQAIGYJ5Bt1Rj/Mp979VX3xZ15iIFMfuEblkGMzJpGms3leRQw3E8DvJF0MqfbXKaPU8ooZY2HpM2/DDJOgEod+tW9TIqVE/OtHwUAARDQloCdiHb6CZtp8yhbtSEujcNrJJmlA02zEcZzHX3C3gsw21GqdIxt+1XFdR32O/9KJT5+beURIkrQVj1QcBAAgZgmcJafoJkWx16nrIhr45AkQK6Nq/K63DkmbEnAZc7RysdXumxd3Ndjj3nnKHPyiYMlMa0AOHgQAAEtCfQgInm2WVkM82pnRs3EPt6z9XC8y6RBZLMp8Uogm2f0P6svBWxwjWfZt0p9yiUcmUI5HOyiap/7G7hzzXQlVj6cDxGRTJWNBQRAAARigoB0Wz7lI2KmxTC9Z1+e8up38W8ajXMHtK8w/3y9l7eNiM9MrLKsJ2BpYiXLPr37N/vevmqkNvUoMZvWXe1yiQ/nZ4hILqdhAQEQAIGoJ3Cmj3iZNg4ZHrfm0Xe0MQ05i5UbyaxgJ/uY4+jDbyWfajoROJB8Ch/rKLHseGJ1oiazvQsy26GF8wYsjvpWjwMEARDQnkBXIvpO1cSku3jIph1amb/HaPY3sPR6qPLzfr+DLcUzyY9M3hPqZQHZViYEyralWHYcGcX9tbiM458syLTHFj0ZIJcCumuvLgAAAiAQtQQs6/ovWXqxfubfeBmg+uotlhmvNxHIsiXxDEdvzwyBMpGPfzIgn93gmsjTHb25rc2y59mbyiE9G/7mqMv/xWesaeLgrQ+T73IpAE8FRK384cBAQG8CC00K22ECmTOiVsuzRV9D7DBk3GFMrODqu49Um5M729I8L/nbd53Vf+cMn6it+UudTt33G+cMm2AV4wV6SwxKDwIgEI0EZKKfL1XNQ8b4r939qdaGIaYx/uG3OMFpfsAd1Xqw6vt2d5J293H4JnLevyc98zm7sjpYkQR8jQmDolH+cEwgoDeBjVaYRjwOE+s1gZa+WzyojBXm0+J99L9wo/bJnLfeVYd79mlfV+stNSg9CIBANBEosWKs/67HLIBZNN4HIKYhj5IlJIa3e97HVFps7sG+K8eu0yOcXqMP9F4442QrOP9KRH2jSQBwLCAAAvoSeDSYGQRbn5pfxFNe+RcSAJ8EIB56AMpWXoU69alTSYhSu/SwIgl4TF+5QclBAASihcDUYOYebL3N7uBR974Ao/Axiql7f+WU/G5WGEWr7iO5UxeeuvcX1K1P3Y68+3mrHg2sjxYRwHGAAAjoR8BFRG8HM/hg67ufsAwG4WMQ0oVcedmdrWrcweqsJeur/nwX6tevfouOW2RF/b5LRG79ZAclBgEQiAYCy1piBEbbJuV05ikv/y8Mws8g2vattMIgomIfmSUDUL9+9Tv5pW85qUMnK+pH2iAWEAABEIgogWQi+szI1Fvy2aCrt8Ic/Mxh2M2PWWEMUbWPYbc8jnr2q+fqK++1oo6kDUpbxAICIAACESOgPNWvDI4S6I5pXddZOGiMFQZjyT50HwyouVjOHXmkFXzRCxAx2cMPgQAIpKie/dvdySzT3zYnjLp+Pnb7G8pTArekByZi29psPGbbHtS3Xy+ATI/sSFKecwG9ANBkEACBiBFQPvsvXrQWZuBnBpL0FNTNteKMMCr3UVB/POrcoM6LF662or7QCxAx+cMPgYC+BOTs/3OVM0d3+1wMEGNgBBN3faQ88E9OYqoVZmK4j1xnG8PPQ42FBEciT3ziQyQBfnUvYwNImwiVYzPboRdAX01GyUEgYgTObkaAQhaw8rWbYAJ+JiBn/z1OOjtkhkZ10D4xhb+vOp//3udkXphTyR0VDVt+o5MzjRflVvGLfebzD1UruYNigtFj3jmoe4O677/6WqW6b4wH9AJETAbxQyCgHwEnEX1qZD6hftamay8MDGNgAPIoZGJahpIJrMkbyTxo9WGv/WUL+ZrCWj4xuz8PbpPH7RzJzf6GrBvSJt+zrXznQNnCw/Yl+16dN6LZ74cSA4mpaTz5xX8iCfCLARksqU1hTyW2RPQxESXqJ0soMQiAQCQIzApF5ANto/O88IFubOy7/FIl8U9OSOQvKs75nWH7JwTy/6/VF/DXFcv5vfLFnpf8LZ8Zbev/2VcVyzklQW1+gr7LL0MC4JcASGxUX71FKQYa293RkRAC/AYIgIB+BJ4LZO7B1mWVD4HwGwh//Zs/c3JuvpL4n55TGZKB+xu6mf9Py6lQOlYZ/Kn+jZ8QC/6xsL+Bs8oGKbElot36yRJKDAIgEG4C5cEMPtj6I258BKLvL/oHmCv++Bcl0bfbEvjt/osilgBIz4H8ZrD6DrS+4pJbEQsGsTBk0w4lro3MB4ZbDLB/EAABvQjcEkjQg63L6F3G0/Y3QPQNRF/YBOMXaP1RWcURM39vj8G0rGKlY07v0QfxYBALcikgo7hciS0R3aSXNKG0IAAC4STQnoh+CGRCwdbJsKeBroHruu6IzQ+rij0/Vzov4gnAC33U57VHjxAbtgkLJoL6kYiywykI2DcIgIA+BM4PZvCB1su0tjK9ra4mH6jc2YPHKCUAw9IKIm7+3l6AoWkFSseePXgsYsKgF0DaSmpBdyW2RHSuPvKEkoIACISLQAIRHQxk8MHWDbhoM4TeQOjH3P+a8rC/23sd22oJwAO9jlE1KR699RXEhkFsyFgZwdpVkPXvE5EtXKKA/YIACOhBYFgQoQkoVO7sjrjj20DgpVcgb9KxAdkF494zqR3/NujCVksAGgZdyMVJ7ZXKkH/kLCQABvFR//qP7G6Xo8SWiI7QQ6JQShAAgXARuD6YEQVa3/v0CyDwBgI/8cn/ZhkaNxC7YOs2d5vcaubvvQxwQ7fJSmWw2R084fGDiBGDGOk5/zwltkS0MVyigP2CAAjEPwEZ+e/LYEbU3HpbQgLE3UDY5ey/aO4SJXGXIXllaF6vEbfW+49VK1l1joDuxy9FAmAQJzJToM1uV4mTr4hI2jAWEAABEGgxgSnNmXson+eOmARhNxB2GQpXhsQNhWFz26zLH93q5u9NOi7OH61UFkdKG578wjeIFYNY6TC0RoktEU1qcavHF0AABECAiO5pzoBC+Xzwddsh6gaiXrpsnZKoy1C8X4Y47K/XpMP5LkMJp9rVhgcuXfYfiBWDWBm04a9KsUJEd0DJQAAEQKClBNKI6PtQjN5om6TcPDz6ZyDonpu7sjsqifqS3OqoOfv3JhaLc6uVyuTK6sB1r/2AJMAvZmSSoKQOnVTYHiKi1JY2fmwPAiCgN4G5RsYe6mfFC1dDzP3EXK79D7j4RhUx9wzB+27/xVGXABwsX8IOxeGBB6y7CTFjEDO9FqxUihkimq23lKH0IAACLSVwX6hmb7TduB37IOb+Yr6/gdOKSpTE/Jh2faLO/L29ADPblSqVzTNV9L7fEDd+cTPub/uVuBLRXS1t/NgeBEBAXwIOIvrGyNhD+cwz7r+fiAUaDU+XdXJPRCj8Am3zct9TojYB2NP3VLYRKZVxyHUPIgEwaDuKiePXRCRtGgsIgAAIBCUwPJAJBVtXsvRiiLiBiLevGK5kjqPTu0at+Xt7AUalFyqVsX3lCMSOQewUL1qrxBWDAgXVPGwAAiDQSGB9MJMPtH78I/+AiPuJ+Kj7XlQVcH649+yoTwAe6j1buZwj734e8eMXP+MffkuV68VQNxAAARAIhcBrgQw+0LrMkgEQbz/xlkscnWumKwl4aXI2y9C73jPtaH7vl6I2hG3nCTMQQwYxlN6rn0oMvRJKw8c2IAACehPoREQNgUw+0Dp5xl2Xa/qhlrNm53ssQ94G4hZs3S1F9TFh/pKY3FxUp1RWGf2u5tF3EEd+SUDJkotUuEqb7qi3tKH0IAACwQjMC2ZGgdaP2bYHwu0n3N1mna4i3NzJmcY/Va+KmQTg5+pVnOdMVypzt1kLEUd+cTR668tKTInoxGCNH+tBAAT0JnBnIIMPtE5mL5u2vwHC7SPcR/79K3YkpSgJ958KxsWM+XsvTVxSMFapzHZ3Mk967gvEkk8sTd33G7uyslW4YlRAvbUdpQeBoAQ+CGTygdYV1M2BYPsItlwiKD5jjYpgc5rdxf+sPDfmEoBvK8/jdLtbqexy53uol1l02U5xCun3g7Z+bAACIKAtAblGaFq0K/50GwTbJwGwYk73szsOiTnz9/YCnNVxsOlYkjiUs926Pd8jpnxiauD6m5WY4j4AbbUdBQeBoASmmU4AbDae9MznEGsfse6/5jolsU602fnDAUtjNgH4aMAydtqUprPl8rWbEFM+MVW7+1Mmm00lruqCqgA2AAEQ0JLAJWYTgIzi/hBqH6GW67VtuvVWEWqe075fzJq/txfguPZKj65xapceLCx16eIPpZzpPfuqxNUftVQ2FBoEQCAogd1mE4Ci4xZBpH0SgEFXb1URac93X+17aswnAK/3W6A8PLBMiRuKMeqyTddjFqjE1q6gKoANQAAEtCOQqDL9b+Wlt0OkfRKArP5q179rMopi3vy9vQDjM4pUDIvb9q1EbPnEluJ9ADLFt7R1LCAAAiDQRGCg2bN/+R6G/+Umkxpxx24lwxOejxXPjZsEYGfxHGUeI+58pomvLmf6zZXTgtkBy5taPf4AARAAASI6yWwC4Exvi+f/fc7QOo5RGwlPhtKNlWF/vWf5wd7LU3KVkoCOY+uRAHhjbH8DO9MyVXgeD8UDARAAAV8Cpm8AzBk2AeLcKM4yaYstIUFFnPmO7tPi5uzfmxjc3n2aEhNhOm7HPsRZY5x1GDJOhadM9oUFBEAABJoIPGC2B6B44WoIc6MwF86YryLMniF0ZShdr3HGy/sv1RdwgStDiU3Xo09BnDXGWe/TVqmw3NbU6vEHCIAACBDRP8wmAIOu2QZhPsCecRDs7iQVYeYrutTEnfl7k5jLu9QosUlwulieg2/u2rhOnys+ZfIWFA8EQAAEvAScRPSL2QRg3EMHIMoHmHstWKlkcJmOJP5X5Yq4TQC+q1rBWY5kJUZy5quT0TdX1rEP7lXhKG1d2jwWEAABEKBSs+af4Ejk+jd/1l6U6/YcYldmOxVR5hWdhsat+Xt7Ac7rNFSJkdxwOuXV77SPt/o3flKdYro3dA8EQAAEhMBRZhOANoU9tRdjOUsrW3W1krG5Ehz8yYAz4z4B+GzgWexOcCixKlu1ATF3gDk1X2l8hXpIHwiAAAgIgRVmE4DcUZO1F+Ope3/llPxuSqZ2UnZ53Ju/txfgxOz+SqxSOhfy1L2/aB93uSMmqXA8D9IHAiA2XdaaAAADdElEQVQAAkJgo9kEoMe8c7QX4qrL71YRYs9QuXvLTtcmAThQtpATSGlCG6664h7t4677CWeqxN0GSB8IgAAICIGtZhOAARdt1l6I2/arUhFiPjKzpzbm7+0FmJTZQ4lZZulA7eOufO31Kgy3QPpAAARAQAg8azYBOGLzw1oL8bC/PKEiwp7vPlVygnYJwK6SE5S5Dbv1Sa1jb8imHSoMZeIvLCAAAiBA75lNAMZs26O1COeMqFURYa5I7aSd+Xt7AarbdFZiJ9fAm3tMTofPR299RYXfO9A9EAABEBACh8wmAJOe+UxbEZZJWVSH/b23xwxtE4B7ekxXMTAmm43HPvimtvFX+/QnKvykzWMBARDQnEC6WfO32e0sd8DrcLZlVMYuU9W6sQtdmfxr9QXaJgBS9iJ3WxUT4y7TTtQ2/qTtSRs0236JqI3m2ofig4D2BHqaFRB3+1xtxVd6Puwut4r48jWFtdqav/cywIbCiUoMPcMDP/WxtnHobpejwq+79uoHACCgOYGhZhOAjN5l2gpvz5OXqwgvt3UksQyN6zVCXd8PVZ3P7RSHB+45/1xt4zCjWGlMhSM01z4UHwS0J1BjNgGQM+CUvK76vTp1Ub72L+P+d3Vn4uXO5EyHWk+K3IeR3KmLfnGY11W1F2q89uoHACCgOYE6swkAvkdKvQDgB36tHANTNNc+FB8EtCcws5VFCCZKMELEYKvEwNHaqx8AgIDmBI6H+LaK+CLxQeLT2jEwV3PtQ/FBQHsCpyIBQAKAGNAyBk7RXv0AAAQ0J7AE4q+l+Lf22Sd+v/V7QBZrrn0oPghoT2A5EgAkAIgBLWNA2j4WEAABjQmshPhrKf44A2/9M/DWroNVGuseig4CIEBEpyEBQAKAGNAyBuT+HywgAAIaExgG8ddS/Fv77BO/3/o9EBgJUGPhR9FBQAjYiehjJAFIAhADWsXAR41tHyoIAiCgOQF5HAhnZGCAGNAnBuZprnkoPgiAQCMBGxHdhyQASRBiQIsYuJuIpM1jAQEQAAEPAScR3QAD0MIAcKavz5m+f11vIiJp61hAAARA4HcE5KbAvxLRISQDSAYQA3ERA9KWtxIRbvr7ndzhAxAAASMCCUSUS0Rd8QrKoBsRDSKiKiLqDl5BeZmNKWFb2chamJvdj07fkzYsbRkLCPyOwL8BUhp/JN5eqnEAAAAASUVORK5CYII=;" parent="1" vertex="1">
          <mxGeometry x="190" y="310" width="50" height="50" as="geometry" />
        </mxCell>
        <mxCell id="m7VxHknI9QD3Q0uFePXc-22" value="" style="shape=image;verticalLabelPosition=bottom;labelBackgroundColor=default;verticalAlign=top;aspect=fixed;imageAspect=0;image=data:image/png,iVBORw0KGgoAAAANSUhEUgAAAgAAAAIACAYAAAD0eNT6AAAAAXNSR0IArs4c6QAAIABJREFUeAHsvQeYXMWVNnwm94SeniSNNJoZSTMaaXLSKIAQCGWUQBllwBhMNGByxuRgoshBxtgYMMkEE7xr73q9tned1jkbsLG937e7/vdzWq9T/c/bzBWtVofbVXVv1b331PPM0z3dfe+teuvUeU9VnTqHiAsjwAiEAYEEEXUS0RwiWkFExxLRqUR0CRF9iIj2EdHzRPQ5IvoWEf2CiP5n/A/v8Rm+w2/wW1yDa3EP3Av3xL3xDDyLCyPACDACjAAjwAj4jEAVES0kog8Q0VNE9CYRCZ//8Ew8G3VAXVAnLowAI8AIMAKMACOgCYESIhogovcQ0QNE9G9E9Befyd6NcYE6oW6oI+qKOqPuXBgBRoARYAQYAUbABQLVRLSBiG4ion8got9aSPZuDAL8BnVHG9AWtAlt48IIMAKMACPACDAC4whgpow99seI6HcBJvx8hgHahjairbw6wOLPCDACjAAjEFkERojoViL6VYhJP5tRgDaj7cCACyPACDACjAAjEHoE2onoIiL6TgRJP5sxACyACbDhwggwAowAI8AIhAYBHJuDYxz2w//GxJ/1xAKwAUbAio8ahkb8uSGMACPACEQPgTYiemj8rH222S9/nvkII2IUADtgyIURYAQYAUaAEQgEAk3j+9t/5Nl+1tm+W8MHGMJXAJhyYQQYAUaAEWAErEQgTkRXENFvmPiViT/dQACmwBYYc2EEGAFGgBFgBKxAoIKIziKi/8vEr5340w0BYAysgTkXRoARYAQYAUbACAI4y348Eb3FxO858acbAsAc2HM8ASOizw9lBBgBRiC6CKwnou8y8ftO/OmGAPoAfcGFEWAEGAFGgBHwFIE+IvoSE79x4k83BNAn6BsujAAjwAgwAoyAdgSQGvcPtpJ/cRGJqrJiUVdZIibWlIrWRJnoaCwX3RMrxODkmBhrrRSHTqsSizqrxfKZNWJNT23yD+/xGb7Db/BbXINrcQ/cC/fEvfEMW9s/3jfoIy6MACPACDACjIAWBHAE7QXbiK+yrFhMSZSJgckxcURHtVjXWyuO7vP2D8/As/BMPBt1sA2X8b7iY4NaRJ9vwggwAoxAdBFYRkS/NE1yRUWUnIVjVo5ZOmbtXpO92/ujLqgT6oaVAtTVNF7jfYa+48IIMAKMACPACBSEQDkR3WIydG9jVYnoba4QC6ZVizU9cWsIP59hgLqizqg72mDQGEBoYfQh+pILI8AIMAKMACOQF4FuIvqaCeKqKC0SXU3lYkmXPTP8fISf73u0BW1C20xgOt6X6FMujAAjwAgwAoxAVgROIqLf+0lUWDJvjpeKue1Vvuzj5yNsr76H/wDaiLYa2CZAn6JvuTACjAAjwAgwAgcg0EhEz/lJ/FXlxaJnYoVYMTM4y/u6jAO0GW0HBn5iPt7H6GsujAAjwAgwAowATSOin/hBRDhGB+95HLnTRaZBvw+wACY+HjFEX6PPuTACjAAjwAhEGIFZRPRzP8gfZ+pt8t63zXAANsDIj74Y73P0PRdGgBFgBBiBCCIwRET/x2vCwdG4hdOrecbvMkYBsAJmXvfLeN9DBrgwAowAI8AIRAiBeUT0ay9JJlZaJEanVDLxuyT+9BUJYAcMveyjcRmALHBhBBgBRoARiAACi4jot14RC/ayZ06oEKsDdHY/nXxt+R8YAkuP/QMgC5AJLowAI8AIMAIhRuAoL+P5t9SWiWUWRemzhchV6wFMga1XRtu4TEA2uDACjAAjwAiEEIGNRPS/XpBIIlYiDuN9fs+3O4AxsPaiD8dlAzLChRFgBBgBRiBECOwmor94QRyIgb/Wh0Q8qrPosFwPrIG5F305LiOQFS6MACPACDACIUDgFC9i+pcUF4nZrezkZ8qwAPboAw8MAeQQgMxwYQQYAUaAEQgwAjs8IAhRXV4sls+Ki01DCbFhMCHWDyTEMf3epuI1RbQ2P/fIzupkX3jRx0QE2eHCCDACjAAjEEAERrxw+GutKxfbxxrEcfMbM/7tntcods1tEDvnNIhto/Vi81Bd0kCwmUiDXLdV3XHRXFPqxUrAH4gIMsSFEWAEGAFGIEAIIN77m7pnhsOtlRlJP5sxkPo5DIMdY/Vi60id2DjIKwa6jY5ZEyq8MAIgQ5w7IEADn6vKCDAC0UaghIj+Tif5l5cWiaXdcWnyTzUEUt9jpWDb7HqxZbhObBhIeO5Fr5t0bbvf/PYqUVai3S8AsgSZ4sIIMAKMACNgOQIf0kn+9VUlYuNwnXbyTzUEnPe75zYkVwjgU2AbuQalPku7akRtTHuWQcgUF0aAEWAEGAGLEdimk/xbEmVi59zs+/0OcXvxCh+CzcN17FwoEUp4TU9cTKjW7hcA2eLCCDACjAAjYCECw0T0e10GwIR4qTHyTzUo9sxrFNtn1yf9BoIyC7ehnjACGqq0Bg2CbEHGuDACjAAjwAhYhAActd7QRf4NVaU5Pf1TCdrP99giOHa0nk8VuFwVwAkBzZEDIWPsFGjRwOeqMAKMQLQRgIPWp3WRf6KyRBw7u96XPX8V4wFbBDhNYMNs2+Y6rJwVFzUVWn0CIGvsFBhtncOtZwQYAUsQuFkX+YMoNo/aT/6phgOOFvIJgtxBmJbPrBFVZVqNAMgcF0aAEWAEGAGDCKzXRf6VZcVig0/e/qkErus9jhOu52iEWVdEcDqgolTrEUHIHhdGgBFgBBgBAwhUE9HPdRgAIIajB/056qeL8DPdBw6D8BHgsMSZVwSO7KwR5friBLxNRJBBLowAI8AIMAI+I3CdDvJH4Jg1/Qnr9/wzEX62zxB1EMGFbN6bN1W3wzuqRam+JELX+yzz/DhGgBFgBCKPQNd4/nal8K/IJreytzZU5J9qFCDS4KYhNgTSjY0F06pEcREpyc648fm/RARZ5MIIMAKMACPgEwIv65j9HzK9OrTkn2oI4MQA+wccuC0w1BLTYQDgHq/4JPP8GEaAEWAEfEOggoiaiGgaEQ0Q0RgRdRNRCxHFiajIt5oc+KA1Osh/Sl1ZJMjfMQTgH4D0xemz4Sj/rzGL4NEHiqhv/2EMYixiTGJsYowOElEnEU0a/67Yt9rwgxgBRiAQCCCYyXwi2kVEVxPRE0T0FSJ6i4j+i4j+5IJk/0ZEvyWiXxDR94noc0T0IBGdS0QgaSyNlmpGA0bJj13ULefsDk5/WwNw1t8hb52vcBKMMumntn3FrLgup8CfElFMs6xj7GAMYSxhTGFsYYxhrGHMYexhDOaU9fHvkdr4m0R0ExEdadB41wwR344RYATyIVBLRKvHB/8XiOjXLpWGG8WS7zcwJL5HRM8R0QXjMxSVGcklOuq+qEt/Zj+dJO31vXZhS4ATDiUNoTltlflk2O33l+cbiDm+x5jA7B1jBGMFY8aNEe62bum/wzNqctSHv2IEGIGAIlBHRGuJ6JbxWf1fdJCmxntgheFpInpfgQ5UbTpi/Xc0VURq6T+bMYEtASQbSp0RR/V9a6IsnSBl/scse2oBOgOze4wBjAWMCZlnqlzzLSKaXEB9+aeMACNgKQI4j7yDiD5FRH82oExUFBG2He4nosPyYPuUaruqy4utjPGfjaT9+ByJhqIeNwA5AxAISlW+iOjZHDKM/fqFRPTA+Fabjuep3uNjOerLXzECjIDFCJSN7w8+rmNmrEH5qSojXP8jIrqUiNrTcF+so37Le8J75E/FWMBxwaiHEz50WpUO+cU9lqfJ7nQiuoKIfqJDhjXfAz4Ec9Pqy/8yAoyAxQh0ENGdRPSfmpWBLgWo4z5/HU/wg1UN+DB8W7WtPZNivPQ/vzErBnvm85ZAR2O5DtmFkx6cbI8non8swFFPx7Nl7rHPYl3HVWMEGIFxBEbHvfVt29OXUTqFXINgK4X8/qDfIsMfZrkqs+SoXBtlv4A1PbW6MgcGaYx+hjUsI8AI2IsAlhT/TpUEo3o9Ir6tGQhXqF+vjZEohxE+oqNaFOmJEniQIWrpGMSxWi6MACNgGQIriOjrliqNoCg3MauZl/5lDIYtI9E9ITCtXstWQCDGSHV58e+2jtRdvmtuAr4KXBgBRsAwAoji9UkmfrVlf+CH2f+mkXpe+s+x95/LONgaUSNg2cwaXbkCrDcCOhvL9x8F3TCQ+J9Nw4lvbBmsu23zaO0Mw3qQH88IRAoBBOZAhrs/Mvmrkz8w7JrIZ/5zEbyb76JqBEyt1xIbwHoDAKcfssV/2DCY+M3mocQrx47W4/giF0aAEfAIgZ3j4T2tVxhBMU4w+984Usezf8nZf6pxEMXwwUu7akLvC4BcCOv6DkySlNUYGEj8btNg3fMbZzci5wAXRoAR0IAAEnYgmxgTv2YMZkzg2X8qiau+j6IR0FYX3lUABMVCAKRshJ/r842DiZ9vG60/n3MKaGAAvkVkEVhHRP/B5K/f+IEX94Zhnv2rkn769VEzAsK6CtAcLxXLumqkyD/VMHjHZ6D+gV2DzYhEyoURYARcIFBFRPfZTvwlxUUiVlqUPBddX1UiGqtLRTxWIpBJr0jzbF03Fp0c79+zrY+onQ6wfRUAY7G8pEhgRl9XWSISsZLke4zd0uKi5DYGvsfnk+Ol4tCp2ff8U8m9kPfr+2v/vGm47rG1s1ug27gwAoxAFgRmj6fzNL7kD6XQVFMqQJajbVVi0cy4OHqwTmwbaxC752WPGOfMCrfPaUh62K8dSIgVPbVi4Ywa0Tc5JibVlony0iJj7YNCXD/Es3+nn7x43TiYUJ49FkIwJn+7ZEaNUYMXJN5UXSLgrT86pVLAaW9RZ7XASQXZJXyv8Fw/kPjz1tG6fSfNJoQp58IIMAIpCOzxOMVnTtKNlRWL6Y3l4tCOarHRh+VxHL87cmZcDE6pFK115aKsxB+jYHoj7/17Qfqp94SBuL7fnfOYV2Tj532n6MkWmHN8YhUMq24TqktFV1O5GGutFNiC8LOdup61YSDxh81Ddeek6D5+ywhEFgFkAbta9zK3m/s115aJuVOrkzP7VAVu4j1C8S6ZFRdIx+ulMXAMz/49W/5PlZudcxoCSU4yJLd4Rk1e8nYzHjP9BjN8GBhz2yoFQhHL1M/WazYOJn6ydahpZmQ1Pzc88ghUEBFSbnqmQNLvXRsrESNtVVYHwIExsHimfmNgWmO5L+SXSoRRfr9ttD5UhJWLSFtq9Z0ICDPpp2N4TH/t37aM1iMFMiZCXBiByCCAjGD/lE7QXvwPhdLdHBNr+oMX8x7GwKKuuGiqLlUykoABe/7n993QbbBEJXkQluOxRK8yfuGkh6X9sM3000k/0/8bBhP/sXm4bjgy2p8bGmkEkLL3hyrKws21WErHHvuxs8MR7nZZd62YGJczBOZPr+bZv4agP4UaCHvmNYoNA9FwChycHJMyABqqSsQhHnjfZyJamz9LrgYM1V0aaWbgxocegXYiessNgcv+Bkd84LkPT/xCFXYQfr+yt1ZMLsDxqq2el/5N9uvuuQ3imIg4BU4qwECFQ9+CHKF2bSZrL+u2ebju85t7qTz0TMANjBwCLUSE9JpSM4V812EJcqi1UuyMSG771f0JAXJHWN9M2MAQWtBRE0ojyCShyzx7x1h0nAJHWiqTZ+8zySSCUMFIOLyjOjL+ETLGwsbBxP+3daRuKHIMwQ0OLQITieh7mZSCjs9aEmWR3eNGbALEGcAxRvz1t1QKLPnjcxmy4mu88RWIUuKgo7rjAlsCM5rKk1788OTHOX18LkOIUbxm/UDir8eO1O0KLSNwwyKDQAMRfUMH0affo6q8OOkkx6TlDWkxrvpwhT/A+v5o+ANEkbC9aPM7pwQSyCvglFIiOoWIXhsPmvY7IvoKEV1DRKPOj/iVEbAFgVoi+nI6cev4v2tChdgR0n1+Jl59xGsTlttnR+dooBeEGMV7HtNXK7aO1N1CRCvzrKL+lYgu5yOFtlAf1wNnW1/QQfap98CRtoWdvLdtE7FxXdwbLFEKFRxFwvaizYdNr0bI5b+l6sEc718mohjTDyNgGgHtEf6QeIdj2bsnGyZm+7DaFaEogV6QYdTuuWJWPJlkLAfhZ3ICfti08ufnRxuBDeTeYs0kwAd9hiX/qHj4M3HbR9w6+2TLcB07w/WFK7SvV4bJtPryg3ShS2PgpGhTELfeFAL9RPRbl0LqSrhnt1exR7uBQDY6SY/v9a5RA4fAqMQG8IoYo3JfODpL6tI/EtEcUyTAz40mAvU6z/rjjPsC3u9n4yeExs+xEcoVEBWy1t1OhFiWJH/nup8RUVM0qYhbbQKBFxUF1hHcZGxxZMjjmeO7M0fGIlxY+B0mGKsOGwYTYvNQHTzLxbbZ9QJBinCaBhkM0//gr4B8FPgcJxhgtOA65DiAM+P6iIQ51k3sbu+3qLN6vz5U0Kuv88kAE1QYvWciaIUOgRXlpUViVV/wkvcwQYeLoL3uTy8jBMK42DJSJ7aP1SdJHNsOXrQH94WBgOyHMAz8NmrckmkQf4fASZp0KmIHcGEEPEOgmYj+S4ew4pjfaiZ/T5S1FwTA91Qj1k1DeoIDJQl/uE7sGKsXXpG9277G82HcwNmRVwnUnB2hDzXo1d8Q0VTPtD/fOPIIPKtBSJNx7ZH1zq2i4d+pkQ/jZx6/3fPkkwVhGR5L87s9mt3rkg9sI2D7gGMgFG4MdDVV6DAAcA9sBXBhBLQjsEUH+eMeh8/gAD+6lC7fxzy5u+2DQrYCMKMGmSLLoNv72/Q71Bt+BBwW2Z0xsLonnjW5koTePVG79ucbRhoBeJj+XwlBPMiqnTuVc9bbpKi5Lv4aEHDEy7Z/Duc97K9jrz1M/QLDZ9MQx0TI558w1BI7SF9K6tz/R0TIysqFEdCCACJOKQtnz6RYqBRbmJQ0t8VnQ2DsHW97ED5myiBJ03v6XssAtkE4OFLuFQGkUdaha4lorxbNzzeJPAJ9RIQEFEqC2Vhdav0eptcKkO/vL8ky3nbije0BNgQyGwI4ERAr1eIQiABBbZFnLwZAGYFPqpJ/WUmR2Dhcx7P/EAa6YZK1k2SD0C8wBLACkm9pPGrfHzq1SmmylaKv71XW/nyDSCOwIEWYpIXyiC4O9BMEhcx1ZDI3IQM4PcAnBw5cEehslM4NkKqn/5eI2iPNYNx4JQQ+r2oAzJzI+/4mlCo/k8k8aDKAiIWcO+EdQ2Btb61IxEpSyVz2/f1KDMAXRxaBdarkX11ezJn9eNmft35YBlzLABwFEcI4asv+mdq7eEaNKClW870ioj8R0bTIshg3XBqBb6kaAItn8tJ/0GZhXF9eObBBBhDpkFcDasXQZC1HAx+UZgG+MJIILFEl/yl1Za6tfhsUDteBiY9lwC4ZwGoA+wbUCg1HA7EKMD2STMaNlkLgORUDoKSYvf6ZTOwiE+6P4PYHkh1lWiKPymcrZ8WTWVNVdDIRIZYLF0YgLwJIJvEXFWEbbq3i2T/v+7IMsAxokwFkO4zylkCH+qmAPxNRZ17tzz+IPALXq5B/ZVlxMi0pz7iCO+PivuO+s1EGcFwwqlkHl8+sSSZRU9HNRPRQ5NmNAciJQIyI/kNFyMbaefZvo/LkOjGph0EG4BeQLZdC2LcE2uvKZI8COtf9NxGV5WQA/jLSCOxRIf+K0iKBZCdhUDTcBiZMlgE7ZQA5E6LoHIhjgSr6efza5ZFmOG58TgT+QUXAeO/fToXJRMb9EjYZgBGwaSgROefAybXKyYLuyckA/GVkEWhUcf5DvP/tYzz7D5ui5faw8WCzDEQtzfDhHdWqqwC/IKKiyLIcNzwrAkrL/32TK3npn72+WQZYBnyXgahtBzRVK68CzMvKAvxFZBFQOvt/zBBn+7N5psR145l8WGUA2wEbBqOzHXDoNOVsgTjpxYUR2I9AJRH9Xnb/v7G61HerP6zKjNvFRM0yULgMwAiI0hHBukqlREHf36/5+Q0jQERKiX/mTatmA4CXflkGWAaMysBuxAnoj8ZKwKB6joBuZj5GwEEAYSKlnEuKi0gcy85/RhUfzxgLnzEyZuHEbOechkicDFjapXwk8CJH+fMrI/CWrAHQXl/O5MczP5YBlgFrZGDb7PpIGAFIty6rt4noX5j2GAEgMElBiMTCGTXWDHye1YVzVsf9yv1aqAxsHgp/AqFp9eUqBsDfiGgKUyAjcLSKAbB5tJ4NAJ79sQywDFglA8mTAQPh9geY21apYgDg2uOZ/hiB62QNgNpYiVWDvtBZAv+eZ5YsA+GVASQPCnMGwVXdcVFUJOe7Na7zb2T6YwT+TtYAmDkxxgYAz/xYBlgGrJWBbaPh9gdoqFI6DvgM01+0ESgmov8nawAczvv/1io+ntmGd2bLfVtY34Y5SNCsCRUq2wDfjDb9cet7Zckf122dzfv/rIwLU8aMF+PltwxgKyCsqYIXTlfKDYDgb5wXIMJ2wLGyBkBVeTHPfnnpl2WAZSAQMrB1JJynAtb11orS4iKVVQA+CRBhA+BcWQNgcqIsEAPf79kGP49nuCwD9slAmEMFN9coJQdaFGH+i3zTb5c1ALqb2QGQFb19ip77hPskmwzsGAunQ6BiPID3Rp4FIwwAvECllo84/j8r2myKlj9n2bBVBsLoEKjoCMhHASNsACAcpJQBsLynlrcAeP+XZYBlIFAysGMsfA6BiomBno0w/0W+6b+QNQA2jfAJAFtnOVwvnoGzDGSXgY2D4YoQOEctIuC3Is+CEQWglIj+KmsAwKmGlQxjwDLAMhA0GdgRsoyBh6kdBfwDHwWMngWAAEDrZcm/pLiIyZ+XflkGWAYCKwNhWgVYMkM5NfAxRARO4BJyBLqI6Boi+pks+eO6WBnHAAjarIfryzN1loF3ZSBMJwKQE0BFn49f+3MiQl6YWSHnwMg1r5aITiSiz2sQkqSgxTkJUGBnPkwC75IAYxFtLNb3h8cXoFgtKVC6AfElIjqFiOojx5YhaTCWc5YS0UeJCHs86R2s9H9DVSkTIC//sgywDARaBsIUHbCyrFhJp2fhiD8S0SeIaA0RwWeMSwAQWEZE8Oz0QiCS92yOswHAs8dozx65/4Pf/7tDlCOgrlIpK6AbrvjBuCEQAAqMZhWxd/Oil8Tv3LuFwwAHeubD5BV88uI+1NOHm4bCsQ0woVopHLAbA8D5zWtEhCRyXCxBAPs0COn7J4egvX6dyCsAbADw8jfLQAhkYHtIwgM3VHm+AuAYAHj9MxHdRUQNlnBgJKuBPZnTieg/vSb89PvXV5Ww8guB8uNZpJ5ZJOMYXBz3zG8Ux/TXBj5dcG3MEx+AVNLP9P7XRHQm+wf4b39gn/+76cTs1//xCjYAWOkHV+lz33HfpcpAGLYBqrxxAsxE+pk++x4RgZO4eIxAERFdQUR/84vsMz2H4wCwAk1VoPye5SHIMrBtdvCzBJaXFGUiZj8/AyeBm8BRXDxAIE5Ez2ciZL8/K+VIgLwFwlsgLAMhkYHd84KfIEhzHAAVwwEcBa7iohGBmSaX/DMZGLvmNrACDIkCDPLsjevOqw86ZGDDQHBPA6ztrVUhbC+uxfY0OIuLBgRWE9F/ZyJhk5+tH6pjA4ANAJYBloFQyECQgwJpyAXghREAzgJ3cZFEAHspl6pk7PPSQFgyKx6Kga9j9sD34Fkoy0CwZWDHWHC3Aea1V3lB4DruiWyz4DD2CyjQCKgkome8JHDVe8+ZWs0GAM/+WAZYBkIhA0hvfnRfMI8D9jbHdJC1l/cAl4HTuLhAoISIPqlK0F5fP6s5FoqBzzO3YM/cuP+4/3TJQFCTA7XXl3lJ3rruDU4Dt3HJg8CDXpN3SXGRmDkxJkDiss+azOGA2QDi2S/LQIhkIKjxAFSiAE5vKBdT68uFT6cIwG1cciDwQVlCdnNdeWmRGGipFFtn1ycV1+JZ8nmkE5UcDEjXzIPvw7NYlgHzMhBUR0CVGAALplUltz5WzoqLrqYKUeZ9PAFwHJcMCJzqhsRlflNVXizmTK0SO+YceHRvw3Cd9AoAsk+x0jKvtLgPuA9YBvTIwI4A5gVY2lUjrcPBJau64wf4PqzuiYu+STERK/M0sBC4jksKAhu98PYvKiLR31Ipsp3ZRxxsbAfIGBWcD0CP0mHlzTiyDNghA9CTQXMEHGqR38atLi/O2l7EFuhqKhfgEBl+yHMNTgeA87gQ0SIi+mMewAruBMzQ1/Qn8s7SkdpX5tntDeV5782KzQ7Fxv3A/cAykF8GgngSYIqk/obOb02UZTUAHEPo8I5qEa/wJNEQOA/cF+kyoDvID5w5BqdUit3z8gs8lMLhM+SWkJb31LIBECIHKCYId+OFcQo3TkHLDFhRKreCCwOgf1IsrwEAQwCrATMnVHixGoBgQeDASJZyIvq2zOw72zWY9a8dyD/rT1ViWPaCj0C2e2b6nB0Aw60EU+WD33NfR0kG1gcoJPBiycmbo9MPm17tygBwVgMWdXqyGgAOBBdGrlzpdISO10m1ZWJ7mpOf24G7biDh2vuzsqxYcBhgJgW3ssW/Y1kJkgxsHAxOToCByfL7/0VEAg5/Drm7fYXTYFN1SUETRhf8Bi6MVOknoj+5AMYV0NMay7M6+rkdfCt7awWcQnLVCSsFTP6s0N3KFP+OZSVoMrB5qK5gUnRLnrp/p3L+H/v6svXBlkBLrZzvWBZ+AReCEyNREA3pX7MAkZOAM13TMykm4M2vY6DtnNsghlurBJb4U70/G6pLxaEdNQLf63gO30NPfzGOjCPLgF4Z2DISDANA9fgfAgDJGgC4bl1frehoLC+YrzJx2Phn4MRIRAr8QA4QCgJ0rL3KM0KGbwBm+07QIFY0ehUN48l4sgzYJwNBCQY0a0JFQVyRzjmHjgcAUjECcK3mPATgxlCXTiL6Q3pnyPw/dxon42EFap8C5T7hPgmyDATFACjUcTuVYxA5cF2vvsRHA5PkfRFS6zXOjeDIUBakRPxsWoOlrDjE8Q/yIOO6M0mwDLAM2CgDQTAA4L2vwiPtdfnP/xfhy8zhAAAgAElEQVS6MjBVX0IicGQo0wefpNJpzrXNtWWuz/jbOMC4Tqz4WQZYBmyVgSAYAG11ag5489rfif9fKMnn+j0cA1WcEh1+G38FV4aqlBHR22mNLNiKq6koFseOsSOercqD68XExjIQbBmw3QBYNrPmAAftQjmltLgoGdgnF5nLfoeEQjgmXmidMvweXAnODE3ZkaGRBQGFLE1HD9bx0r+mEw+sqIOtqLn/uP+8kAHbDQB476twCUIHyxK8m+sQLEg2v0xau8CZoSlfSWtcwZ14RFcNkz+TP8sAywDLgIcyYPMxwBWz4gKh3lW4ZKy10lMDAEbCyJRKpTqOtw+cGYqyUKXDcC0S9nhh7fI9eRbFMsAywDLwrgxsHrY3DkCn4rl7zMxlov+5mfmn/0ZTtEBwZ+DLsyoGACw+jr737gBlZcVYsAywDHglA5uG7AwFjP111aV11eA/6SSf63/kKVBdrSAicGegSwcRIfex9JLIQEslz/49XPLzSpHwfZmkWAaCJwMbLE0G1K54zA6x/xE9MBdp6/6uq0nNX2GcO8GhgS23q5A/YvNz+N3gKRFW/NxnLAPBlAEb0wEvVDz3n9xGrvXW+S+T8bCmR8upAHBoIEuCiH6jYgAsmhnn2T/P/j2Vgd3zGsWy7loxY0JFMi00UkrD56S7OSY2j9R7+mwmSe9JctNIvZjVHEv2KfoWk4quiRVieU+t2DPP++cHrY8zEZnJzxCxrzamnn3v8I7CUv/qavPctirp1e9x7gSHgksDV85SIf/G6lJWvkz+nsrAxuE6gdgS2eQUe47DrZXKmSaDRgJhqC9yeQy1VubcNwaxwEAIQ3t1tGH3vAZfl8jdkGy/hjC7cMhz8yyvflNfqWzAgEsDV/4+m2J18/mCTj72p2NQ8z0yz/LgWOo2nnh9FRNFkOQIpI4+c6NnOMX3u+Nj5xy7DIDlM2sEAve46cdcv5nvQeS/QoyFUfVjgeDSQJUKIvqfXJ2S67vy0iKedfHs37OZGQgiVmDErorSIrGyt9azOgWJYG2uK/oIfZVLv6R/B1nglYBGsW12vdGZciqpYum/qbq0oH5M71f8H68oNt4mhAlGAqJM9XP5GbgUnBqYsshlwzKC0jeZk/3YrGSDXDcsDWN7SUY+caznkOmchdLW/kffyB69gkxANmxtmx/12mJRDADVdL/O+EZQnlTDwtT7GYoxDIgInBqY8kGnA2ReNwxzyF8/BnwUnwEHMBmZTL0GDoJwHowifja2GX2BPkntI5n3kA0b2+dXnWw5ArhgWpXAsT2ZPky9Bk6f6/r0pf1VMR5wBDG1bhLvwamBKZ+XaGASII76x8TilcI7tEMtjWiqTE+uLePEVBZsUyE5GPoitW9U3kNGvJI/m++7Z36jFTNlBPwpdAsnW3+b8vzPZihMqJFbeRxvHzg1EKWaiP6UrVPyfc4x/9kA8EJRrulP5PQIzyeXmb5H5q/Fs/ioqhf95eaewF5T9rX9BgROfkBW3Dw/TL+xwQEQ+/4TJLfn0sfn1Hr/z/1nI37nc+QhSK9nAf+DU8Gt1pcVBTTqIEC2zuZjOWFSLDa05djZ9cnz3ypymevazgkVYjunqfaNNIE1MM/VJyrfIVYAZMYG2fWrDjY4ALbV6VnJgRP5Ud1xK1Y0HPLHK1Y3VOSSiMCt1pcbZRuJc7l+CTw/JxorDTvmNIiJcaWlN1eDFsfJEFCI5cpbuQLGbo9vyuohXAeZgexEpT83D5lNAqSa6Ce1r+dNMxP0J5Xss72HcZla1wLfg1utL/9aYKP2A9I1IdpOOFFRNn610y/yT5X3mRNjkSIOP/sS2KZi7fX7KBkBJkMA9zbrW83B0UH4M5hsTzbyx+ftaqsc4FarSzER/Vl2YC7o4OA/finUsD/HBPk7co99acgyFFHYcfa6fcAQWOre63f6Kt9rFIwAjJVcpOXldyMtSvviBxiEODng+G/YmtUQxxLzyVyO78Gt4FhrS1OOyudtOB//Y8LQQShQaBN8WPbPJ+uIRsfbAvIyDezcRvTL1xcq30OWIFM6ZNPGe2wZMbP8PzQ5puW4n9O3qfFjjh21J6hRqgGl4TggONba0uN0RqGviMZl4+DgOskrcBPYJclf7bhNXkO1UNnG0dajBzm2hVt5AFbArFCcvfw9jnCF1QhYbyAFcLeGeByp/d0cLz0gNseOMXOrGqmEn+m94jFHcKy15YjUTinkPZ//DxbRulXmfv4OJ0iaLCN/ZwxgeRKBZpCAyE9MgvQsYAOMdASBcXDX+QrZCtspJUQ/zERSXn2GwDzTG8q1GnfYHkrvF7/bVQheE9V0FDjW2rJJdsB1NLEDYJCUtW11Xd2f8MU7XFa+netAbu315ZxXIMU/AvH7gYmtxO/0HV5xAgGyZpv8y9bHz6VyxMSfonllp6iIMo6l3T4bNoUYAK1qGIBjrS2npg6WQt73TuL4/7KDOOrXzVeIAV+IjOr+bUN1qVjYWXPA0mVU+hLhe9F2YKAbV6/vh3wDkLkw9NX6/oQvKwDLZtYIDWlxD5KVsfaqjP2wZ54dkQ0zGQYdankBwLHWlitkB99IW+aODMMg4zZ4s72BZb4ZHgaEkZXlQq/DEuZIa1UktgewzI+2mvLqL7Rvcv0eshfkBEI7xvxxlJvbVinK1LLhHUT86Jf2hvKM5O/o20zka8NnPWr+D+BYa8veXAMm13ecZc0bknQGQ9hekb7Vi9ljRXmZuPjEY0RzYyKj0sklwzq+Q5tG26pEmE7EoC1okxf95QZz9CX6FH3r5veF/AZtCmoqYa+PymHJX/d+v9M3CBqXzynT1lgAQy1K8SzAsdaWp5wOKvT1yJkcUx0kvXmkXiyaGRcLZ9Qkzz+vH2KnsVTjBefCsfyKcJ+Fyli+35eWloh9V79P/PzTe8U3n7lRrFo4rP0Z+eqQ+n2QjQHTpO/giD5EX6JP0bfoY+c7Xa+QRchkkOI+eL1HvqizWiRi+rFGn2H1yI1etCW7Yfqqw5w2pVgA4Fhry2dlBxUcgVIVfdTeI4DFtMZyAaeWdAzhfYwVkiAvN+rozzUDCYFIX+n46Pi/pLhY3HPpCUmiAFk4f7eet0vUVClZ7FrqixCicJQF0dh4pBB1Qt1QR8Vwp1rwQp+h75x+dF7Rx+hrHTKTfg/IJmRUh6x7fY+tHp39X90TFwjrm0mPpeMl83+stEgc43JStHHQH/+GdILP9/+CaUpZScGx1pYvy3QqrnEiOHkt+Dbef8msuIBjUT7saiqKxWGd0Yswh+QvyPfulZd4UVGRuPW8nQeRhUMaX/zoVWJOf2fe/snXfzq/x6yzta5czG6vSgYbwt46HOu8lm88A89CkB48G3XwYjVGBSv0FfrM6b/0V/Q1+lzlGdmuhYxCVm1ODgUHOS+WxzGzjZV5gyvwxvn5QoxfWw2AI9TSkoNjrS2fyTYw8n2+vCeaKwBoN1KQ5sMn9XtER4PR4LWyt+H+2ApBkKjU9ut+f80ZW7KShUMeb71+l7jghHWivMybFQgdbYIRGY+ViCl1ZUkSmjO1WiyeGRcremqTR9egPLFfjUx3qatJeI/P8B1+g2NuuAbX4h4gNNwT93ZjqOpoi8w90DfoI/SV02/ZXtHnMs9wew1kFrJrwxhKr4Puo39Y7lc82563L2Bkri1wdcVWA+DQqVV525tDzsCx1pbnc1Q8Z6MXdUWD0FIHIyxxlcxmiFO+qi8YS46p7c73HoSE+O91ld7sIabK6EUnHp2XLFJJ5POPXimWzR/IKcup97f5PWarXq2q+N3upfP7Bfomta/yvUffe11PyDBkOdXgyif/Xn6vc/a/cHq1mORDyO3ykiKpFWJbfQDGWpV8AMCx1pZHZQdUFE8BLO1Wzg+dVGBt9eVSA8RLRSNz721jDUlvcT+OiBUXFYlLT1pfEGGkEspHrz9NdLY1e04gsuMpKtd1tE4UH7n2VOl+hAxAFrzGCzKNkxCQcZmxoesaHXv/h06r8swXJ70fcHxQNvDS+v5aX2Ic5NvzT/9e8RQAONbacld6B7r9H/uJuoQ8KPeB059bfNz8LlFZklQyQTuWhD1lLDOXFrgV4gaTTL+pipWLh686SZo0HEPgjVfuEJedvN4KJ8FM7QzzZ9WVFcmjfT995Q7lfoQsQCb8wAsyDlmHzPutp+C/Ibv3f1R3XAxMjnnm2Z8Je2yjqKxwyrY1nbB1/6+Y/hgca225NlNHuvmsv6XS9wHh9wBMf15zrf5zyQ7Wk2rLkkuP+c7KptfJr/9xjAczIr9j90+eUCdeve9CZdJwjAC8fv2p68WWFfM98y53+pRfKTlb37h0rvjKE9dq7UPIBGTDT4wh+xgDbo606RiXhWb9wzn+uW1VYnK81HffDxyBxZFolXbrJm5d95vRpGRsgmOtLRfIDqDOCOYC8CPjGRwMpzeWC/hYbB5VG1AqgxHXru5LCBh6COIhKycq1w3Nmiq++qRe4kg1BLAHvX3VAlHmwVlzlXaH4Vqc39+68hDxj/su10r8qf0H2YCMmMALYwJjA2NEdZxluh4+CG4IbPnMGoGc9W11ZQJ77yawwFFSVZ8Jm0MBA1sFXMGx1pbtsg2Ds0wmwQ3zZ7q3ANxgj71I+Axg5oETCF4dV8I2xOJZcTHcWpUM2enHvn6u9q89YlT86KXbPCOPVCL518evEe9Zv0hUVihZ+ipKIjTXxirKxPHHHCH+5fGrfek7yAhkJZcsef0dxgrC3GLsYAzp2NLL5BGPGf6SGTVidmulmFpfZjx+AxxSs8X2L5QHds5xZ/C4MYp0/yZeoXSqCRxrbRmUHRzo/J1zzTrIFCpkqr/HUT5ZvHReB98BrMBgBgJfjEM7qpPRCHEUbN1AIqmAsJWAPUQYDFBI6wYT4igokFnvRC1EEJjeyTGBrQebzoUj6MsH9qwWP3NxNCyVxHW8/7enbxCnb1vOPgKUP8ZFujwjkM9pxy4XX//E9b4Qf2p/Q1YgM14FDEpvq5v/MaYwtjDGMNZwxBBjD2MQYxFjEmMTYxR6FOlx4WeA8btkZlzMn1olhlsqxYzG8qTnPoI1eRWsx0170n+D9iG2hKpOda7fNupPnoNCjYM1PXHVkzfgWGtLORH9Ob1z3f5/lEfLX45Q2PgK8nWLD/+uMCKZ0dYsXrzrPN8JJJVM8P67z98srjtzqxjoaue+zmMMACNgBczScfT7/5f2nidmtE/iPsvTZ6p6Cau/unNfbBmuc7XlUSiBq/7+sOlKUQDBreBYq8v3ZAVi7tRwpNgsxNCA1VtoICBZfKNyHY51vXfTYvHjl/1Z8i+EmF6//yJxwvpFor5WSRGEipSABTABNoVg6cdvIUMnb17iy1HBqIxPp50IKjU4pVJ5vz+Tvs205aFK3jqu75+kFFYc3Gp9+YTTwYW+wvkjU2eG/TPsxft1BK7QPgna76e2NIlnbj3bOiJJJyscX0Nc+iPGeiJJLjDS0HZgoOMoXzq+uv9/7vZzxPQpE0JleJkc2xPipa5j+svof1uPALYmlBwAwa3WF+Qrlhoo2JeS6ewwXINcCAjxK4td1K9DbPfd6w4XP3jxVuvJP52ckK3ujgv3iLWLRkVtjVKUMKvlB21DG9FWJ0NfOhY2/w8HQTh3epVHIApjGIF94MPgpc52e+JBx4y+0HsoOkODW60v61UEGU4tXgqHzffG0ZV507xJdavSJ7Zfi+Qvz95+TuCIPxPZvfHqneKpW96fXHaGD4Pt2OerH9qAJXS0CW3L1OagffbJOz8g5g92Bb5v8vWd7u+nNpSLLT4cRdad66BQks/2e8X9f8gbuNX6UkdEf5EVnlnNscgaAI5xgsQssvhF6bq+zlbx6LWnhIJUspHgFx67Suy9+Djx3o2LkxkJbT5aiLrBGENdUWfUPVu7wvA5wkEPdLXxWHWx4ovjjI5+8/rV1v3/afVKx4LBqeDWQJTPyRIRUj7iKIvXQmL7/WXxi8J1iP9+zyUnGDnaZ5q43nztzqSz3M3n7BA71xwmZvdOFxMbEr4uS2MJHM/Es1EH1AUOfKibaXz8fj6ODN572XsEZDIKY0+2jX7pW1sDACHmgmJgJXBqYMqFsoKC66KS6jbXoFDBL6zXIlTrTedsD81Ssk6ygiMdIhE+cfOZ4kPn7hRn71qVDE+8ZF6/OGSoSwzObE8eaZsysT55AqGi/F1nJLyHJz6+w7E3/BbX4FqEOMa9cE/cG88IgtOeTmzd3AvGD2TT73DCQRnrIOZc+k7Xd9vH7Dz/P69dKQUwjEtwamCKdEAgCPT0xmieBkgdBEEZ2F7XE7PNhbO7xX2XvUcg+Y4bZcy/2esKp7dev0vgj/Fyh5cbnCCjkNXDZ/f4uirj9ThUvb9fq7qbLT3/P0XN+x8GgNUBgDJZJm/LCg3Oh+oIf5lKqEF7L4tdWK7DEvMZ21aEfh/ZDanwb/QRtJ9YwgcCMgxZDsu4lG2Hamx/N/obqww2Hv9b1lWjGnURXBq48oCssOC6ronRXgVQwS6o1+Js+JFze8WDV76Xl/k/HUzS85Ngg/IsnH6ATEO2IeNBHZ8q9fbDANg2287l//b6d7fbJDEElwauLJJsbHKAYBVg44j/ObPdWJp+/EYFO3gml5YoJZzwTUk11cXFhiVzxJ0X7hGInR8Upc71ZANFRgYg45B1yDxkX2Wc+3VtSUmx6OuYolRXP/K8bBhIWBf+d6n67B+4g0sDWb6rIqRdE6K7CqCCGxQTAuI8efOZ4vzj14rFc/tEokbZCUVJATjtgWEyb2CGuOCEdeJT91wQSU9+GeLga8JncOAEAcYAxgLGhC1Ge6KmUhwxOkuctW2Z+PAVJ4qvPnaF+O5T1yqNfyQT83LitGPMzux/7Wqpf4E5ODSw5UxH8cu8JlcBhqO5CiCDl3NNJrKAsvnMQ5cmPZXh2d3pQ5AZGB1jfR1i+6oF4opTNoqP3XCa+N4nb+FZPi/vswxkkAGMDYwRjBWMGYwdrw13ONl2TJkgNi4eE9ecskG8dNtZ4jtPXpMkfJB+6p+jX2Ret3tsAGwaCu3sHxwa2JIgot/LCIxzTWtduaeWo5dWqcq9nfbLvGYyADJ9hnCsz9/xAbHv6veJW8/bJS4/eUPSaWnH6gVi1cLh5FGw7uktorkxIcrLSpMzAORnb6qPJ+OiI3PbguGZYsWCQbFp2bxkQpcPnrZZfPymM8RXn7yWlXwGJZ+pH/iz8M3udfXpG5+6Tfzj/ReKRy47QVxy/Bqx86hDxNFHjIglc3rFvP4O0d85RUyd3CgaEzUiNn60s6KsVDQ31IpZUycnf7PykAGxbcU8ccrGI8XFx68RN525RTxwyXHiEzecKr6079IDSD6V8NPfy+gi5xqkKlbRh7mutTX0b3P8HZ3pYCDxCu4Ehwa6PCTR8AOWmxZ01HgmPLkEy+R3KpjpUj7p94lioJd0DPh/Jms/ZQAGQDoR5/r/W09cXdDvc90r/TsVnbTNQwPAxtn/SIuWnB7gzsCX2SqCg2uRQCJqxwJVMPNTQfGzmBBZBryTgUINgHTS1vm/ik5CeHMvJlTwLcgWe9/U58tm1ujK7gruDEV5XUV4cO2k2jJPBMgLodRxTxW8WCF7p5AZW8bWTxkIiwGw1SMDwEbP/6Zq5aV/rICDM0NThonobyqkhmuRKU8HuQbhHipY+amg+FlMiCwD3skAGwDZQwjbeO5/YFLsgO1rST0OrgRnhqo8JgnGfkBxKmBlRNIFq2DFCtk7hczYMrZ+ykBYDADdaYAR9W99f61Vy/8LplUJcJSK7h6/FlwZujKViP6oCg78AdYNJkK/EqCCk58Kip/FhMgy4J0MhMUA2Dyq1wdg81CdVeS/qLNa174/OBJcGcpyswqxOddWlhWH3inQaavMKytk7xQyY8vY+ikDYTEAdDpx27b0D6e/WKm2EM/gyNCWeiL6tQyppV9TGysRx3p4tMS0n0B6ewv5308Fxc9iQmQZ8E4G2AA40AcAZ/6P6bNn6f+o7rioKdcWdh3cCI4MddleCJnl+m1jdanw6ngJGwDeKTUmDMaWZcCdDITFANioIaIr9v1t8vpfOSsu6ipLdOz5O/cAN0aifDwXsRfyXU1FsVg/FL5wwYVgkP5bVq7ulCvjxDjZLgNhMQA2aDAANg/bs++/eEaNqNI384cBAE6MTKkjop+nE5fs/+WlRWJFT22oHANlscB1tis1rh8TL8uAOxkIiwGgOknbOmIP+R86rSoZnE5FR6ddCy4EJ0aqLNYRG8ABEscvwhQy2GmXzCsrV3fKlXFinGyXgbAYACorAMeO1lvj8T/cUqnrqJ+z7I8z/+DCSJZbZQgu1zXdzTHhdepJP/wDcrUx33e2KzWuHxMvy4A7GYi6AbB9th3kv7onLqY3lDukrfMVHBjZUkFEX8hHaIV+X11eLJZ2xwO9JVBom1N/z8rVnXJlnBgn22UgLAbAxpHC/bR2jNkR53/+1CqBo+epOlbTe3AfODDSpYmIfqQJ0AM6qaOpIrBHBVXwsF2pcf2YeFkG3MlAWAyAQuMA2DDzxxG/1kTZAZyiopfTrgXngfu4ENEMIvqPNIC0AI8ADYtnBW81QAULVq7ulCvjxDjZLgNhMQA2j7iPBGjDnv+89ipRXqItuE86l4HrwHlcUhA4hIj+R4X4sl1bVERiYWdNoLYEsrXFzee2KzWuHxMvy4A7GQiNAeAyFPAWC476jU6pFOAMN7pW4jfgOHAdlwwIbCSiv0qA6qqz5k8PTjZBFQxYubpTrowT42S7DITFAHCTDGiTBfH9BydryeaXjY/AbeA4LjkQOIGI/qJCgLmuXdMfjERCudqQ7zvblRrXj4mXZcCdDITFANg6O/cWwBYLzvkf3lGdjbh1fA5OA7dxcYHAOiL6Qz6ik/l+oKUyEFsBMm1zrmHl6k65Mk6Mk+0yEBYDIFfIdhsc/o7uqxVdTRU6iD7TPcBl4DQuBSCwQFfiIIcY8ZqoLGED4NOs+G1X/Fw/llHIQGgMgByJ2zYOJqwI9IOw8qlcoek9EvyAy7hIINBHRG9r6oj9nasSlcqPIEB4hkqbmTyYPFgGwiEDYTEAtmUxAJDgB7Nv039Lu2qUdG4WfQ3uAodxUUCgnYj+OwvAUp2Wbz/KL5LP9RyV9rLyD4fy537kfgyLAbA9iwGwa44dwX5WzIpLcUkOPQ3OAndxUUTgqhwgF9xpWObJRby2fKfSZiYOJg6WgXDIQFgMgGzh2W1ZAcAKRJX+aH8fVOS+yF/+fhUizHTt9MZyNgDYB4AzJrIMBEIGwm4AYMK1vt8OH4Ap3kT9OyfyLC4JwG6d2QIdY+DwGcEICOTUV+aVZ3/hmP1xP3I/hsUA2Dm3IevEy4bIf1gBmN1aWfCKsgv9jGx/fPyvQCMARyb+7ALcgjqsb3IsqxDasvTv1EOl7UwcTBwsA+GQgbAYALtyGADQeRssOQnQ2ehJxj/EANhUIAdG9udDXoQEntZQLvbMb2QDIMJLv1/86FXivsveI07dukzsXHOYr3/v3bhY3HreLvH3D14i3nztzkAsP/tpRAATYAOMgJXf/QOZgGxARvxsd75nhcUA2D0vt+6FgXBMv/nTAOv6akVLrScJgP5IRLMjy+ouG17rRWbAqQ3lIp8F6sy8bXnlFQB9M7h//siV4pChroJWi1Twz3fttJYJ4tnbz7GKaPIRkZffAwtgkg83v76HrEBmvGyz23tHxQCA3sWJABuMgLW9tWKyN0bAT4moziUXRvJnT+sc5MVFJMamVgVm1p9qfKjg4Fa5ROF3t1+wW1TFPFnWUyKs4qIicca2FVaQjEk5AAbAQkXevbgWMgPZMYkNnh0WA8Dt6utOS4wA+AT0Nce8SAr0XCSZ3UWjz9I5kCvLisVRvbWBI3+cl13arXYm1bTSsuX5n334UlFeVmoduaTKOZadbcHL73qg7alY2PYesgMZ8huX1OeFxQBYOKNGbByuc6WPk0aABcGBYAQcNr1aVJRqN1DPdsGHkfrJPCL6ky4FMDFeKoIQ7Acz/k0j9QKDY1ZzTNRXlWhRiKkKJKrvsac80j1NC5665DLTfRoSNeLrn7jeKMmYkBG0GW3PhIlNn0GGTPpshMUAcPo0Vlok2urLxWhblVjRUyuyxQfYPlZvPDogDAD8rZwVFw2adPM4DuC6+ZFi+ByNLSOi7zgCovrakiizfr9/+5wGMWdqlfAo9nTkyCQTgT13+znWk4sj61ecsjFyfYY2O+23/RWylEnG/PgsbAZAel+XFBeJzqYKkSlL61YLMgQ6RsCanloxoVrraiI4D9wX+XJhulDI/j+lzm7yRw6CnkkxUVaifUnpAGXqh2Ky/RlXnbrpAExkZcqP6zYunWuMYEz1I9rsB7Y6ngFZMoVT2A2A1P6ZUFMqEKcl9cTApiE7ggTBEIBz4MQarUYAuC/SZSoR/T5VCGTft9bZ6+m/ui+RXPYqIvJF6ZlSVjY9N0gEM2taizGCMdVnaLPsWPf7OpMGWpQMAKdf4b810laVXMlFqOD1A3YZAc36jABwHzgwsuV5p9NVXjHzT7UaU73pTb5H9CvM+FXaJnOtKaVu03NxjlwGOxPXDM2aGjkDAG02gbXMMyFLpmQ7igaA00dI3b6qL5E8HugsxdvwipUAjUYAODCSZa3T0SqvEJJsjiQmyX9lb62Ix/Q49RWKjyllZdNzbzpne2AIZsfqBcYIxlSfoc2FyrWp30OWTOEUZQMA/Y1V095JMWHTVgCMkNU9cZ0+XODCSJUiIvq26oDGXvr6IXdHS/wyBkzN+lOxNKWsbHru6/dfFBiCufHsbcYIxlSfoc2pMmvze8iSKZyibgA4chGvKEkeybNhBcCpw+IZNaK0WIs/F7gQnBiZst7pWJXXxTPjrs6V+kX+G0fqRK2hWX8qjqaUlW3PXX34iPUk09nWLH788m3GCMZUn6HNaHuq3Nr4HjJkCiM8l7HYiD4AACAASURBVA2AA/2meptj1hwPhCEwt61KlwyDEyNTvqo62AenVFpF/liJqCov1iUMSvcxqbBserbtZ81LiovFC3eda5RgTPYX2g4MVHWBV9fbEKOBDYADDQD09cwJFVYZAaiPBhkEJ0airFIFCwFzbHL6O3qwTsTK7FFkJpW6bc9+/o4PiKktTToGqNZ7JGqqxN0XHx9Z8nfkBBgAC1WdoPt6yAxkx6mnqVc2AA42ANDXHY3l1hgB63prRW2FFv0Pbgx9+YLqYD2qz54Qvwhg4UGoSCWFaEpZ2frcH750qzhxw5GitsaTfN8F9VVFeZlYuWBIfOWJa42Tiy39BSyACbBR1Q2q10NGICuQGRvwYQMgswGAfm6vLxPI3ufsyZt8RchgVdkjInBjqMshqiAhapRfe/r5nrO6P+F5UB8ZvGxQXDbW4Wev3yX+6dErkjPv695/rMj0d8ziMemBPHegM+M98Zzbzt8lXrv/IvHGq5wKOJtsABtgBKwy9Q0+A8YyYwLXoG+z3RcrEZANyEi2+pn4nA2A7AYA+rQ1UWaFAQDjo61OiwELjgxtuVd28OK68pIia2L8Hzu73po9/3RMTSiqsDwTBJGOp9v/TZ4XDwv++dqhEt8BfZvv/rZ9zwZAbgMAY7Nvkh2OgcgZoCHKKzgylKWciP7LrTLN9Lu5U6utmf0j8mCmOtrwmW1KLEj1YQNgr9UkyQbAteK7T5n5s0G3ZaoD0r4f3lFtxUpAv3rgN3AkuDJ0RenoH7JI7ZrbYIUBgEQ+mQTRls+CRLi21ZUNADYAbJJJXgHIvwIAvVtVVixWdceNGwFIGoSVakUuCOWRwGdUQBlurbKC/OH0B4tTpS2Zri0rLRFHHTYsHr7qpORrpt+4/cwmBRa0urABwAaATTIbJgPg/ov2iNO3LBFtzQ3a9Sd046R4qXEDAL4A3ROVjwWCK0NV6onof90SWPrvEG1p25j52T9CDiMiVXr9VP6H5/MZ21aIbz170/6l17WLRpWeYZMCC1pd2ABgA8AmmQ2TAfDSbWft377Yd/l7RO90/QmhBizwBziqOy6Q5liBF8CV4MzQlM0KYCQT6uTzyPfj+6Epeo+RIcrYFz961X7idxQPGwDmSIgNAHPYO/Kf65V9AMzs/8PvQEWH49pUAwD3+/aT14hrT9kgmuriyvd26gYnPBu2AjoalH3EwJmhKfc5HSTzihC7fhB8rmdsH2vQsbeTFPRYRZm448I9BxG/o/jYADBHQmwAmMPekf9cr2wAhMcAcJwZ//nhS8S8/g5tRgCW4E3GBMCzl3bVqLYHnBma8kMZ4sc1jdWlxskfhsFIqx7Hv9bmRvHqfRdmJX8oPzYAzJEQGwDmsM9F/M53bACEzwCAIfCtJ64Wx6/Vk8IbqwDI1mfaCEio5YUBZ4aitMmSP64baTPv/Ie9//JSpT2dpDU4rWWCQHx6R5lle2UDwBwJsQFgDvts4yH1czYAwmkAOKsB5+9epTpzTl7fY8EqgAZnQHBn4MseFQMAcfZzLc378d2ohoxPTfVx8c8fuTIv+UPZsQFgjoTYADCHfSrRZ3vPBkC4DQAYAsevXahsBOAonulVgCNnKG8DgDsDX/bJGgDxWIlx8t85t0E51j/2/F+5N/eyf6rCYwPAHAmxAWAO+9QxkO09GwDhNwC+8+Q1YvWCQWUjoM+C1MHVahliwZ2BL1+WNQD6JseMGwBLZql7qF5+8gZXM39H6bEBYI6E2AAwh70j/7le2QAIvwGAVYB/ffRy0dyYUDIC6itLjPsBdDYqnQYAdwa+/EbWAFjUFTduAHQ3x5SEcLRnunirwAQjbACYIyE2AMxhn4v4ne/YAIiGAQAj4L6Ldivp3iIigTP5Jp0Bx1qVjo6DOwNdJsuSP67bMGx+/18l8E9xUZH4zEOXFjT7h6JjA8AcCbEBYA57h+RzvbIBEB0DAEbAKsWtgNmtlUYNgCXqfgDg0MCWRbIGAI5y+OHgl+sZMEBk64/rkOM8lzLL9h0bAOZIiA0Ac9hnGw+pn7MBEC0D4Lmbz1DSwabTBa/rrRUlxUqh48GhgS0nyxLoxLj58//zplUrCd8zt57NBsCn7SaUVHLBezYA7O4vNgCiZQBgFUAlSBBOA6zrqzW6CgBfBFkeJCJwaGDLzbIN75lk3gFQJeXvQFebFPmDhHgFwBwJsQFgDvt0YyzT/2wARM8AuPuCXSoEajxV8NR6JUdAcGhgy4OyBsCcqdXGtwBiZcXSgnfO7lVsAARs9s8rAHaTP/qHDYDoGQD/9rGrREVZqbQuHpwcM7oC0NuslB3wocCyPxF9XNYAWNBRY9QA2DOvUcCLVLb+ssv/UHK8AmCOiHgFwBz2mWb86Z+xARA9A0B1G2DWBLO5AWCAyPIIET0ZZAPgRdmGL5pp9gjg1tn10p2GwD8/feUOXgHgFQBpGUgnPv7/HcOEDYBoGgBnbl0qrY+n1ZcbXQHASQRZHiSiV4JsAHxWtuHLe2qNrgCsG5APQjHcPVVJ8fMKgLlZKK8AmMPejZHDBkA0DYD7L9ojTaKT4qVGDYD5U5USyX0+yAaAdBTA1f0JowbAsu5aaYFbOr+fDYAAzv5BQGwAsAHgxhDx6zdvfOo2gSVwG/5kJ3POdS/ddpZ0Oz5xw6nS+th0RMCF05VOk30jyAbAt53OL/TVdBKgwzrlEzlsXXkIGwBsACjJgF8EE7Tn8AqAOWOgUB2e/nsVA+Az954vbQBUlRUbXQFQTAr04yAbAF9MFwK3/6/qM7sCMLtdftnm1K3LlJQ/bwGYm4XyCoA57N0YI2wARNMA+PrHrpI2AIqLyKgBoLgC8LUgGwAvuyX89N8tNuwEOFchCNB7Ny5mAyCgKwDXv/9YaUWza81hSv3uhgCj/htgnK4r3P6Pvg0afrwF8I7B8y8fvky63xFV1mQ+gLkKk0ki+nSQDYDH3A7O9N8d2mE2DsARXfJZANcvmaOkaHgFwNws9KPXnyataC468Wilfg8aOZmoLzBO1xVu/0ffmqizyjPZAHjHAHj59rOl+72m3OwWwHCL0jHAJ4JsANzhdnCm/260rcqoE+BRvfJOgAtndyspGjYAzBkA33zmRmlF8/GbzlDqdxWiiMq1wDhdV7j9H30bNJzYAHjHAHj0yhOl+72xymxa4J6JSoGA7g6yAXC528GZ/rtew6GAVRIBzWifpKRo2AAwZwCAIKa1TChY2ZSWFIvvPn+zUr8HjZxM1BcYA+t0fZHvf/SpifqqPpMNgHcMgA+dJb8111JbZnQLoKNRKRTwB4NsAJyeb2Bm+76jqcLoCsCOOQ0FKxmnLUVFReIbT98grXDYADBrANxz6QkF9/3p25ZL97cqSUTtemDtjDW3r+jTIOLEBsA7BsBxaxYU3OeObHQ0mA0EhIyETl0kXt8fZANgu0SDk2C1JMqMGgBIE1xaXCTdcfdd9h5phcMGgFkDAESxauGw677vmjpJ/ORTt0v3dxCJyWSdgTUwd6tb0Jcm66vybDYA3jEAOqYUvirnyAeW4E06AU6okc9jQEQ7g2wArHQ6odDXmopi4wZAbUw+jePudYdLKx02AMwbAN9+7iax9ojRvCQz0j1N/NOjV0j3tQo54Frsa8O57fEbThffevYmY/VQbUeh1wNzYJ9Pr6AP0ZeF3t+W37MBcK34u7vPy9vPueRgZEqlUQMAcQhy1S/Pd0cF2QAYytO4nMBsGqk3agR0KThvNCZqxI9fvk1K8bABYN4AcAjg/stPFPDpwLZOqixPnlAn4JH+5mt3SvWxc3/Z1xvP3ibaJjUeUCfUr31yk7j9gt2e1OnpW88Sl528XuAoHmT0ilM2ilfvu1C89fpdnjwvHzbAHn2AvkjtG/QV+gx9l+8etn/PBsC14rL3rDugf1P72s37pV01xgyAZV3yAeXG2wYODWwpJaLfu+mkTL9Z0Gk2I+CRM+WPAqI9t3xgh5QCYgPAHgPAIYjvffIW8dQt7xePXnuK+PpT10v1q3MvldevPXmdOHJub16FuGhOr7Z6fu7DV4gl8/qzPnNo1lTxxY9eZQwT4Ik+Qd+gj9BXKhjbdG3UDYBvPXG1mDr5YEM3E19k+gwrySaX/7H6kKleLj8Dd4JDA13+wWVjDwKq0wJHQESRkq1/T8cUKUXEBoB9BoANpICZtptlb0dejxjrkZK/1LYirXVZaf6tsNqaSrHv6vcpPy/12fx+r4i6AXDtqRul9S/GQWejWQfAtjolB0BwZ+DL9Y5CKvS1uty8H8CkWqUOFPdcUrj3MRsAbABkIj8suRc6hm46Z7s0Kf/b0zeISU0HLq/nen5NVUx89clrpZ+Xqc1R/yzKBsC3Pn61aGuWP40FWT10apXRFYBKtf1/cGfgy9G5lEa+73AeHx75pv5UcgKgbfAFKPRIIBsAbACkEx8836tihZ8nBil/5Qk5Unaz1ZA+fjcuncsGgMYw2FE2AM7dubJggzdVHkuKi8Ta3lpjBgB8D1LrI/Ee3Bn4MlGi4fuBMx0SGFkJVeqPa48+cqwgpcgGABsA6QbAy3fLZ0NbffhIQfKHZ998zg4puYcD3r8+fk3Bz0tvL///zhiIqgHw0atPEiUSAZ9SdfWkeKkx8offgWIIYIw/cGcoyk9SO6aQ92315cZm/86qQ0O10jnOpCL94GmbXStFNgDYAEgnQJUshRhvl5+8wbX8vbT3PBGvlndeevxGDomc3n+y/0fRAPj8gxeLifXyodgdfhlrNXv8DwaIUxeJV3BmaMpHJQBIgldEJDYa3gZAZkLZ+jvXYWa09+LjXClhNgDYAEgnDBy/c2RJ9vWkTUvyHk29++LjRaxCze/lujO3upLz9Dby/wfLfdQMgC8/ermY0ztdWdbjFcViXZ/Z5X9wl+xYJSJwZmjKaQpAiB7DeQGwEtBQpWTNJQWhtLREPHzVSXmVIxsAByvCqJMDjrepjCHn2qb6uDj/hLXihbvOTQbIgW/BZx++VNx2/i4x0NWm5RlBTLtrq3xFyQB4fe+5YkbbRC0yOKfN7OxfMf4/MABnhqa0ENFfHCVU6CvyOW+f02B0K0A1JoDT5uKiInH+8WvFz3IET2EDgA2AdELC2fb0YESOTKm8enHPzz5yWV4jN719/H9mmY+KAfDhK04UdfEqLeRfGzN79n9Vd1wpjPw4V4IzQ1VeVlFUc6ZWGzUAsApQX5X/PLTbNiI++Xeey5w9jg2AzMow6iQh45XvVh51/W5CQy2TP58CyEjkL912lvjuU+/E9k99vfK9R4vSEn26da7h2X//pFjG9hcwxsCVoSsbCwDgIAAR0WnPPHPHAWEA6FoFcHCor60WV5++Wbzx6oHhZNkAYAMgk7HzqXvkTwI4Muf1ayHOhpnayJ8dKPthXgF47ubTxZrDhg7S9SoymoiVGPX8X9dbKxRj/wMPcGXoSjkR/YdK54KAHc98U6+tdYWfxc7X5hltzcljV04IUzYADlSCTArv4rFygV6FmU82C/l+Tl+HsbwAYZWRsBkACO17xwe2a3H0S5fNoiISC6aZDfwD34P0ehX4PzgSXBnKcluBYBwAZqKyROyaa9YXYNtYg6iuUMrudECbUvGA9/W6I2eLwZntWX+T+vts78OqDLlde8U/f+RKgeA+2fre1OeQXeQM4D5611jTgUWYDIAdRx0iWtISN+mUV9NpfxF0CCvVim0CR4a2DCiCIwZaKo2vAqzuTwiVHAGqGOS7Xofi4XvoVeQ68bzzwj2qSkb79QhTrLONfK935C9MBkA+vaXyfXON2aA/CPzT1VShY1yBI0NdvqzS0SDetQMJ40YAnBJV2uHltT995Q5WxhodsWwko83L51kjf3P6O3np3yN5e+Pl2zI6zqU60fnx/huPf9AaeUvXnYi3f1R33Oje/6LOaoEtiPS6Ffg/uDH05ZQCQTkIVETm223YIRA+CO31+v0BVLHB9d985kY2ADxSyLYYA3Ac3bx8/kFjQ4f8FHKP1uZG8YXHzKYCtqVPvKjHT1+61QoD4AsPX2Jc1jLJJSaEh3dUGyV/OP7B+TBT/Qr8DNwY+hIjop8VCMxB4I62VRlfBUBsgqYa9QBBqlikX286N7sXipDvmXlL4vRtyw8aG+ny4NX/Y30dAhkDuW8y940OXH7y0oesMAA+ffe5xuQsl/wOTY4ZJX8s/cP3IFcdXX4HTgQ3RqLscglKVmCR6Wn9kNlMgVgF2DGnQaimDFbFIv36Tz9wMSvlkK8ApJILjpIiwFS6HHj5//olcwSiCKbWg9/rNwR+8qIdBsDzt5zpq3zlk10stw+3mI32B/JfPKNGlz8YODEypYiIvpavk/N9X1dZIraPmT0VACMAJxOQtChfff36/vk7PsCKOUIGAIj3vsveI8rLvF+NQuTAc/esZvnySb5+/MItVqwAPH7NydboN0z+5rebPe4H8kfEP+Qc0KDXwYXgxEiVxRqAExPjpWKn4aOBMALgk9ChxwtUWaA+dsNprKB9UtA2zXpfufdCsfzQQU9CBmOsIl7Fg1e+l2XLR9n60SdvtsIAePCS45T1kg59X15SZHzPH+S/picuGvRFhgUXRrIohQd2BArBeWxwCtwzv1F0N5s/o33/5SeykvZRSdtkBKAun3noUrFp2TxRqphP3Rlf8we7xCNXn5wzf4VtGISlPj96/iYrDIDbP7DduAFQXV4slnbVGN/zh9Nfs1qq31QsQxn2160106eSJMhRUHjtnFBh3CkQKwH4W9atJSBEqpAU9P7W83ayARBhA8Ahvy9+9IPiuKOPkErvW1JcnAxK9fLd57MsGZSlHz5nhwFw7akbC9JBqbpZx/u2ujLjR/0w88cf6qKjTePcBw6MdHlAE5iib7L5IEGOEQDnQKQxVswJLSVocApzSIBf9TtmBQ3T77/wIfH4jWeID+xZLY4Y6xEz2icJpAVGemr4DXRNnSRWLBgU79uyVNx0znbx9K1niW+wd78VY+gHz91oxQrAJSesldJFqro9HisxHt7XIX68zmjU6usF7ot8mUhEv1IVFOf6oSn2GAEwBlb3JQScFZ36+fF6wQnrrFBeQSPKKNY3V1rqKOJhW5t/8OwNVhgAZ/l83BSOfoj6ivC6qQRs8v3MCVqO+zlcAM4D93EhIjhB/FUXOSJAD2bgzmzc9Cv8E+ZPr/bNEMCyr22KjOvDKxEsA4XLwPefud4KA2DHSn+CTiGwz7SGcnH0YMIa4l/dExeT9O35wwD4CxEdycx/IAJX6DIAcB8kDrIhTkC68bGyt1ZMayzXdXbUsSYPeF04OosNAIP7tkx0hRMdY5YZs+994jorDIBDBjoP0DE6dTXuVRsrEbPbq8TW2fVJh+71/XYYAEtm1OhI8JOO3WUHUh//BwSKiejvdApWWUmRWDLLfArhdCMA/0PQR9qqkoKvs824V8uE+nAZAK/vFT9/5W7xc7wysTMGNsuARln92Wt3WkH+yDUwqTGRTmLK/2OZH0enMSlydOTueQ1i/YAd5D+vvUqUFmsPsPX6ONcx62dAoFmnP4BDrEOtdvkFOMLuvCKY0fKeWoHwxggohOQWTt1lXhGs5Qcv3hpMonh9r3j7k/eKXz7+gPjVww+Lf7//EfHv9+579++BR8SvHnlY/PKJB8TbL94bzDbaTGBct4JkCjIIWYRM/vsDabJ6/yNJGYYsQ6YLNWDffOV2KwyArz52hXJsCZA9wqbPao6JQ6ZXizX9iYNSu++eaw/5z9K73+/o818Q0YQMvMcfpSCAvRFt/gAOgTZWlx5gaTrka+vrhuE6R2ikXhEUJlCz5df3il88df/BhJ9K/hne/+rBR8QvnrkvWG1lkg18f0HmIHsHGKcZ5POA7+9/JCnjbg0BWxIBPXPjaVI6yNG9yN66J0/yNkRTtWHZf8G0Kq98tbDvvzCF5/htDgQud4RH9ytm2Db6BmQyRBD4Qrb9d198fGCU7C+ev7dwZZqmbLFa8PYLvCIQKKMvgIYQZCy5MpUmfwcQfZ7vkkbr8/ll9ceftCMM8C3v3yqth2oqivcv72fScfjsHfI36+2PmP6aHf3SMbswB9/xV2kIIC7yQ7Lkl+86JJLAUhT24bMJpQ2fI8JhvrZk+/7sXasCYQD88skHCptF5VKu9+0Tv3j6/kC0m4k6eP4ckK1/vy9lOyqXLLr4DrKfSw5+aEkMgNM2L5bWQ5hw5dKlu+Y0iGP6zZH/ylnx5KkDcEI2Xarh83uiGOs/jdML/hdGgLYgQZk6EU6C8A/YNGKnIYBzsJnq7eazdUfOzqlccikev7775WMP6iP/FIWLPVe/2sDPCR6Ry/QZZKqQWb7b32IMZKvP95+24wjgqgWD0npoMEdclm2j9eKY8eh6fp/vXzazRmCf3wMnv3Ss7i6Y+fiC/QjACLjPDeGp/gZJheCcss2C7IKOxXz4jJp0YXL9f/+M1qyKJZvC8fNzOE65VZIyv/vFJ3glwM/+DPOzIEsyMuj2GoyFTPjB+96Gv57pLa71TroePqLr4FNY8AfYNOS/p/9R3XExNDmmM4lPPlzu2s9k/EYaARgBsKLyga3lewSiwLLVoq74QV6qDjH79XrMkLwjYFWsXLz1+l0ZFUsmZePnZ7949j5PFWpS8d63j30CArjH7qccunkW9vx1LvtnMwowJlLr89ardhwB/PaT14jKCvmtSOiwVH25YwzOfv4t+a/pqRVjrZXJ/X3odr94hIjulGY8vjAjArCm/OxAUV5aJMbaq4wZAoggiOMzsu228iTAa3cX7OmfTWnm+/xXDz1c8NGrVCXM76OxvJ+1n1/fKyBD+eRMy/cPPCJ+/trd+42ANz51mxWzf5UTANBdqVlat47U+RbdDyGEe5tjAtu8svpT4bo7MjIYf6iMwO0KnSItCPDGXzij5gBLNtWq9fJ9Q3WpdL0vP3nDfoWSVcn5PEv85ce9XfpPV8bsFBhxEleQ76TTX4pvSbps6f4/dSvgJy9+yAoD4Pzdq6T1D3QXdOOOsXqxwcfgPqNTKpVjqSjwDDiKi4cInEZEf1ToIGmBRppfL8k+072R5li2rUvm9dtlALx6ty/LqQcoZsysOIKgXXKgQMq+GbKv7z04sI/XxsB9+8TPX31nFeAHz9qRBfCI0VnS+qejsUJs9Dmm//z2Kun6yurZ8evASeAmLj4gMEJEP1TssIIFpbqi2PckQ3Omygt0TVVMvPnandYofwRPOYCcvVao4/dPRmELAulwHa2RVciMCVnFGEGGRhuc/771xNWiplJ+AtLXHPNtyR+nCJC0RzWKqiSn/JiIRn3gPX5ECgJxInpcssMKJn/nOT2TYr6uAiBEsPNsmdcX7jrXGqX6q0cfMqJU+VggbwMUunLg1bG/fEbFrz7ykHjjU3aEAH7i2vcp6Z5Dplb5agBMq5d3VpTRrePXPElEtSm8xG99RuC9RPQHhQ4sSMjjFSW+GgA4llik4Px44XvWWWMA+OFNnUnBJp0BeXZtjRwUSsYmfu+b81/6Kth9+8SPX7AjAuDZ25cXpBvTdTCC7Ph5vj9W5qvDH5b8T/GZ6/hxWRAYIKLvpQugF//DqzTTXr2XnzUpOAIunN1theJ/+5W7jcz+kwYB9lbZAGAMCpABU8Yq5PVHT99kxRbAoYMzpA2ARKzEV/KHoeHjMT9sPw9n4SL+2BACVUR0KRH9xgviT70nYld7Sfjp9x6aIh8REGd4f/rKHcaV/9sv3WPOALj3XecqNgR4OyCvDMBZNX1m7uP/P3zcvAHwjcc/KGIVZdIGQFdTha8GwJqeuHRdU3V7nve/JaIriajaEMfxY10ggHSLiBnwpzydKS0wfkcLPKpPLRf3M7eebd4AMORU5Sjyt1++xzgGmYjnjVfuEI988GTx/p1HiSPn9orejimh/ls0p1ecuWNlss1oeyZMTH8GWXHkxsTrjz5mfgvgsaveK60foXcPm17tqwGAKH9e6Xsi+jMRIZ4/0tVzCQgCM4joKd1CgQQ96TN0r/9HMI1yhYAWp25dZlzRvv2iWaX681feDbJimmCc53/6gYtFX2erl4rL6nuj7cDAwcOaV5PbVffuEz98/GbjWwAnHn24tOxgm3Rdr3/R/hw/g+Ya+ZgpOXjiaSKaGRDO42pmQGAeEf1jjg4uSNBNxAKAgTG1Qd7DdfKEOuNhgd/+lNllVWvIZXwf+p5LTxBlpSUFyZ4uGbbpPsAAWNjWPyZm/s4zv//EDUYNAIT/bW6UX3VsqS3zdfbvGAA4daBRtj9HRPMz8Al/FFAEvqsqHIlKf08ApK4sHNpRrSTcj994hlkli8AqPu6jpj4L+ddtIpgvfexqgRgNqvIYluuBBTCxqY8gM6ky5Of77z55nVED4OHLTlCSzeGWSiMGAAyBmopipbqPjylwBZcQIbBAh7I0NfuHIbB5pF5JsDctm2dcwf5qn09x1dMMjVwpV02QzkKF6Go65NjGewATE32R7ZleparOZ0i8/eD9RskfAYiOPmJESdcsn1ljzADQuAqwMET8F/mmPKuq9DqbKnzf+09dAcB7rEDItgPZAX/w4q1GlewvnvI2rWo25ZqeaS2b0vfj828+c6N0H8r2fVCu+7enbzAqn6n970vGyjRDFfL700fvMGoAfPWxK5Sy/9VWFBsjf2croK1O/vRCylh5IfKsGRIA4Az415SOLVgBx8qKhd+e/+nkj/97J6stG99+wW6jCtaIdzViAKRkWUtV8ibeP37D6QXLn4rsBunaj1x7qlH5PEAekLXyvn2+bwN8/+NmcwDccPomJfmc0VRu3ADAiYCKUuWgQH8jop6QcGCkm3G3qhI8ostMJsB0IwBbECptsWGZ9Zcf8TccMLIPHqDYCwgG48V1l560XqkPVfrf9mvPP36tVX3ld+bKnz18j9HZP5b/DxnoVJLPBdP8Df/rzPrTX8da5WOnpIyThyPNnCFofCMR/T6lQwsW7rZ6/4/9cjWx4gAAIABJREFUpRO/8z8CEKlYtsVFReLLH7/GqJJNrgL4NbO6/5H92dW8IHOZe56jkF5VRY6DcO1pxy43KpsH9ScCAt3vnzPgDwzP/j973wUCOkJWVqCb1ho4/pdO/s7/k+LKxwL/l4gmh4AHI9uES2SFGdfhPOuW0Xrje/+OAYBX1W2Ai0482riS9WtmhXzuByl1wysAl5+8QVrBqshyEK694AR78lY4cgMZyuZbovPzNz9sPgPgOTtWKMmmDcv/DvnjdcXMuCgtljdoxsfMdZFlzxA0XCk/wHBrlVXkDwPgmKE6pUE6rWWCFSmCvc4M+MuPPWgd+YNU7r74eKX+CwKRy9bxtvN3WdlnkCWdZJ9+r7cfMe/5j9S/7ZMalWRzSZc57/9U4k993z1RPp3xuBy/GQIejGQT4MAhLdBILLF1tl2zf2clYKLi0tZdFx1nXtG+drf41cPeHAv81YcfEj9/3c6Y90/fepa0TKrIcxCuNR6rItvq0Ot7BWQqnbh1/I8x8L2nrje+93/TmVuU5LK5tkxsGEwYdwBMJX+8R0ZCDUmCRiLJoAFv9MUqSs+GY38O4ae/LuisURqsM6dNFj97/S47jIBH9SrWX370QWvJHysAn/vwFUp9pyLTtl/72YcvNS+TOYwAyJYO0nfugVWwN164zTj5f+fJa8SMtolKcrlwRo3YNlpvnQEAI0DDscCrAs6Fkaz+V1QU3pr+hHXL/44hsHNuQ9I/QaV9D1xxoh3K9vW9QotPwH37BOIMOHu3tr4iFoNKv4X52u998hbr+y8Zy0KDE2vydMrre8UPnjEb9hee/3d8YLuSTJaXFgk4KO+e12ClAXCEYhRVIvpGJBk0wI1uV1GUE2pKrSV/xwiY1awWE2Cgq80qZYvTAbJHBLFH+7aFyX6yGSEcBvjgrbnqygqr5DFb3+FzyJqsXwBkHLKO+7zxqduNz/5hAPROb1EyAHomxfbry40WbgNgFaBeIYjaOJdMDzAfRq7q71cxAA6fYce5f4fsM72uHZBP1uFgY1XglfGl16Qh8OQDef0DEFYYszEkGcqlrG38rrOtWVrhbtiwQXz961+38g91c2Sr0FdgYmNf5aoTZA8ymC/ENfb5f/nkA/uJ37nnD541G/QH5H//RXuk+8zp46MH6/YbAMdaug0wWz0uwNmRY9EAN/gzjnAW+lpZViyQfjcT6dr2WUO12jnXsb4Ou5Xuq3eLt1+6R7z9yXsFQrPiNTl7siiyn6PMC3lde8SotNKtr68Xf/jDH4RtBXVC3Qodb87vgUkhGFr329fuTsrmAbL60j1Z41C8+Yods/+RWe3SfYa+a0pbLd09185tAMQnUImhQkSfDTAfRqrqRUT0W0exFPo6Y4L5mP9uDY3509UyBAKbJ28+M9iKN5vTlsWf4xRGoXKZ+vt9+/bZxv8CdUqtY6HvrTiZ4qPM/PA587P/fVe8R6nP0MeHdhy8WrphwL7TANgGaFfLEQBOAbdwsRyBzkKVT+rvD+s8WKDdErLfv9sxp0HAASe1/oW+XzA8kw0AHxU/Zq7fee5mUVoin7a0t7dX/OlPf7LGCPjzn/8sUKdCZc/5PbAAJtbN6j2SizdfNZvwB0v/+JvX3yHdZ+g7zKihg9L13taROiudAUenKIcHBrdwsRyB9Y5ikXlF2t10gbb5/5G2KqVBDIwevuqkyChfW0jmsJFZSv124403WmMAoC4yY825BljY0i9+1OOHz91k3Plv73k7lfoMfTfaljlQ2vbZdh4HRJpiR+YkX8EtXCxH4ArJzhXxipJAkT8ME1jgMcVVgNbmBvHDl8ymCvZD8dr0jKtP36ykjKqrq8Vbb71l3AhAHVAX2TGH64CFTX3jZV3esmD2/7XHrhQtE9QiiiJDKo4jZ5oc4Uggltxt/Ksul195IyJwCxfLEXhGVhl1TQzO/n/qwBtrV18FOGPbisgoYS8VvNt7f+ljVyuRJmR8YGBA/Od//qcxIwDPRh1kx5tzHbBwi1vQf/ej583P/k9av0i5z8amZp79O3rpGEsNgKn1ZSptB7dwsRyBHzmKpdBXRLNyBDhIr7DEcXqh0Pam/r6stET8wyOXRUYR20AkA11qHtjov+HhYfFf//VfvhsBeCaenSpDMu+BgQ194Ucd3nr1TuNL/y/ffrbAWJfpK+ca6BrM8nPpSFvjASgeBwS3cLEYgWoi+psjqIW+brYs81+uAZb+3bxpasuwwGrhaLT2Yv1Q+rmecf/lJyopYke+R0dHxa9//WvfjAA8C890nq/yCgxyYRSm72w493/IQKdyv82dVp2T/KGbtgzb6QiIDIEK8gpuAcdwsRSBDtnORcKIdFIN0v+wyBX3t5ID455LToiMQraBXEZ7pqsopP3Xjo2Nif/+7//23AjAM/As2XGWeh3abkMf+FGHn75sPub/h846Vrnfqsrzz/6hN7dZ6ggIvwTF5EB8EsBS8ke1kLVJSsgh2EEi/Ex1PURDXIDmxoQIQkx2P5S2H8945tazpeQ1k5yDmH/0ox95ZgTg3rrIH/VH2/3A2PQzkHjre09fZ3T5/8uPXi4m1tcqyxpij2TSPemfbR+z8yQADIBYmdLR6dkW81/kq7Yok2J081lDlf3x/9MHWfr/iGBYU6HmCwCs3rtxcSQUs2licJ6/bL66I50j47FYTFx33XVa4wQg5gDuiXs7z1F9RZud9of99cefvNko+ePM/57VC5T7rrrCfZTUHWP2ngRIxJR8IJZEnmUtBuAYWcXUkihzZdmmk65t/6umCgZ+xUVF4gmOEOgbQX3moUtFSbG64ZYq+zNnzhT33HOP+N3vfie9IoBrcQ/cK/Xequ/RVrQ57MSP9tkQ9Gff5e9JjmnVfju0w93sHzpx1xx7DYAJaiHUN1nMf5Gv2h5ZIe9oCuYRwHQDZM+8RtGoJuBJZd9UHxdfe/K6SChpG4ho+yr1GVom2a+rqxOnn366eP75512dFoB3P36La3Btpnuqfoa22oC5H3X4wbNm0/1+7oELRWNCOQCOqK8qKShHiq05AbAF0JpQOgp4YuRZ1mIAzpRVTqkpLdNJNWj/rxtIiKIiOV+IVPwOHZ4p3nr9rsgoaz8IIdszvv/Ch0S3YlrW1L7L9L6oqEj09fWJVatWiT179ojzzjsv+Yf3+Azf4TeZrtX1GdqItmbDIUyf//SlW40u/X/7yWvEvD61cL/o9yIisaY/UdAKKSYiNgYCQp06GspVZPxci/kv8lW7TFZRIaRu0Ig+V337JyvHvU4OkrN2HhUJZW0D8XzhsatEg4bZmuwY8Po6tA1ttAFrr+uQdPz7hFnHv1M3LVYhuv3X9k6KSelGWw2A7okV+9smIfPXRp5lLQbgaokOTQpDtrjWuUjW5u8QHEiHQyD8AR6/8YxIKG2vScHN/T/xofeLUsVALbJjwMvr0Ca0zQ0GYfiN6Xj/D192gpZ9fzj+ZUr440b32WoA9DYrGQA3W8x/ka/ahbJKLExbAM7gXN6jfuwHeDbVxcVXn7w2MsrbNAFd/37189qy48Cr69Am07j69XzTS///eP+FoiGhHhgMsrC0Oy41+7d5C2C62hbA5ZFnWYsBOF1WgbU3lEsJukO2tr52NilZu/uXyuYPdok3X7szMkrcL7LI9pzd6w7fj72sTNtyHdqSrZ1h+9x0sp9vPXG1mNOrJ7jU9EZ5x2ibnQAn15aqjK2zLea/yFftOFmlN6Em+HEAMhkhx46pZwt0MH3flqWRUeSmiemNV+8UYTAC0Aa0xTSefjwf+/7ff/p6o45/J6xbqEJu+68tLy0Sx86WT42+0+JjgPWVSnEA+BSAxWYGzmjuF+JC3iOMbiYCDcNnSHJUCBa5fnvlqZsiocz9IAw3z7juzK2itERvjIBc/avrO9QZdXfTxrD8xnSmv4uOW61tnC/oUEuMZnMgIMXEaVst5r/IV+0oWQWG+NB75jeG1ghAoCNZbFKvwzGxuy46LlKK3TRBIShTXVw95XNqP3r5HnWNWiAp0/v+N525RdsRzkm16kHRtluaC2BdX63qEelVkWdZiwGYq6LYtiosedm+UrBppF5UlOo54w2P7o9efxobAZ/e6xsGn3/0SjGjfZIWI05ljOS7FnVEXU0bTX4+P7nvb/DI3wOXHCdKS5SWtffLFZb+N47UKU+Eto3amQtg5SylbIDACRzDxVIEEvkUVK7v1w4UFuzCdtJPr9+y7tpkUI9cGLj9ripWLl6867xIKXo/SSXTs5CkacuK+VqOd7ntZ7e/w3FR1C1qiaSS+/7PmNv3f/K6U0RlhVJgm/3kj75eMkvO6z9d12wdsTMd8BEdyqcj6izlPq7WOAK/dKu00n+nS/jTB4NN/4+06ltKRmCXf3jkMjYCfFwJgGHwdw9eLJbO7z9AcafLsp//oy6oUyajJeyf/fD5m4w5/b18+9miXuPW0NCUSuWZv6PrNg3ZaQDMa1fSf/+HWdZ+BP5eVvmFLRiQMxjTX1vr9M0YpkysF1/++DWRVP6myQ3pdGdrOvIlM2bw7Kik9M3U1yaz/H32vgvE5CZ9uRqm1JVp9YE6pr/WylDAikGAPmc//XEN75ZRZrgmrEcB0w2A7WMNIl6hZ88QuHVNncSJg3xeBUglpAevfK8Y6Z6mzQks1/iBEyiehWem1iFq73/y4oeMzfyR4KezdaK2FSBEDN021qBt9m9zDADFI4APMr3aj8AZuRRYvu/C7AiYagisG0yIkmI9ToHAtG1So/inR6+INCmYJkGsxFx7xhaxcHa31nDCcPrEPXFvXu3ZK0x6/L965zmidWK9NvKHDkDysFTdoPre1hMAK9QdADkRkP38T4flI/lc3x8y3X3Oa9WBYvr6hZ364gMAU6QQfuXeC9kIMLga4Bgh33nuZnHnhXvE6sNHRGdbs6ipirkmDfwW1+Ba3AP3cu4b9dc3Xr7N2Mz/mRtP05LaN1X/Hdapdt4/kw7bYqkD4FCL+zGQilHK+6UB4L/IV7GciH6f0mmuFR+uwV5YJqEO62fdzcqD4gB8QR5P3RKdpC9BIkSk4f3HfZcnk/Lsvfg4cdnJ65N/eI9EPfguKql6ZfrtzVduN0b+H77iRFFTqSest6MbZzXLZfnLpws3Dias3P+fWKMUAviPRFQZeXYNCACvO0Je6CsCAslmv8o3MGz8fve8xqTvQ6E45fp9eVlp5PeIZQiGr/EvrkKhWOOs//cMnfW/89wdAmMq15gr9Dv4O2Hs69ZJCKZmYxbA1T1xAd1eKE4pv/9MQLiPq0lE0lkB0eGLuvSchdU9uLy6HxyA6tTiYx80sEqKi8VN52znpWMLtgMKJTv+/YGGyFuv3WmM/D948nqBsZRCRMrvMdZ1Ov2l6iVbQwCPtVaq4nYJM2twEFCKCNjRJJ8FK3UwBOk9nB/jMX0nAxyFdf4Ja9kIYCMgsDKQnPk/fZ2Rpf+zti1TJa2DrscY99LRebOl5/9b1UOhzw8O/XFNS4jo/zkkVOhreUmR2DVX37GYoBgCCBeMpEiF4pXv90cdNsyOZGwEBM4IwJ6/iWX/f9l3mVg2r0/7OMTYxhj3Sh/tmWfn8v+anlpRVqJ04glcAk7hEiAEHstHTLm+j0pQoHRlsH6oTsTK9BsBOCb40l4OHczL6wcur9uKxxufMuPt/9T1p2g95ufoOIxpjO308a7z/22WJgBSDP4DQwxcwiVgCCx3hF/mFasAXu2T6Rx0XtwLMQKQFEQGt1zXlJWWCE4nHAwCtJWY/aiXqXP+SOeLMZJrDMl8h7GMMe2Frki9p43e/0d1x1Vn/+gPcAmXgCGAJRvpvAAYaH2TvTkmkzpobH2/uj+hY+BkVGYrFgyKbz93U+CWhP0gH36GWQPJRIS/L+27VCyZ05txrMgQfuo1WPrGWPZaz2DL1Ebv/85G5bDn4BBe/g8Y+TvVvSV1MBT6HlGyvNwz83pQqt5/ZW+t1miBqfi3NjeKF+46l40A9g2wRgZMxPZ/4tr3iSkT9EX2Sx1j0F8Yw6p6wM31Nmb/WzazRvXoH4wycAiXgCIwlDogZN53RvBEQOqAX9r9/7d3JlB21fUd/75ZM3tmksk22TPJZN+XSUI2skCCiUIDFBIIATEcZEtkE4IKGEyjEEBZymERODFakSCLUOvS2qOlPdiqtZVFBVvbUrW21Z7aVuy/5/v6XnhO5s28d+//f9//3vv9n5PzXmbm3Xfv57d97//+lxZnIoBLzHKWwOvP3+VNEdAdeGXvwCvBn1v6Rr2r33eO3mI4yr+m2n6XP/Mciz9jtzCWXb3n4D8fN/8ZN7TWRq8Ka4hajAl8M0jhz38mA0Ty/MxVcNo47uZZbabewZiAPOPucSPN0UOXSwSoNyByH+A0v5c/95FIp/k9fNOFZnJXp43i1O8xGKuMWRuxX8oxfLz7XzulyTB353NMwFfWDrWYE9ge0PjHnSdtywP3F/RnzB/qZJ2AQttsXbvQvPTpA5EXgUrcdeo7K9/TwMF+UU7z++Pfv85sXjHneF4p9H1b7znPn7HaXwy7+JmvO/+FXPY3byPWDrWYE6gC8L2wAbYmZasD9pcsfndRu/Vlg/vahXsJfGDPGeb1F+6WEFCPgBMfYJf/a08diuyu/6+P3mquPX+LabK8ln/f2OHyvozR/mLX1c/OnD/Uu8F/Flb9owBgzWDtUEsAgfP6Bku5/6+pypitlrfNdBWULo/L0b4TOkKPrM0r7KKvPRPHmCfuuMpJAdDdd+Xvvitlg6i7/B+7+WIzddzIon5ebh4q9veMyagXL/Nx5D+7/jn+oRinMn5+fgLqni4hR6AGwA/LMH6/DsSVtFwuo+mycNs8Njf84BTJsDxL+fy2dYvMVx/aLyGg3oDQPpCd3//ZA5Hc+T97+CqzZeXcSGKEsciYtBnjpRxru2e7/p3a02Ia7CxixlrBmqGWIAIXl1JwBvsbdrNFrbRLCcZK/M2yiVYG2gyaJDOZTHZv+hfuvz50EajUnae+t3K9DlGO8n/y0GVmU+9sQ58dLJeE/T0HuTEGKxH75y5u96rrf+vMVtNub0Mz1gq1hBHgYg5/GTbo+Pm0Tw0sTDgn97TYGG1bcrLc0Dtb6weoN6BkIRjVQD/O51+7aHrJfhw2D7H4M/YKYzGq9xz459u0P0tT/mg/1ggt/JOw4p+/nGUA/jds8PHzi8c3ViT4ogryUr9nxqhoHgX0tdmqRdM1RkBCoKgQ4LP+V5486Ly7n8/4V8ztjqzwF8YBY6/UOLX5d74t+TtzpLUcxNrAGqGWYAIPFAZR0PdU4OsrpMBtBnOYY80aHXqP7dCJc+mcKeb+my4yP/jCnUWLgbrfK9f9HjV7dvd///Mfc1r4v3XkZnPnvnPMohkTQ/tv0PyT/xxjMEwMl/tZ3+b8LxvfaLMHkrVBLeEEOgD8LB9AYV452vSkKc2RBmC5Aevq7+d2Vb74F9qurbnR7HzHSebYnfskBFLaM/D6c4fN9564zVnxP3LrHnPWxqWmtckv32csuorzwuPuWOzXev8LuhpsLPWbF3GsCawNaikgcEFh8Qj7PjsKd1n0o3ALgzOq91HOAAhql4ljOs37dp1mvvH4zRIDKRADP3rhbvPKk7/npPB/8RNXm8vOWm/GjxqWLxRevs4e3eB0JsD5y/x57r9tZquxsMlPXzuyJqiliMDRoAWmv89xtcBzF3dEosSjKvZ9v+fcJR2G19nf9fv4M47E5iOCQ/vONd9+4qDEQMLEAAv/a0991Hrh//pDN5pb9pye7eKPYjS/rdgZ115ndiyxn4O41v8Znkz52zK9xVha5a8wj7EWqKWMQAuAV20FH4/T1hDtMpx9C7TL/3N5UV6fTV5RHouJfMbkLnPR6WvNw7fsMX9z7KMSBDEVBBzgZ3Pznj9/5CZzz7U7zXlbVpieCaMimcLnyvfbG6ut7mDK4u/LoL/1U5tNc32V7RzEGsBaoJZCAvMB/MpmMNbVZMzG6dFswemy4Bcee+XkZsPrssmp0seqymTM3GnjzSVnbTCP33apefnp2yUIPBcEbzx/l3n1WPiu/pce+6B54IZd5sJtq8zsKV2GvlBpf7T5/UNqMubkaeGnCPpU/JdPaDS11dbtxNzPGqCWYgKX2Aw+HiuTgeHAHBfdcYWF2fX702a3meHNNYlKjsVsXVNdZeZPn2DO3NRrrr9om3nwQ+/JrkCorYorP4PgjefvDPSMn1vuckW+j1+zw+zbcYo5fe1CM6d7rKmutn4X6WWMTBpWF3hvAI718eHO/7QZLWZaZ302pxaL3RA/Z+5XEwE8GMKJigb/kNoq0zupyZwfswGCXO64u7O+6HVZYHWP7ccvFs6p3+ulMJjU1Wm4ANGeM9dnxxN86uBl2cWIvvLgfvPikVvNd48d0uZFlnsPOJ3vh88d7ncuPzfXefGR/ebL915jnrnjSsNFeB7cvzv73H731lXZBXkmjB4Wp0L/AwB3u/Bh5qAgG5ltn9dW0ZX+ONBv7ughLrchZ85XE4EsAa789JSLAOQxW4dUm3UWuuRc3/FTqCyZ0OSiq62wuH4g53NkzpG3ofdocGW3co9bX1drOtqazbhRw7LjDRZMn2j0rzwG83smmHnTxpu5U8cd/8fn8mNHtJv2lkZTX5uoHqk3ALy7YN35q8v1uVL/fkRLjdk8c/BHk+z2r3TxXzKuwXDflVKvLcDfMddrtT8V/98iMATA1wI4U8mOyn0ENs9q83KmwKYZrVEM8rvrt4j//39qAXDt7R+5ZK9jo2Q/FSvnrP4eALuf6ft9220u+XMWzzuK7Gp63pIOc/qcyt35nzSpyeZ6/sX8nTmeuV5NBE4g0Abg2y4DkMce316XHShY6UcDO5d2ZBcy4t2B62sG8DiAzAnE3/5BHYBLAfw4gnOJ4nr1HXBeSOPG+B8BXAag/m237/fd/a5jYHRbrVkztfn4xmbnLKrM5j7cxIcD/EZFk4OY25nj1USgKIHRAF52HYA8Pke1ThxWZ1Z3NxvOsXfdxc/jc3DPabPaTM/IIa67+guT87MF3ZxFwed+QXV+JYB/isIG+g4V6Qh84E0Ae8u486wC8OkIziv7jH1qZ71ZO6Upsmf+nMu/aGyD6WqrNTVV1kf2F+adwvfM6cztaiIwKIHhAP4iigDMf0dVBmZMW2120OCZC9utioHtC9rNisnNWbFRH/10vqcBNAxK/MQ/aATAZ6I/yTPSq4p1zHzgpwCuAUBfLrfx8cCRKK+X0we5qx6L86k9LVYFwaZpzdlBfXwMylwX5XXlcjlzupoIlEygGcAXI3bU44HBRXcoCDgan1MKue83BxLy7p0F/bylb/cYcLohR+5zsR6OMVgxucnMHDUk+/lGt4Npjp9vEU585s+7mTCNdng/gH8p8h2DnYN+r674qH2Avkqfpe+GaXxkdqBSfs+BeCNbakz3sDozf0yD4TN6LsZzSk+L4fS8d85qzf5jN/7Gac1m1aQmwwF8c0YPMVOH12fFBAu+g8V7yrEnc3hYO4SxoT4bYwJ8Lm11yWCbwczuM+5KaPOYlo71GwBXWLZ7E4CdAJ4H8GtL5+kjO52Tnz49mF3ok/RN+ih91Wa7yEefZ+7hhmgexyJzN3O4mggEJkAV/hEA3CvaZ2f35dz+A8DWwLRL+2BnbjDVn8km8skK+wB9kAP76JMu2yYA/17ha/Ulxwx2HszVzNkDDTp2aSsdO4EENgPgM73BnC/Nv+ec/oUR234ygP0A/la2kW9G5AP0NfocfS/KNicuC2hFZIf+ci1zNHO1mghYJzAGwJ9U0Ln7c3hffsaVtSq9qcYCAB/TVEIJAQcxyump9C36WCUbBxR+XD2S/fo4czNztJoIOCPAFaRuAfCWgyTjSzEv5zz+GcA2Z7SDHZgDD9cB2SWe/1V26jdZlmPjtP4tfYfClr4UdjBrME8u/qn1WjzruF8zFzMna3W/4v6i31gmwF2kXkx5cTkWwbPPsGbjdKqVAG4A8IcAOEYhrQVN1z2w7ekb9BH6Cn2mv5X6wvqjzc+3Angk5f78DQDzbELVsUSgVAIcZLIHwM9TFoTcvOTsUiF59nc1AHoBXAfgCwB+ljLbSQS8LQJoe/oAfYE+Qd+IYzsFwHdS5se0HWdHaKBfHD02Yec8AsCjKXgux0V5Lo/BnVG57sUVwjjK+n0APgngmwD+M2UJNcnCgLZ8KWdb2pi2TtqqcHxEsQvA3yXcb9nd/wCAjnKDXH8vAq4JzMyteZ+0eeq/BPAhDwb5ubZf4fGZULtzz3935FZ0OwzgMwD+NLeL4S80FqSij1NYDGgDzj6hTWgb2oir79FmfHZPG/r2/L7Qz2y/51LavP6kjX35HwAP5expm5mOJwJWCUwCwA09/ivmapxrmHMlMvZwqBUnwGfFfB47EgBtTyG4POa296lHgCzJlGzJmKx9fz5f3Fui+U07AG69zZ0HfbJluefCHHoPgAnRYNO3iIA9ApyScnMM97z/CoCzlGRDOQLvxMpNdvr7/plp+9bgrsiR8e/MrVIYp8XM2KvD3Jm0RzXBLalPxpYAB6qszk0p8nU1L07nuwNAT2wp+3XiEgD9F/MgIkcCwI5vc+GigwD+wVNxytzIaZfMlRrcZ8fmOopnBLgzHkfQ83kWVW6QhGjjMxynwOemNwJYpICz7iWBBUB1psrsnb01Uf94TSF8XQLAuntibm72w1cB8Pl6GPuE+SxzIHMhc2KQXUPtk9ERRSBCAhMB7AbwWE4QcCOdMAFV7LP/BuDrAO4DsB3A0AivMY1fFVgA1FZVm+dO2Z+of7ymEH4tAeA2griCJx8TfCJ3U+Bq503mNhZ85jrmPOY+NREQgQICTHZc85tFmnfnDJavAfgWAM6/51S8XxUkUz7XY9cZB/t8FwAXxnghp6r3AeAc4a6C4+ttNAQkAApEjARANE5n8Vv47H0DgCtz0+640yFvIJhjONWQOadwTAH1m9GpAAAMiklEQVRzEnMTcxRzFXMWcxdzGHMZc5qEnEUD6VDpJsBFS7jPtZ6V+ekHEgASAH56pr2zYu5hDorrAkr2SOhIIiACIlBAQAJAAqDAHfRWBERABEQgLQQkACQA0uLruk4REAEREIECAhIAEgAF7qC3IiACIiACaSHAZ6OBRr5rFsAJ3MhSTQREQAREQAS8JsAlWK8Ps9iKBMAJAoAL15Ap2aqJgAiIgAiIgFcEpubmUXNP+UB3/vnPSQAU5Ue2nKtO1moiIAIiIAIiUFECKwF8HoC1BZwkAIoKgLywImsyJ3s1ERABERABEYiUAHdIfDx/127zVQJgUAGQFwJ8pQ20W2Wkrq8vEwEREIF0EuDiJxcD+LnNol94LAmAsgQARQBtQZtoUax0xqSuWgREQAScE5idWw618A7U+vvGmvpE7QPAfQ14TYUix9F7LlVLG6mJgAiIgAiIgBUC3FP9AADuoOi8kE1tHZ04AcBrioJdzka0FW2mJgIiIAIiIAKBCXDq2R9FVLyyRXL9mLmJEwC8pigZAvgSgI7AVtcHRUAEREAEUk1gJoDXIi5c5tDSXYkTALymqDnmdqbTI4FUh7AuXgREQATKJ7AVwC+iLlrLR/QkrvhzDAD/8dqi5gnglwBOL9/8+oQIiIAIiEAaCey1Oa+/1KI3pXWUObJub2IFAK+tO7qxAIVig/vWcyVBNREQAREQAREoSuDKUgu2zb9b1jnVfHb9NYkt/vlegCc2XGuWj6xITwAFwTVFra5fiIAIiIAIpJrAe2wW9cGO1VbXaDaPW2juXbkn8YU/LwDyr/etvMRsGbfIkMFgnCz//tJUe7guXgREQARE4AQC5wNgV7HTgjSioc2cM2WVOdx7oXl2042pK/x5AZB/JQOyIBOycc0/Z+PdJ1hfPxABERABEUglgbMBvOWq+GQAs3j4FPPBhWer6OcGBOYFQOErxQAZkRWZubJHbnwHba4mAiIgAiKQYgKLAfy3i2LTUFNnfmfScvPQ6vem/k6/sNCX8p7MyI4MXdgmZ3PaXk0EREAERCCFBLjIz+suCsyqUTPNY2uuVOEf4I6/FCFAhmTpwkY529MH1ERABERABFJEgBvHPGO7sIxp7DAfXnyuCn/Iwt9XHJAp2dq2V84HtIlQigJflyoCIiAC19ksJjWZKrOze415auP7VfwtF/+8GCBbMiZrm7YDQF9QEwEREAERSAGB1TYH/bXWNZqDS85T4XdU+PMCIP9K1mRuUQRwACh9Qk0EREAERCDBBGoBvGKreExqGWEeXn2Zin9ExT8vAsic7G3ZMecT9A01ERABERCBhBLganBWCseSzm7zuQ3XqfhHXPzzIoDsaQNb9tRKgQmNeF2WCIiACAAYZWuDn4XDp+h5f4UKf14A8JXjAmgLSyKAmz/RR9REQAREQAQSRuCTNgrFvI6J5tiG63Xn74EAoAigLWgTG7YFQB9REwEREAERSBCBXhtL/c4YOlbd/p4U/sKeAD4OoG0siAAuB01fURMBERABEUgIgS+HLQ5D65rM42uv0p2/hwKAYoC2oY3C2hkAfUVNBERABEQgAQTmhS0KmUzGHFi8Q8Xf0+Kf7w2gjWirsPYGQJ9REwEREAERiDmBR8IWhB3dq1X8PS/+eRFAW4W1NwD6jJoIiIAIiECMCYwMu9nPtLYx2sUvJsWfIoC7CtJmIUUAN4ii76iJgAiIgAjElMDNYQoBt6W9o3e37v5jJAAoAmgzC1sK03fUREAEREAEYkigDsBPwgiADV3zVPxjVvzzjwJouzC2z/kOfUhNBERABEQgZgRODVMAGmvqzZF1eyUAYioAaDvaMIwPAKAPqYmACIiACMSMwH1hkv/2SStU/GNa/PO9ALRhGB8AQB9SEwEREAERiBEB7vH+46DJvzpTZR5dc4UEQMwFAG1IWwb1g5wP0ZfUREAEREAEYkJgSYikb9aMnqXiH/Pin+8FoC3D+AIA+pKaCIiACIhATAh8OEzSP9x7oQRAQgQAbRnGFwDQl9REQAREQARiQuCvgib9rqYOFf+EFP98LwBtGtQfANCX1ERABERABGJAoB7Ar4Mm/DMm9koAJEwA0KZB/SHnS/QpNREQAREQAc8JLAiR7M2hpbskABImAGjTMD4BgD6lJgIiIAIi4DmBXUGTfWtdo5b9TVjx52MALg9M2wb1CwD0KTUREAEREAHPCdweNNGvGDldd/8JFAAUAbRtUL8AQJ9SEwEREAER8JzAl4Im+p3dayQAEioAaNugfgGAPqUmAiIgAiLgOYE3gyb6/QvOlABIqACgbYP6BQD6lJoIiIAIiIDnBN4KmugfWv1eCYCECgDaNqhfAKBPqYmACIiACHhMoDlokq+rqjHPJrT45efDp/mVtqWNg/oHAPqWmgiIgAiIgKcExgZN8B31zbr7T7gAoo2D+gcA+paaCIiACIiApwRmBU3w45qGSwAkXADQxkH9AwB9S00EREAERMBTAiuDJvgZQ8dKACRcANDGQf0DAH1LTQREQAREwFMCW4Im+CWd3RIACRcAtHFQ/wBA31ITAREQARHwlMC7gib43hHTJAASLgBo46D+AYC+pSYCIiACIuApAQmAhBfxMDMZJAA8jVqdlgiIgAhYICABIAFQtCdHAsBChOkQIiACIuApAQkACQAJAE+DU6clAiIgAi4JSABIAEgAuIwwHVsEREAEPCUgASABIAHgaXDqtERABETAJQEJAAkACQCXEaZji4AIiICnBCQAJAAkADwNTp2WCIiACLgkIAEgASAB4DLCdGwREAER8JSABIAEgASAp8Gp0xIBERABlwS8FgCPrL7c3Ltyj3lm041Fi1SYhW7i+FmyIBOycX3+WgfAZejp2CIgAiJQWQLeCYC7l7/bLO2catrqGo8vQ1tfXWu4Mc3Vc9/lvOi5LqpBj89rJwOyyC/PS0ZkRWZBjzvQ5yQAKhuc+nYREAERcEnAGwHw9KYbzM7uNaYmU3W8wOULXeHrypHTzdF1+5wUvIGKYaV+x2vlNRcy6PuezMiODG2epwSAy9DTsUVABESgsgS8EQBnTOwdsMgVFr2etq5UPBZgdz+vtfDaB3pPhhIAlQ0ofbsIiIAIxIWAFwLg9mUXmEwmU3KhYxHcPe1kq8XOZuG0dSxe40AFv+/vyJAsbX2/egDiEsY6TxEQAREon4AXAmBa25iyCh0LX21VtfmD9VdbK3a2iqat4/DaeI19i/xg/ydLW+cgAVB+QOkTIiACIhAXAhUXAMc2Xm+qB3nuX6zoHVi8w1qxs1U0bR2H11bsugf6OVmSqY3zkACISxjrPEVABESgfAIVFwC3L9sdqNCxCF6Q4McAvLaBCv1AvyNTCYDyg0GfEAEREIE0Eai4ANg3Z1vgQrexa56VQmejWNo+Bq9toCI/0O/I1Mb5qAcgTalA1yoCIpA2AhUXAHtnbw1c6NaPmWul0NkolraPwWsbqMgP9DsytXE+EgBpSwe6XhEQgTQRkADwdClgCYA0haGuVQREQASiJyABIAFQtLdAPQDRB6S+UQREQASiIiABIAEgARBVtOl7REAERMAjAhIAEgASAB4FpE5FBERABKIiIAEgASABEFW06XtEQAREwCMCEgASABIAHgWkTkUEREAEoiIgASABIAEQVbTpe0RABETAIwISABIAEgAeBaRORQREQASiIiABIAEgARBVtOl7REAERMAjAhIAEgASAB4FpE5FBERABKIiIAEgASABEFW06XtEQAREwCMCEgASABIAHgWkTkUEREAEoiIgASABIAEQVbTpe0RABETAIwISABIAEgAeBaRORQREQASiIiABIAEgARBVtOl7REAERMAjAoEFwED70et3MGIA+paaCIiACIiApwQkAKBi7UisSAB4GvQ6LREQAREgAQkACQBXvRUSAMoxIiACIuAxAQkACQAJAI8DVKcmAiIgAq4ISABIAEgAuIouHVcEREAEPCYgASABIAHgcYDq1ERABETAFQEJAAkACQBX0aXjioAIiIDHBDY7GgHuqqjouPERLPQtNREQAREQAU8JjJUA0DRARz5A31ITAREQARHwmMCbjgqA7tbjc7du21b0KTUREAEREAHPCTwqAaBeAMs+QJ9SEwEREAER8JzACAA/tVwAbN9R6njx6U2gL9Gn1ERABERABGJAYDuA30gEqCcgpA/Qh+hLaiIgAiIgAjEicBKAV0MWAN2px+dO3bat6Dv0ITUREAEREIEYEmgAcAWAowC+LzGgHoFBfIA+Ql+hz9B31EQgsQT+D4yMdkguiNM7AAAAAElFTkSuQmCC;" parent="1" vertex="1">
          <mxGeometry x="520" y="221" width="50" height="50" as="geometry" />
        </mxCell>
        <mxCell id="m7VxHknI9QD3Q0uFePXc-23" value="" style="shape=image;verticalLabelPosition=bottom;labelBackgroundColor=default;verticalAlign=top;aspect=fixed;imageAspect=0;image=data:image/png,iVBORw0KGgoAAAANSUhEUgAAAgAAAAIACAYAAAD0eNT6AAAAAXNSR0IArs4c6QAAIABJREFUeAHsnQeUVEXWx+/kAAMTmAGGGWDIOeecEclRgkhSUARRUUTEBUERzAHEjIIBEMkCkrMoiCJKMK6rrrrqt+uuCoJY37m989iepsPrfvd1v37v3+f06Vxd9auqe/+vwi0i3EAABKKdQAoR1SeiwUR0HRFNI6K7iehRInqeiF4joi1EdICIPiCiL4joRyL6vfD+AxF9TkTHiGg/EW0mopVE9BwRPUJEc4joViK6logGEFFtIkqKdmhRlv9YIqpMRD2J6BYierawrr4ios+I6DgRvUNEuwvr73UiWkZETxPRA0R0BRGVjbIyI7sgAAIgAAJEFENEeUTUmYiuJ6LHiOhNIvorEf1JRCrM9z8KHc8bRPQQEU0gog5wMmJttQYR3VkoxNi5nxWq34+J6BkiGklE5cVyi4RAAARAAARECPDVXuPCq+5XiegoEf0i5ADCIRR+Lrwa5SvQKURUt1DAiMCxcSKliGhyIbtw1BP/BwvIpUQ0lojSbMwWRQMBEAABSxLgq/s6RHQDEa0lon9GkbPX66j+QUQrCqcRqlmyFiKTKZ5KGURE64noXITrndvdPUSUExkU+FcQAAEQcAaBqoXD5uwUv4+w4dfrxCW/93XhlecYIqrgjCovUkoWQU9ZVOydIaJFRFRQJMd4AQIgAAIgEBIBHtbvUrgojxduSTpTO6TFC9kWE1GbkOhGz49SC6+yeQGm1euN13m8QkT1ogcvcgoCIAAC1iFQi4jmExFf8Vrd4FslfywGZhFRJetUo0hO+hXOuVuFczD52EREDUQoIBEQAAEQsDGB7ML5/CNw+oZFzz4iuoaISkZxe+Hte7xbIhiHa8Xv8qgFr1PBDQRAAARAwI2AlRZzWdF5GM0Tz0vzegneBx/vxt3KT5OJ6C4i4rwbLb+Vfr+OiDKtDB55AwEQAIFwEOCFUguJ6P9sZuSt5HA888KLJu+zeMyB6kT0iY3bxN8csF4jHPYD/wECIBCFBDhQy4tEdN7GRt7T8VrttbZa3Wq7CFoURlq0Gi/p/PAiwZlExAtccQMBEAAB2xPgkLscJvcCHL9lhrV5/zyHPLZCfAGeovjVYW1jh8VHY2xvlFBAEAABcwnwVd0Ghxl26StGs9NjUba8MPKgua3Be+ocTc+pI0JfElE571jwLgiAAAhEJ4GORLQdjt8yV/t6RASfjcAL1ZqFscndgTZCHxJRRhiZ469AAARAwBQCLQtPz9PjcPAd665y32pyIBue/+aoeWgD/2VwkIg42BFuIAACIBB1BLIKj1qNxAl7cCLmOFIelucTC8047GYJnP8l4odjHkTLVs2oM1DIMAiAgDwBPpDnaoes3naq0PiGiK4QbDrcXpzKMlC5+YRB7lO4gQAIgIClCfDKfh66DGTULP15saR4lZdRTNXJzVCNy5f6771CKdWiIEe1rVJGdayeq7rVKqd61s1XfetXUIMaFbju/Jzf4886Vi+r2lQp4/qNK40K/02ndm6Gyk1PVSmJ8ZZmoLMOtwnsGOAjjn/T+X9izJIT4lTpEimqWumSqmmFbNW5Rq6rLnvXK68ur/PfOuxUI1e1r1ZWNS/IVgWl0lRq5OrsAUv3emQOBEDA0QR4SPgRIuL9zGJG2sy04mNjVFbxZFU1p4RqVjFbXVY7Tw1rWllNbF9L3di5TpH7NW2qqyubVzF0H9+2RpE0+T+ua19TXdGkkkswNKmQrSpnl1CZxZJUbExMVDAsrB8Oa3s3EaWE0AOKE9FJM+vZPe2SKYmqQX6W6t+wYsh12a9BBdWyUo6qVCpNJcXHhbOebgmBL34CAiAAAqYS4KHgv7sbWis+L56UoGqWTVfdauWpMa2qqSmdijp5T6fv/tosAeD+H+7Pb+hUW13VoqrqUqOcql66ZCSvPINxcF8QUe8gW9oys9sKX+nXKJOuetTJD9np+xJ/LBibVsxWPGJkdjkKt0XWCZIvvg4CIAACphDgvcq8Mjwcxi/o/+Ahdh7e5aHd0S2rXXL17e5wAz0PtwDwlp+RzauoDtXKukYJwnzlGSz7tUTEhzgFupk67x8XG6Pq52W6RnV8OXCp90c0q6xaVy6t0lMTg2UV7Pf3BIKKz0EABEDAbAI9iOgHKzl/HjYvyEpzzdmyYffmREN9zwoCwD3vPHrBV5+8xiA/o5iKibGcCONFgu38NEJT5/3LpRdTPFQv5eCDSadt1TIq0dypgZF+uOIjEAABEDCNAG9Jmk9Eltnaxwu5+Mp4gpc5dnenaeS51QSAZ1mublPdJQayiiUFe0Vp5vd5PQgH9fFcwc4n+5ky78/TPNwWgnHYZnx3QMOKKictxSy2fIBTumk9HAmDAAiAgBcC+VYJ6JOWnOCae+V5ck9naMZrqwsA9zIPb1ZFNczPstK6gTeJKMetPU00Y+SIhSAvqDTDoYeS5ohmVVTdcpkqxpwpMj41EzcQAAEQCAsBXtz1kxmGW2+aiXGxqlbZDDWwUUFYnL67U40mAaDlmxcS9m1QwbUOIj421qyrUb3p8iLR9oVBbXixoN7f6fpehaziYZnrD0UIdK1ZTvFCROEy81kNjcLS8/EnIAACjiWQQEQPChuvoIwhX+3zsO6kDpduz9OcndmP0SgA3JnwdkNepBbh2AM8JfCadFuqmlPSMlf9vgQCx4ZIiBMXYYe8TK841lCh4CAAArIEKhIRG5mgHLbU99nx835rvpJ1d2aReB7tAkBjxiKKA9vwXLlUPUUyndplM9WghgWWFwAsDHgkgHcmCPMaJ9vlkRoIgAAIEHUion8KGytdxo+DtfDVKs+hsuGc3BECQHPgUo/MlLdHlkgxfduarjoPpZ3xjo++9SqqAQ2iQwBwW2bxJbxj430YKxAAARCQJDCIiM6GYpSN/IYj4LWrWuaSqzkzV/frdah2GQHwLC+PrnSvneeKPmik7sL9WxaJvetWcAkAFgEjDEZp9DV0b8b7HE5amBdvqcQNBEAABAwTuJaIeIGRtJHymR4b807Vcy9x/Jrx5ah9no4r3K/tKgA0jhxXoHutvHBFtPPZFvS0O17Q2Ll6uYvOnwXA0CaVfbYfrR1Z6ZHDCOspq87vLDDc65EACICA4wnM0mlwRIwXx+Ln7WrDmwU23sGE7dWcmuSj3QUAsxrbupoa2rSy6wAkK59F0Lh8dhHnzwJgcCPrbP/TIzT48CjBRYFfE1Gs460XAIAACIREgI3HonA6f45e17+B/gNZJravGdFRALsLAF4T4O64+EQ83lcfzjah57/y0otd4vxZAPSPonUAGmc+Q0BPmXV+p3NIPR8/AgEQcDSBRCJaqdPIGDZYoUZq40h3klf0waZldwFwTZsaRQSA5qR4MaYJe9hDake8eI4PR2KH7+2uLRrV8m71R84vr3sR6ntLHG3FUHgQAIGgCfARvtuFDJBfQ8ZDynVyM1xDzKEY5nBF/PMlDOwsAHh6ZWQL30cdc3Q9PpHQpIh2ftuNe9vk+P7eHL/2XrStA+B+wEdQu5fRwPN/h3gcc9BGAz8AARCIfgIcmvWIAYOj23DxUHKfeuW9XmEGIwYiuR3QzgLg2nY1ddUNH6ebYf5pdz7bVcdquX4FwKAoWwegtf3c9FSfZQ6yfw6LfrOEEoAACJhNIIOIjgdpXEIyUs0qZqvr2tfS5WA0g+jrMZLbAe0sAEa1rKq7fvgEwmo5JUNqC0baW5kSqX6dP48C9K8fPfEA3Ns4T7MYYeP229fNNhxIHwRAILoJpBDRfjejIWV8iqSTmhiv+EQ0HlKf0rmO4rPs3Y1eKM8juR3QrgLg+g6hibO2VcpIrmIv0nbc2yavGUlPSVRtq5QNKABYBOjZURJK2zPzN0ObVlJCZzWcjm7ThNyDAAiYSSCOiNa7G1gznvMK/2s8juYd26qaYQHARjhS2wHtKgB461+ozq1fgwoqHMcP+1r5r839uz8OaRxd2wE19gUycQHOExGf3YEbCIAACFxC4DkzHL6WZkxMjCt2vzcnPUHnPLNmEH09Rmo7oB0FgOfWP1/M/b3PV9w1yqT7vILX2obRx8qlSugaAehXX//WUn/lCvdnnWrkSjGsfkmvxxsgAAKOJzDPqBH29/tiSfGKg5v4WkUv4WzYKEdqO6AdBYCvrX/BOj/eQcBxA5LixY+8LeIU+Sho96t9X89510KwZYj093lLoBC/Po63dAAAAiBQhMAUf87b6Gd5GcWUngV6wSw282WQI7Ud0G4CINDWP1/8vb2vibJxraur7LTkIk7baNvy/H3D/FIBRUC0LgYsIxN46dYiPR8vQAAEHE2Atwb96WlIpV5Xzi6hJuk8rU/CibIDisR2QIm8j/dYF+FrtCQc7+vd+ufN4Xu+514fE9vXUiwIpdqXZzo8zdS8Yk5AERCNMQE41oJneUN4/ayjrR0KDwIgcJFANyI6F4IR0WWIOLDPlE76j+qdGOKKc0+Ho2e0QdqJ2k0ASIzGcL1425nBgqBKTgldbSiUthkXGxNwV0A0HRGstW+h0MD7LvZ+PAEBEHAsgQZE9J9QDKye37CxCtbJRvN2QDsJgFC3/mmOyv2Rr/i9tQOeYqhbLtM0EZAYd+mJgJ5rAjhmgXterf68S81yErz+4ViLh4KDAAi4CJQgok/0OPJQvtO+WlmvRt+bI/B8L1q3A9pJABjZ+ufuRHkUwbN+PV83L8iRcGpe0yiZnKh6163gczpgYMPoCgw0sGFFr+UMoY+mwg6CAAg4l4Aph/twPH+OXe5p5IN5Ha3bAe0iAKR2Y7AQmNCuhq620LF6ruKDfEJwZAF/UzEzzacA4BGBaAsMJMQp3rmmDyUHAWcTuN4MQxsfF6s48Eswzt7bd6UckLby3Nt/mPGeXQSA5NY/b/EefLHvWTdf8dy9GW2zSflsnyJgUBSNArBYEeBz1tnmD6UHAecSaEREbAAkDMnFNNhwD/Szx9+X0ff1vsQCtHBvB7SDADBj65+vOvb2fp/6FRSv4pdunxxGt0t138cER8uOgCGNCyTY/ORc84eSg4BzCZQkos+kjSsPSfaqW97wlb+7Q5BwpjwE7b79zD19M55L5DnS2wDN2voXDO+uMgvdLnGUJVN8rwfg6IAcaMd9/YIVn/dvILIG4G/ONYEoOQg4l8AqaefP6XWukSvq/NlZRON2QDsIAImRF3acvJAzGKfv+d1WcqffFRECFbN8rweIhgWBveqVL1KeEPvzCeeaQJQcBJxJYHKIxsKvwWlZKceQofc0/NrraNwOGO0CQEp0sQDgtLS6DPWxQX6W37YXanv2tx7A6lMBvMA21HK7/e6wM00gSg0CziTQhIh+dzMAEkZE1c/LNGzk/TmHaNsOGO0CQIq3nq1//urd/bNqMpHvirR3XqzapYb39QBWnwrgI5YF+vEuZ5pBlBoEnEeA9/t/LmA0ihieqjklTT92N9q2A0azAJDaecFX/1xv7k7cyHPOV05aSpG2J9GW/a0HsPJUgFAo4I3OM4MoMQg4k8CjEgbTPY38jGJhWVwn5ZTCtR0wmgWARN7Z+fOpf8Fs/dMjDgY2KFDssN3boMTzWmV8nxxo1dMC01NFOLzkTFOIUoOAswhwqN8/JIyllkZmsSSR+V09hp+/I7EoLVzbASWcaCR2AUR661+gtjC8aRV1Wa18lZIQLyoCeOtq1xp5XuMD8FSA1QIECW0BZIY3OMsMorQg4DwCMUR0UHPcEo88dxouZ6o5BQmnylem4dgOKJHXSAgAK2z90+rb2yMHJuKIfW0qlxGPEVC2RKpXAcD/ZzURwOG1JfoxEdVznjlEiUHAWQTGChmLi0anW61yYnO73gy9t/ekVqaH43TAaBUAEqMsLLKMbv3zVv/ae+yM2SnzsL10u25RUNqnCOhfv8Ay8QFqlkmXKPuPRMQXB7iBAAjYlEAmEf0gaShrlU0Pu/Nn4x9N2wGjUQBICSwWABJb/zSH7/l4RePKF510aeFFgcUS4/0eGGQFEcDTESmJIlMgq21q81AsEACBQgJPSTp/nvefJLCv29Oo630ttT1NenGaZ/6jUQBIsZXc+ufJlV+PbVX9ogDoYcJ6gOql0y+mzyMNnvf+DSI7EiAYGAnz/3ATIGBjAs2I6IKUAIjEvL+nA4iW7YDRJgCkdlnw1b/k1j/P+ufXN3SqXcQpS68H4FMsfcUG0MTAABYBzSMTLjgjNUli+J/TwPy/jY0/iuZsArFE9K6U8+d0IjHv7+kApByV2dsBo00ASOSXnb8ZW/882wC/HtyoUhERIL0egOMNaM7e1yOLAC5zOO+CZyNg/t/Z/gGltzkB0WN+q+SUiMi8vzfjL7FQzewdDBIONVy7ACS3/nG5vdWZ9Htcf56OWXo9QNMKOZf8h+d/cqCgcI4E5KQlS139Y/7f5g4AxXMugSwi+qfU1X/xpAQ1skXVsBh2PY5CwrnyVZuZ2wEl8hguASA1rWI2U/e2wdMA2m4AzSlzfIDEuFgpB+mKNdC7boWAIoAXBoYjTkDTCtliZSOi65xrHlFyELA3gblSzp/T6VCtrBrd0joCQGq1upnbAaNJAEiMqLDzN3Prn7vz1557GwVokCd7aFC9cpkBBQALkH71KqormlQ2bTqgX4MKKj5WTNz8m4g4LDhuIAACNiPAHftfUgIgL6OYy6iZvbJbM+p6HqNhO2C0CAApMcUCwMytf97aBbcDXpGvjQBoj4KL5HSPAmj/PcikKYEyJUTPQHjEZjYPxQEBECgkMEPK+XN4VL7yYONupSkAdgZSW9bM2g4YLQJAimOkBOIYty2BmhPuUDVXxcSQ2HA5jypoaet5lJ4SqFsuU6wshbuCKsFaggAI2I9AqmTQHzZ87Py1u7ersEi9JzVvPbG93Gl17iyiQQBI7ajg9mH21j93tp7P+YAgT8dckFVCzGlycKA+dS+NB+D5n+6vpaYEmhfkiJWj8MIAi//sZ/dRIhBwEbhJ6uq/RHLCJQubPA1vJF9LOS+ztgNGgwCQyON/R4fkT/0Lpm1dXXg+gLsDvrx2eZUUHyfmPBvll7pEZLj/n6/nrimBZv8T0ZqY1vPIa28kRzIKbUNb2EoQAAH7EUgiom+kBEDnGrkXr/w1Y8Urr4MxzGZ/V2LxmlnbASWcq5m7AKJx65+/9jSkcdG4AOyQ2WlL9QfeCdPHS1RAX47f/X0eDeC4BSOCEALc/+JjY8TyX8jhsP3MHkoEAiDABK6VMnYVsopf4vxZBJi5bc6fcff1mYSTNatcEnkzUwBITaGYxc9Xnft6n8UpB+Zxd7z8vFRxsX3zirfheaYfzGvetshCJVDcgMYVSplx5c9iog9MJQiAgP0IxBPRFxICgLcaDWxY0asAmNTRWiMAUivYzdgOaHUBIDF6ws4/3Fv/fAkAfn9i+1qXxAboVK2cmDMtmZxoSABoYkETAszP/T6saWVVqVSa9FW/lt5K+5k9lAgEQIAJXCXh/DkNPunP3Si5P78+gocAeTP8Vt4OaGUBICWcuG2Ee+uft3bg/p639QD5GcU1J2j4sXnFwNEBNUcf6NFdCFxeJ1/xQVtS/dgjnZ+IKAemEgRAwH4EOOb/SY8OH5Ih4W1/Axv5jm9uNWPPhl9qG5v0dkArCwApZpHa+ufu8L099wwQxKMAEv2D0+AYA4EcezCf96hdXlXMSlMxJLdt0UtZ+QIBNxAAARsS6O6lw4dk8KqVLunz6p+v9q4zacucNyOu9z2puWzp7YBWFQBSuye4PVzbzpwtlHrr3t/3hjapXMRRly2ZGlKf8Na32lUpWyTtYBy+9t1edSqourmZKkEwdLG3vBLRZhvaPBQJBECgkMDLPjp+UAYvJiZG9W/gfe5fmwawosGXcmjS2wGtKgC4nFp9GnkM16l//py8v894eshdBLSvmhtUf/DXpwqy0kIWABykiK/4BcP6+ivXf4ioPCwlCICAPQmkEdGv/oyV3s8qZ5cI6BgmtKthqW2AmgOQWNAmvR3QigLAblv/tPr39+g+HcBH/OrtD/6+lxgfp/QcEsRX+3yl37pSGVWjdLpr+sBfuiZ8NsqeZg+lAgEQYAJjJIwGzz/2qV8+oAAwc1uaPyPOuw+0K1feS+15H9CwoupZN9/wfWjTypek7flfel9L5Glgo4pi+eF8D2pUYJiRxtkbKx5R4HqaZLHFopwnXnDXpnIZEQHAfa5hXpbiq3ntzk6etwnWL5elapZJVzxKkJ6SqHhkTaKPhpDGLJhIEAABexPYFYJhuMQg+dr37zlEzIbUn6M2+tmYVtXUZbXzVL28TFW6RIpKS05Q8ebPkV7CQ4Kp09PgIDbFkuIVH2JTPy9TdauVp/hqXHqxpd42x+tXOE5AVjGZuAApCXJRBk1oK8/Y2+yhdCAAAhWI6E8J48FXdZ7O3tvrca1lBQA7A153UL10SZWaGA9HbO5KcEvwTYyPddU3HzIV7siSkzvVVryAT6LPmLxq30geNxJRHMwjCICAvQncIWHIyqX/97hfbw7f8z2+Qtd7xeXve5xOs4rZisOrSpQBaZi6hcy0OmLR1zA/K+wnTUpGB7RY23uHiIrZ2+yhdCAAAkzgtITxaV+trK6rfxYDRvd9j21d3XX1J5FvpBGdTt9bvfGBNzxvHq6ogp1qyO0I8FaeCL13ioiyYRpBAATsT6C5hJHh09KGN6usWwDw1i9/V/a+PuMAQk0rZptxuIlpV6cSfJFGcCKFA1HVz8tSZi825fUA/F82qp9tRJRhf7OHEoIACDCBRRLGi+fePYf5A73m/dW+HL2393vUycf8vgPm9iXao5ZGckKc6lWvfFDtzFvb8/de1ZwSdhEAjxERnwWCGwiAgAMIJBIRx/Y2bMDYOQdy+J6f6z0RkL/Hq/kl8ok0jNd1NDKsk5uhzDp/ok/9CtHeNs8R0TUOsHcoIgiAgBuBThLGvGRKYtDOn8WAnj3ePJcrFXRFoqxII3oFBMfeH9k8tKknfyMAvAMhinee/IOI2rnZBDwFARBwCIG7JRwar772vLrX8zpQzHwONsNrCyTyiDSi13FL1h1PCfBaFX8OPZTPuA9I5jNMaW1AeF+HWHoUEwS8EDhg1NDwHmaOVKfH4Xt+x995AFc0qRSOw02i0WgjzwanrFhUcvsKxdH7+s3wZlWiqV4+I6JeXuwB3gIBEHAIgeJEdN6oAOCT0Twdu97XvlZoD2taGVf+Bp2c0Xq1++/55DweYfLl0EN5P6u4TGRAE9mfISIO65vsEBuHYoIACPgg0EPC0LSqXDpkAeAtHDCLBx6mlcgb0sCwv782wCMBo1vKBKRiwdC2itz5AP7yHeJn64mokg9bgLdBAAQcRuC+EA3JRefMQVd4KFXvFb/n9ziYj/uVFu+p5pj9RvOF38Px620DmcWSxHYHcFRKvf8bpu/9m4ieIKK6DrNtKC4IgEAAAkeMGiEe8vR06sG8Hu0RDrhqTkmrGVDkxwFTEVVyShQRou6iNNjnJawhYI8R0bVExNN8uIEACIBAEQLpRHTBqAConZthSADwiW6age1asxycrQOcrdE2Z9bv21Ytc7Etam0ylMfaZTMi1Y4/J6JniahVkZ6OFyAAAiDgQaCvhCHlOOjBXPF7+y5HA+RzAXhRlkSekAaG/0NpA9z+vK1JCVYE8BHUofx/kL9h8f4eET1OREOIKNejf+MlCIAACPgk8EiQBucSoxYbE6OGNg19/l8TAxzlr3xm8UvSN5o/f7+PiYlRZbKzVIVyZXC3KIPcnFIqNja8opDDWQfr8D2/f02bGlJt+UsiWkNETxPRPCK6iYiuJKLORFTCZ8/GByAAAiAQgMAH/hykns+y04zN/2sCoK/JYVTjYmNV/y7t1L23TFSvPT5Pvb9hqfrl2E7158cHcbc4gzMf7lEfbX5FrXvyPvXQjCmqX5d2pouCwY2Nbw3khYV6+lCA7+wJ0IfxMQiAAAgETYBP+vozgPEJaMDqlss0PPzPIqB0iZSA/xVKXpMSEtS4vt3V8RVPqgun9sPZW9zZ6xVkn+5YpaaMGqLSiqWa0m6yiyerKZ2CO6TKcxSgvsy5Fb8TEZ/VgRsIgAAIiBHgRUKGjScv2tOu4kN97Fhd/ix1vuK/YWhf9dm6JerX/WvVrwfWwfnbxPm7i4R/Hd2mZk4crXg6R6I9u6fBB1t5OvVgXveqW14qTzXFej0SAgEQAAEiGutu7EJ5zuefc7S+UB2/9juhodKLxjY1OUmtnD/jv46fnf/+terM229AANhQAGhiYPUT81WxFNlRJG6XRkYBOMR1KP3Ky2/6wWKBAAiAgCQBwwGAeNhec+KhPnarJbvtr1R6CbX76fuKOH8WAGePbIEAsLEAYCHA6zp4QacXBxrye0ZHAXiNjEB+bpPs+EgLBEAABNYZNUw1y6QbFgCSK/8r55V1zfW7hvwLr/y15+fe3w4BYHMBwCLg+0ObVKV8uSklo6MAQvEAlsBcgQAIgIAkgdNGBUDzghxDAoBPD5Sau42Pi1OHlz52yZW/JgDOH98FAeAAAcAiYM8ri0V3CRgZBWhdubTECMBByY6PtEAABJxNIEHiBECjCwDr5MpFS7txeH+fzp9FwIWT+yAAHCIAWARMHTtMwvG60jAyCtCrnshCwJ+cba5QehAAAUkCvKrYsIEc2Kgg5BEAyaN+83JKqX9sX+5XAPx5+gAEgIMEwG/Hd6taVQoMt3Gtn4Q6CsBhrrU0DD6WkjQASAsEQMC5BPobNEaukL2hLvzj37WslCNlGNXye2/36/x/O7gezt9Bzp9HAPi+f/lTYm0s1FEAjnDJp2Ua7W9E1Nq55golBwEQkCRwu1GDZPQEwIxUkShpqnX9Wn6dPw//Ywugc6Mddm/bXML5utIIdRSgZEqiRB7GSRoApAUCIOBcAi8aFQCVSqWFPPwvufXv5btvCygAsAXQuQLg4MpnJJyvK41QRwEqZomcccHbdnEDARAAAcMEDhkVAA3ys0IWABWEDv3huf+BoG5xAAAgAElEQVR/710dUAD8fnQrpgAcOAWgTQVEehSgYX6WhAjhbbu4gQAIgIBhAt8bFQDtqpYJSQBIbv2bc+3IgM6fpwDOHdsBAeBgARDpUYBOMqGujxnu9UgABEAABIjojFEBwNubQlkEKLX1LzkxUX31xjJdAuD8h7shABwsAHgkIJKjAAMbVpQYAfgrLBcIgAAIGCUQZ9T58++HNK4UtACQ3Po3qlcXXc7fFQPgxF4IAIcLgEiOAghtBUQsAKOWD78HARCgdAkBMKJZ8IcASW79O/TCI7oFAGIAOHcRoLYOIJKjAFe3qS4xAnAOtgsEQAAEjBLIMyoA+BTAUIb/eRW10f/m37dpUFu380cMADh/TQQcWPG0SPvjNhjMjoDr2oudCphktPPj9yAAAs4mYDgKYHJCXNACoFutPDHj+9LcaboFwJlDGzH87/Dhf00ARGoUYEqn2lJtH9EAnW27UXoQMEygqdGr8OJJCUELgHBv/eO5f76fPbwZAgAC4GIbiNQoQHxcrIQIKDDc+5EACICAowl0MioAOIpfMFMAkdj6pwkAxADAFID7CAA/79ammYQzdqVxWe08dWPnOgHvqYnxEv9Zz9GWC4UHARAwTKCPUQGQk5YclACIxNY/TQAgBgAEgKcAiMQoQLpMOGCcB2DY/CEBEHA2geFGBUBueqpuASC59e+qnvq3/mkC4PzxXReHfz0dAV47VxyEexSARbPRfkdEPZxtulB6EAABowQmGDVEFbKK6xYAklv/3lrysO7Ff5oA+AMxACCAvKyBCPcoQLn0YhICYIjRzo/fgwAIOJvAVKMCoEp2Cd0CQGrrn55T/zSn7/544dR+OEAvDhCjH+FdC1BQKk1CAOBEQGfbbpQeBAwT+ItRAVCjTLouARCprX/uAgCOzrnD/IHqPpyjANVKl5QQADcY7v1IAARAwNEEZodLAPBUgdH/4t/zqX8/73k96OF/BAGC8w8kAsK1FkBIANzoaMuFwoMACBgmEBYBILn1764JVwbt/HkUAEGAIAACCYD9y58SEaksVP1FB4QAMGy3kAAIgIAAgbAIgDrlMkQMK5/697c3loYmAN7ZhPl/zP8HbANdW5sfFwACQMByIQkQAAHDBEwXALz1j8MFSwz/j+zZOSTnzyMAZ49sCWj8A10h4nP7jyJIjgJwkKwpnS4NDAQBYNhuIQEQAAEBAqYLgEhv/dMWASIKoP2dt5RAM3sUAAJAwHIhCRAAAcMETBcAUlv/CkpnhXz1zyLg3PvbMQKAKQBdbcDsUQAIAMN2CwmAAAgIEDBVAHQXPPWva50KhgTA+Q926jL+UleRSCe6RxzMHAWAABCwXEgCBEDAMAFTBYDU1j8+PGVEs8rq8zXPhCwCzn+4GwIAIwC624CZowAQAIbtFhIAARAQIGCaAJDc+iexgBBpkMhCTHA0zjGGjKdBRIgDIGAAkQQIOJmAaQJAausfHI6Is4Dzl3G6VuIIAeBky42yg4AAAVMEgOTWPwgACAC0Aa9tAAJAwAAiCRBwMgFTBECryqWtdKWEvNjv6hd1iikAJ9ttlB0ERAiYIgAyUhNhoOF00QbMbQMPiVgAJAICIOBYAuICoEuNcjD85hp+8AVfrQ2sJKJKjrVeKDgIgIAhAuICgLfsYc7W65wtuMBxm9EGfiaiyw1ZAfwYBEDAkQREBUDtXJlDfyAgICDQBoJqAxeIaKojLRgKDQIgEDIBwwKgWl4ZdUWHZqpvq4YqNibGjCscpIkrZ7QBfW3gBSJKCtka4IcgAAKOImBYAOBKLagrNTgyfY4MnELndICISjvKiqGwIAACIRGAAAjd0MJJgZ1V28CHRJQWkkXAj0AABBxDAAIATsyqTgz5MtY2NxBRrGMsGQoKAiAQNAEIAGNGFk4K/KzcBhYEbRHwAxAAAUcQqEdEn2AOH3P4aAO2bgMjHWHNUEgQAAFdBHiV8GIi4q1DVr56Qd5QP2gDxtvAWSJqocsy4EsgAAK2JlCGiA7C8UP4oA04qg18TkSJtrZsKBwIgIBfAo2J6CsYfkcZflxBG7+CtgtDnB7o1zziQxCwL4GhRPSblZ3/unXr1Keffmr4vmHDBhUTgYBE3bt31533Xr16GXYq99x8rfq/I1sN3W8bP9JwPkaPHq273I0aNTL8f8G24aSkJLVv3z7deQzUBuPjjYe6nnPjeHVs4zK1+bmH1bPzZqir+vVQWeklzWbzIxGVtK+JQ8lAAAS8EZgZrNEM9/fZSP/www8i906dOpltSH2mv3nzZl1l6Nevn8809LJ/aMYU9efHBw3dZ00eZzgf48eP11XmpUuXGv4vvWw8vzd06FBdedTTBmNjYw2X4/G/TL2k3s6f3K92Lluo+ndtbzh9z/K7vZ7vzUDgPRAAAXsS4BXAZhoUkbQzMzNFDPSRI0dE8hMqsyFDhugqhxMFQIcOHSJWNwkJCa4RAD0OPtB3JEaXFt916yUCwF3M7Vv+pGrZsI4ZvM4QUb49TR1KBQIg4E6AV/7yCmAzDIlommXKlNHlOAMZ5zlz5ojmK1h26enp6ttvvw1YFqcJAB5WZyccLE/J7z/55JMB6yVQ+/r+++9FyvDMPbf7FQCaGLhryjVmTGctcTcSeA4CIGA/AnlE9K2kATUzrdKlSxs2zmy8mzdvLmKgjZT19ddfD1gWpwmAxYsXR7xeevfuHbBeAgmAr7/+WqQcSxbM1CUAWAisWjhPFUtJEfnfwnbNowDF7GfyUCIQAAEmkEpER404sXD/tlSpUoaN83fffafi4uIkDWVIad16660By+I0ATBq1KiQWEq2w+zs7ID1EkgAfP755yLlWPbALN0CgEUArw1IEFh86MZzAEwlCICAPQm84tbRRQyW2elJrAE4fvy4Jco6cuTIgI7GaQKAd0iY3YYCpc+L9/RMz/gTAadPnxYpxysPzwlKALAIWDxnmsh/F3LiY4NxAwEQsBmBNoEMoRU/57lzf4ZXz2fbtm2TNJAhp9WtW7eAZXGaAGjQoEHIPCXb67FjxwLWjb+29sEHH4iUIxQBwCJg/BV9Rf6fiHhLYJzNbB+KAwKOJ8BngUsZCZ/plMnKUA2rV1Y9WjVR5ctk+/ye3ryUKFHCkGFmo718+XLD+dCbX3/f473u/pwIf+Y0AZCXl2eJutm5c2fAuvFXd++++65IOUIVAD8dflNllEwTyQMRtXO8tQQAELARgb7+HJORz2JjY1TbBrXV/Mlj1UevPaV+3b/24r1/x1aGDVLx4sUNGWY22rwH30gZpX7bsWPHgGVxmgCoXbu2Jerm6NGjAevGnwB46623RMoRqgDgUYD7bpskkgciesBGtg9FAQFHE+DhvBNSTsw9na7NG6nDSx+76PDdnT8/H9KlnWGDlJqaasgws9Fm4+6e70g91xN0xmkCIJLBmdzbwTfffGOone3du1ekjRkRAGc+3KNKl8qUyMe7jraYKDwI2IjAOHdDJ/E8v3S22vDwbJ+OXxMCwy8zHuBFIhIgG3eJIC1G2d14440BnYzTBMDw4cMlHJahNDIyMgLWi7+rf/5s+/bthvKgtS0jAoBHAa4Z0kciH9/byP6hKCDgWAIxRPSlZlwkHts0qK2+3Lg0oPNnEXBVry6GjREHiQlkfPV8XrNmTcN5McpvyZIlAcviNAGwYMGCiNcLRyLU04b8fWfTpk0i5TAqANY/db9EPv4kogTHWk0UHARsQqC5Uafl/vsRPTqpf+1+XZfzZwEwrq/xLV68f9+f4dX72c033yxhGENOg0cyvvzyy4BlcZoA4NX37m0sEs/nz58fsF4CtTM+sEoi70YFwK8f7FLJSYkSeSlvExuIYoCAYwncK2GUOI2OTeqrn/fod/4sACYMuNywIeKh+0DGV8/nUkO0ofLUswWQy+E0AcBljvRWQKNbALkMr732muG2zm3LqADgaYBqFctL5KWlY60mCg4CNiFwMlSH5f67Knm56pvNL+m+8tfWAFw/uLeEIVIcyU+Pkw/0nUhOA+gZ/uf8O1EA8BW4e3sL5/P27duLtK2XX35ZpAwSAqBTi8YSeRlkExuIYoCAIwlUlzKke5+5P2jnzyJgyjDjR9tyGb766isRI/3KK69IGMag02jYsKH6xz/+oasMThQAvEizQoUKQXM12r55dImDRAUSjno+Z4FnND/8ewkBcFW/HhJ5meJIq4lCg4BNCNwmYZAGdGwdkvNnATBz7DAJQyR2XCsb8hYtWojkKRi2q1ev1u1kLrvsMsP5e+ru6UGHk+WhY/f7/FsnGs7HVVddpbvcfCJfMEwlvtunTx/d+QskAp5++mmR/K9dvKBIPbjXid7nQjsBbrWJHUQxQMCRBA4aNZLxcXHq2PInQhYAT0y/XsQonjx5UsxQ79u3T3FwIaNs9P5+2LBhQeVdYj58w9MPGHYiS++fZZiR3nUP7Fx5hKRr166G/1NvvfAhU++//35QdeNPBCxcuFAk7++sft5w3fVo11IiLyMcaTVRaBCwCYGf9RpDX9+7vHXTkJ0/jwCse8i4E+G8SSzScjfeL730kuIDYHyVW+r9Zs2aqWADzJQtW9Zwvo6ue9GwE9n24mOG81G/fv2gHCyfqFe9enXD/xuo/hITExVv23NvE0afP/zwwyL5/mrfOsN1V7daZYm8dLCJHUQxQMBxBPhMb8NG4InpkwwJgPdelrkqOnTokKixZmN/1113Gebjj3HFihVVsCMXLBbiBY52/f7QJsNO5KPNxtdLZGVlBV1vR44cUTk5OabVDQu/RYsWBZ2vQAJh1izjYpfXJJw7uc9Q3f1xar8qmSYywlXVcVYTBQYBmxDgzmvIiHKM/79ueNGQAPh+m8whPI899pi4wWaDzvPOycnJhjh549yqVSvFx8MGchqen7/66quG85KYkKAunD5gyInwXPM/391qOC/MZseOHUFz4BEfHj3wxtbIeyVLllQrVqwIOj+e9eTt9eDBgw3nNyUpyXC9HVz5jOF8FDLmiwjcQAAEopAAn+ZlyBDUqlTekPPnKYBf9q0xlAetDAMGDDDFaLMh5/gA5cuL7Jt2hRseN26c+vvf/x5SfkeOHGmYV4VyZQw7EW2xWUpykuH8TJ06NSQWvPPjiiuuMPz/WhviLaBmjCRpYqBWrVqG85qVUdJw3c24dpThfBDRv6LQ5iHLIAAChQSGaoYv1Ec+6IeduNG7RAx+HhLWu41OM8jBPPLQO08JpKenh2w827Rp4xITwfyv+3c51oHE0HerRnUNOxFNAFQuXy5kHlq7Y8frXs5gn2/cuFHxMcpaesE+8mK/+++/XyyWhLf8f/3114rXFQSbN8/vVyxX1nDd1alWyXA+iOgjWFIQAIHoJXCzp3EJ9vVVPbsYdv4sHhIE5rQ57zxc7834Sr73ySefqNmzZ7u2CnII4kDMsrOzFR9mw1HgjObj0UcfDfh/gfLDn08ZNcSwE9EEwBWXGz/LgfPEUxtG+LD4W7p0qRo4cKAukcbnR7Rt21bNmzdPffHFF4b+W0++58yZI1J3LRvUMVR3QucAcFleiF7Th5yDAAjM1+Ms/H1n6pUDRQRAyeLFRIwjD9MHu6Jej/H29R2ew+fgLuxEpkyZovgoXx7enzFjhuI1CVu2bBEbleAryNzcXBFOO5YuNORENOfPjxyUxl8b0fsZjwJ8//33Io6YR0o2bNigeNX99OnT1ejRoxVvteSTFu+99161bNky9dlnn4n8l6+24f4+/xefJqiXhb/vjRnUM+S6O39yv6pVpUAkH0TUHyYUBEAgegnM8Gdo9Hw2vn8PEQGQl5MtZZTU3Llzw2bY3Y282c/vuOMOEUYZJdMMryJ3FwD/OrpN8aJCPe0l0HfMWshpdt0ESn/y5MkifJjfrMnjQhYAi2bfIpWPM0SEBYDRa/uRcxCg0YEMcqDPe7dtLiIAqubLXNlyfnmeleeEAxnlaPqcowRKbP1jPiP6dA/Zgbg7fvfn3ds2F3EsqampaufOnbaquxdffNG18DNQX9L7+d03Twip/g6telbqBECu642wnyAAAtFNoLteo+Pre01rVRMRAHUqVxRxIFo+MzMz1bvvvmsLR8Kr0o0sPNSYaI8rHr07JAfi7vA9nz9x161i9cfTHB9++KEt6m7Xrl2KRY3GXuLxvtsmBV1/X+5Zo8pkZ0nm45roNn3IPQiAQF2jBql4aor6565VhkVAk1pVJY2TK62CggL11ltvRbUj4ZDE+fn5Ymx4qP7n97YH7UA8Hb7n628ObBC9yuX1AEePHo3quuMDhEqXLi1Wd1pfffTOm4Kqv093rFI1KokeovQnEZWB+QQBEIhuAqU0o2Lkcd2DswwLgDYNaosbSi4TB3VZuXJlVDoSPjpW+jyCvl3aBeU8PB29v9cdW4S+Dc9b++MIgdE6lfPMM8+YEjyKOS2eM013He55ZbEqlRH6tlVv9UJEO6Lb7CH3IAACTCCGiH730cl1O+Sr+11mWAB0btZA9/8Fm1/eqnfDDTeEddW3kfUFn376qZo4caIp5xC0bVJfnflwj24H4s/he352YIXMSXfu9cvrOaZNm6a+/PLLqBBxp06dUmPGjDGtLTOb5+69I2D9/efYDtdiQanFme51QkTNYT5BAATsQeBjj84dtPHKziipfti+wpAI6NmmWdD/G2y+eV0Ab9fj7XRGHLRZv+V83XPPPWLbxXzxubx9S9NEQL8u7UypRw5+9OCDD4Z1i2cw9cwCZebMmSotLc2U8rvX5UsPzvYpAM5+tEc9Ofc26fl+9zK9Zg+zh1KAAAgwgcfcjUuoz2ddM8KQABjYqbW7kTH1eUpKiurRo4fioDp8qEw44wa4OxX+38OHD7v2ql922WWK8xUq/2B/Z5YI4MOB4uLMO0GRp0R69+7tOqiH1wiEGk7ZvR5Cec5ijRdn3nfffapz584qKcl4OGS9dbjysXsuCoDfT+xVn+1cpZYsmKkGdu+g0orJLjj0yNM5IqoCswkCIGAfAp08OnlITogNz1dvLAtZBAy/rGNI/yuRdw5DzKFg69atqxo3bmz6vU6dOorntyXCHxspf88OrRRfMXoO5Rt9PW5w77DVJZ/ax6MD9erVM73euG3Url1b8UiSEe5Gf1utYnnVsFY1VbpUZrjb0OP2MXsoCQiAABOIJ6L/M2qU+PdDurYLWQCM7dMtokZVovzRmIYZIoDPqpc4ICgaedo4z/8momyYTBAAAfsRWCpluGaPvzIkETBxcC8IAIMnM4Zah706thYfCXjgdrnId6GWC78zdtKnB7+r7Wf2UCIQAAEmMMCjs4fsjHlYe+mcW4MWATeN6B/yf0rl3cnpmCECxgzsiTqNkKgTbsu8Tgg3EAABmxLgmN4c21vEYMfGxqh5148OSgTcPkbuTHepcjgtnd6d2oiOBPD6gjaN64u0KafVhYXKu5WI4mxq91AsEACBQgIiuwHcDdeIHp3UjztW6hICd024Eo5CSIC510Gwz6VFwPeHNik+vz7YfOD7MmLcIMfTRJQOCwkCIGB/ArzAhxf6iBrr3OysP5++4wb1n71r/AqB+ZPHiv6vdDmckl5qSrI6smaJ6M6ADza+ZPb2NLQd4X5LRP8kour2N3soIQiAgEZgllmOrkLZnJ/un3L1L6dXP+tVCDwy9VoYcXkjHhRTdv7blz4u6vy1LYU7li5UfAyxWe0L6YoK9x+JqI1mFPAIAiDgDALFieh7s41pRoliX7SqV2vflT067bnr2pEHXpo77d1Rvbv+zez/Rfq+nYSZzl8TAae3rpA+lAaCQl40fkRElZxh7lBKEAABTwKT4Ch9O0o7sgmH89dEwD/f3aq6t20Oxy3vuCWYvkFEJTwNAl6DAAg4h0ACERk+H8COjtKOZQqn89dEwPmT+9WNo7Hrw2Lt6UEiinWOmUNJQQAEfBGoS0T/sZiBkrjCQRpuV56RcP6aCODHZQ/MMvPQGtS1W1376ct/J6IRvgwB3gcBEHAmgd5EdMGP4bCcgTXzEJpo4qAnr5F2/poQ4GNrZ99wtSqeGr6DkPTwccB3/kVEM4go1ZnmDaUGARAIRGBaNBnC2pUqqBuG9lVJCQmWEydW4mgV56+JAH789uBGdd3wASo+Ls6WdVcsJUXdNn6kFcp2loh4uD8rUOfH5yAAAiDwgpWcl7+81KiY79pieOK1p9WYPt1UVskSVjC4lsqDFZ2/uxA4tXW5GtX/cttsGczNKaWmjBqi/n5gg/rurTci2Ra+JaJFRFQBJg0EQAAE9BJIJKK9/hyvVT6rnFe2SIwBDj607Yl71ZRh/VSVvNxIGt+g/zvRhFEMqzt/dyFw7uQ+xbED2HkWRFnd1a1WWd1x3Wj19uvPqQunD1yMq/C3vWuDbgcG+xZH8ltARC2JKEZvh8f3QAAEQMCdQAoRLTdojEw3fnk5pYoIgF/3ry3y+r2XF6q7rxulhnXvoNo3rqeqVciL+NxzieLFXHvjO7dsoq7q10Pdd9sk9d76FxWfcy/JO5qcv7sQ0J4f27hM3X3zBDWiT3fVsUUjVa1iecXD6pKMgk2rZFpxVatKgeraupkaPaCneviOG9VnO1dddPha3rXHT3esMiu/HLWP9+9vJyI+2XM6EdV078B4DgIgAAJGCcwkoj+DNZTh+n5OZnoRh+8pAHy9/n7rq4rFwebH5qq1D/7F633do3PVpmcfErnzle3JN5erf7+/w6uzYCcizaxbm2aKt99pzsgujxxX4KPNr7giGErVj790dr20SHFAI168GCzDE1telahXjtLXgYhaFQbsYXGOGwiAAAiEhQAfHfyLtIOSSC89rXhIAsCXMHB//8yhjUEb/GAdhPZ9HjbmkQEJJu5p8NWzHUWAxs3qj+9vWCpRp1+EpZfjT0AABEDAB4H6RPSlu3OxwvPU5CTTBMBvB9eHTQCwI2vfrKGEs7gkDYiAg2GtR3dR8s7q5y+pjxD6zSkffRJvgwAIgEDYCKQR0Vwi+jUEIyZhCC9Jg7eQuV+1iz4/sC6sjuOuKddcUj4pzhABkREB+5c/JVGnx8LWw/FHIAACIBCAQC4RPUNEf0g5KCPpBDp22IgocF/R7X5lZ8bz347vdi10M8LC328hAsIvAnYuWyghAN4J0B/xMQiAAAiEnUAtIlrvz+mE47Ofdq40bRTgwsl9YR0F2Lf8SfHdAO51ABEQXhGw+bmHJQTAvrD3bPwhCIAACOgkUI+IZhHRUXdnE67n3255xTQB8MdHe8IqAHhkYe5N4yWchs80IALCJwLWPXmfz3oIon/wVj/cQAAEQMDyBPKJ6Hoi2kpE54IwciEbytOrnzVNAJw/vivsAoBFwKzJ40LmoYc5REB4RMDLD90lUY98ZC9uIAACIBBVBIoTEZ8yeBkRjSOivxDRk0S0gYgOE9H7EjEG3n7xEdMEwLkQ9n5LrQ/gA3P0OPNQvwMRYL4IWDjrFok6XB1VvR6ZBQEQAAGdBDiimSEjuWXhPaYJgN/f2xaREQBNREAEmO+kNdZmPApN53BETtxAAARAwHYEvjIqAF6dN908AfDumxEVAOyUIAKiVwTcPGaYIXFb2DdetF2vR4FAAARAgIhOGBUAi2+fZJoAOHt4c8QFAIsAM2ME8CFEfIiNGVfATk9zzMCeEgLgaVgKEAABELAjAd7jbMhI3jtpjGkC4Mzbb1jGMZohAtj5r128wDJltJtg6NelnaG2Xdg3Ftqx46NMIAACILDTqACYNmqwaQLgt7c2WMo5zrlRbosgnL/5UwtC4Z0fhJkAARAAATsSWGdUAIzv38M0AfBrmMMB67kClhABcP7mO3+uy7rVKkuMAMyxY8dHmUAABEDgZaMCYHCXtuYJgP1r1Z+nD1hqFIAdi5HV5XD+4XH+XE95ZXIkBMC1MBMgAAIgYEcCDxsVAF2aNzRVAIQ7HLCeUYBQRQCcf/icP9dRsZQUCQHQ244dH2UCARAAgZuMCoAmtaqaKgAiEQ5Yrwi4++YJuh0MnH94nf/Zj/borpsAfaARzAQIgAAI2JHAwADGL6ARrZxX1lQBcD6C0QD1CAE9IgDOP7zOn+vt24MbA7ZdnW2/tB07PsoEAiAAAs10GkGfxjQ+Lk79uMO8EwF/P7rVcmsAPIXBPVOv9ckHzj/8zp/rZ//yp3zWSRBtns/TiIWZAAEQAAE7EigThDH0aVB3LJ5v2iiAVYIBeTp9z9feRACcf2ScP9fNQzOm+GyvQbT5v9mx06NMIAACIMAEYojo9yAMolejet+UcaYJgN8ObbT8CIAmBuZNve4iHzj/yDl/ro9hvbperAsD7Xs/zAQIgAAI2JnApwYMpMvIXtGtvWkCwIqxADSH7+2RRQCcf2SdP9dLlQp5EgIAYYDtbPlQNhAAAVpjVABUycs1TwDsX6usuhXQmwDg9z7etjJqRi18lSGa3//x8BYJ589pTIZ9AAEQAAE7E7jFqACIiYlRf9/ysmki4I8Pd8Ohfhz5q+poEQWbn3tYSgB0tHPHR9lAAARAoJVRAcC/3/DwbNMEwDmLbwWMFsfolHxKhGsu7BPZMA8gAAIgYGcCSUR01qgImD3+StMEwO/vvokRAAMjAN+9ZZ1TFcMhQnp3aiMxAvCdnTs9ygYCIAACGoEDRgVA77bNTRMAZ9/ZBAEQpAC4cPqA2vTsQ6pHu5YqIT5efbL9NccwLF0qU0IAbNc6Bx5BAARAwM4E7jMqAMqWyjRNAFjtWOBwXMWG+h8/v7ddPXrnTapaxfJFnODoAT0dIQC+3LOmSLkNtGscA2xni4eygQAIXCTQz4ChvGhwP137vGkiwIqnAobqpM343emtK9QNVw1WJYoXu1gf7nXKERudMArw2uPzvJbfnYXO530u9g48AQEQAAEbE8jRaRT9GteX5k4zTQBcOLHXEVewwYiDYxuXKT6LoEWD2op3YgSqQyeMAkwdOywgh0CciOgCEaXbuL+jaCAAAiBQhMAnOgyjX+B0+c4AACAASURBVOPar0NL0wTA+eO7HC8Azny4R/EWt+tHDFQVypXxWxfe6tLuowC87iEULl5YHSnSM/ACBEAABGxO4EUvhjAoJ5OUkGBaPIBz7293nAD4+4EN6s0lj6gHb79B9e/aXhVPNX6+/ZiB9l0LsOulRUG1Vz/t/X6b93UUDwRAAASKEBjvxyDqNqwLp000ZRTArlsBfz+xV31/aJM6sOJp9eTc29TkkYNVh+aNVKmMdN3Mg6k3HgX4dMcqW4qpsYN6STG7vEjPwAsQAAEQsDmBOsE4El/fbV2/likC4Mzb1t7L/sM7m9WEof283q8Z0kddcXkX1b1tc9d8fc3KFVXZ7CyVmpIs5bCCSocdZTBrDaLhu79+sMvnAkhfbdXH++eJKM3mfR3FAwEQAIEiBPhkwH/6MIq6HQwvRju56hlxEfDbwfWWdlqf73pdNyOjjI3+3o6jAC8/dJcU/71FegVegAAIgIBDCGw06lz497OuGSEuAH7lQ4FO7besCIgmAcB1ZLdRAA54JNF2iYinwnADARAAAccRGCFhRKtVyDNFAFh5J0C0CQAeBfhspz3WAvBiybi4WAkBwCGxsf3PcWYPBQYBEGACKUT0s4QI2PfsA+Ii4Nx72zACQCTh6FxpjBvc27I8g1l38MDtk6WYrIIZAAEQAAEnE3hKQgBcP7i3uAA4e3izZR1WtI0AcB3bZRSgfo0qUgIA0f+cbPlQdhAAAWopIQCyM0qqn/e8LioCrHwmQDQKAK7naB8F4GiIEu2ViH4gogT0fxAAARBwOoGTEkZ11X0zRQUALwS06pkA0SoAon0U4OYxIqF/WUQsdHqnR/lBAARAgAncJiEAmtSqKi4A/vhojyWnAaJRANSqUqCeuOtW9cuxnZZkGmgdwHdvvSESHbGwrTdD1wcBEAABECDKJaI/JETAK/fcJioCzh3bYUlnFS0CIDY2VvXq2NoVYjiQg7X653z6oUQbJaLT6PQgAAIgAAL/I/CGhHHlLYH/3rtaTARYNSSw1QUAHxM8ZdQQ2xwJ/MWu1SoxIUFKAMz8X7PHMxAAARAAgcESAoDTeGL6JDEBcObQRowABLEVsFrF8uqxv9ysfn7PXocp8dHGQu3zTyKqiO4OAiAAAiDwPwJJRPSThJHNyymlftq5UkYEHFgHARBAANSpVkndNv5KtffVxYqPyLX6UH6w+fto8ytSgX9YROz5X5PHMxAAARAAAY3A4xICgNO4d9IYGQHAIYFP7LWcU4vkFEByUqLiULiPz5qqeGg8WIcabd/no5Gl2iURjdMaOx5BAARAAAT+R6CRlKHNLJmmvnvzFRERcP4D661aD7cAKFc6W42/oq9au3hB1K7iD0V4HFr1rKTz/4WISv6vueMZCIAACICAO4H3pUTAbaOGiAiA349utdxVrlkCgFftV62YrwZ276BmTR6nXl90r20W8oUiADq3bCIpAO5xb+h4DgIgAAIgUJRAXykBUCw5WX2x/gXDIuDMO5tsJQD4COW0Yqkqv2xp1alFY9dq/WfnzVBvv/6co67uAwmCrS88Kun8eX0Lrv6L9nW8AgEQAIFLCOyXEgHXDuxpWAD8dnC95QTAP9/dquZNvc7rfcG069XiOdMUn1m/8ZkH1b7lTyoOYfvX3WsU/+4PCx9zHMgph/PzpnVrSgqAWy9p5XgDBEAABEDgEgKtpARAQnyc2vvM/YZFwB8WXAgYTmfotP966u7pks7/ayJKvqSV4w0QAAEQAAGvBFZLiYDKeWXV99uWGxIB59631752pzn0YMrL2/5SU5IlBcA1Xls43gQBEAABEPBKoAYRnZcSASN6dDIkAKx8NHAwzg3fPeh3OufMh3uU4HG/LCI47G+81xaON0EABEAABHwSeEpKAHA6L8yeGrII+M2iAYHg0P079GD5TB4pFu9fG0HgCJe4gQAIgAAIBEmgLBH9KiUCShRPVSdeezpkEYB1ALLONljnbPb31z91v+a0pR6PEFFMkG0eXwcBEAABECgkMFdKAHA6LerWCPmwIKwDsK8A+ObABlUqI13K8WvpdEUvBgEQAAEQCJ1AGhH9Q1IEzBg7NKRRgLMWjAdg9lWxE9LnbZHCAX9YAOwIvcnjlyAAAiAAAhqByZICIC42Vm174t7gRQCvA7DhYTdOcPL+ysjxFCTbV2FaTbXGi0cQAAEQAIHQCSQQ0WeSRrp8mWz19y0vBy0Czh/f5XcVuT9Hg8+sN4XAsf4T4uOlBcDroTd1/BIEQAAEQMCTwFBJAcBp9e/YSv2yb01QIuDskS0QAB9bz5GHIq5+OvymqpSfK+38fyaiAs/Gi9cgAAIgAALGCKyRFgETBlwelAD4FdMAthBAP7+3XTWrV0va+XN6w401cfwaBEAABEDAG4FMIvqbtAi4aUT/oEQApgGiewTg1w92qXZNG5jh/Jd6a7R4DwRAAARAQIZAGyL6Q1oE3Hn1cN0iANMA0SsAzn60R3Vr08wM5/8pEfGOFdxAAARAAARMJDBTWgBwevMnj9UlAhAVMDoFwLmT+1TfLm3NcP4csrq5ie0dSYMACIAACBQSiC3cZy1uzBdOm6hLBJz/cLct5sJDWTwXjb/hvf7DenUVby+FQnQGeiYIgAAIgED4CHCYYNEAQWzMY2Nj1JJZNwcUATgcKHpGAS6cPqDGDupllvPfRUQsSHEDARAAARAII4EeRPSn9HRAfFycWn7v7QFFwIVT+zEKEAVbAk044EcTEz8RUV4Y2zv+CgRAAARAwI3A/dICgNNLTIhX6x6c5VcEnHtvGwSAxQXA9AkjNWdtxuMAt3aIpyAAAiAAAmEmwFEC3zFDBKQkJfo9Qvi3g+shACwqAHjBn4lX/iwm+Khq3EAABEAABCJMoBIRcQQ2M67y1KQhvdXPe173OhqAmADWWwvw9wMbVNsm9U1pC4Vt7CQRpUa4zePvQQAEQAAECglcYZYA4HTbNKitvlj/wiUi4AxOCLTUKMj+5U+p3JxSZjr/X4ioPnodCIAACICAtQjMNVMElC2VqXY+ueASEXDh5D5LOcFo3KYnkefHZ00142AfdzFxhog6WavJIzcgAAIgAAIagQfMFAEJ8XHq4akTioiA3999EwIggmsBOLTvyH6XuTtqM57/TkS86wQ3EAABEAABCxNYaKYI4LSHX9ZR/bhj5X+FwIF1ClsCI7MW4LOdq1SDmlXNcPjuaXKkv/4Wbu/IGgiAAAiAQCGBGCJ61mwRUL9aJfXRa0+5RABGAcIvADY9+5DKLFnC3VGb8fwCTviDXQEBEACB6CLA0dleMlsEZJQorl6aO80lArAWIDwi4MyHe9RfJo1VsbGxZjh89zQ5yNS46Gr2yC0IgAAIgAATiCOi18wWAZx+u0Z11ZHlT2ItgMlrAV5fdK+qlJ/r7qTNfD4J3QgEQAAEQCB6CXCgoPXhEAFxsbHqumH91Q/vbIYQEBYCxzYuU51aNDbT2XumPS16mzxyDgIgAAIgoBFIIqI3wyEC+D8ySqapR++8SXE0OontbU5Og8XUxBEDVFyc6cP97gJgttZw8AgCIAACIBD9BFKIaHe4RAD/T+2qBWrrC49CBIQwGsDiiUUUi6lw1hkR3Rf9TR0lAAEQAAEQ8CRQnIgOhtmhqH5d2qlPd6yCENApBN5c8oiqVaUg3I6f/+9xzwaD1yAAAiAAAvYhkEZEq8MtApISE9Rt469UPx7eAiHgQwi8t36p6tO5bSQcP6/2n2GfJo6SgAAIgAAI+CLAcQKmE9Ef4RYCacVS1R3XjYYQcBMBh1c/r3p1bB0Jx8//+RsRDfbVUPA+CIAACICAPQl0JqIfwi0C+P8gBA4qdvy9O7WJlOPn//2OiJrZs2mjVCAAAiAAAoEI5BPRO5EQAZoQmHHtKEeNCBxZsyRSQ/3uYuM4EVUI1DjwOQiAAAiAgL0J8DbBpyIlAtyFgJ1jCLy79gXVt0tE5vjdHT8/X0NEvBYENxAAARAAARBwERhDRHzkq6fDCNtrnhq4fcJVtgomdHTdi66dEJHkWvjfXLfXo62DAAiAAAiAgDcCjYjoi0g7q+KpKVEvBHhVf/+u7VVMTEzYBJSfejtBRPW8VTjeAwEQAAEQAAGNQCYRbfHjTMLm0FgITJ8wMqpGBN7fsFQN6NbBKo6f6+oZIkrVKhePIAACIAACIOCPAJ8mOCcSWwW9CQ9NCPzj7U2WjSPA8foHdreU4/+JiIb4q2R8BgIgAAIgAAK+CDQhone9OeVIvFcsJUVdP2KgOrHlVcsIAQ53zPv4LTLUr43OLCOibF+VivdBAARAAARAQA8BPlb4JiL6TyScvrf/ZGfbrU0zteHpB9SF0wfCLgZ+ObZTLZ4zLVIhezUn7+3xEyLqoqdS8R0QAAEQAAEQ0EuAYwZs8+aQI/le+dzSrlGBTc8+pM58uMc0McBbFJfeP0tdcXkXVTKtuDfnG8n3OJzvIiJK1luZ+B4IgAAIgAAIBEOgRiSdfaD/5ikCPnzooRlTXCcRfr1/fUiC4I9T+9XprSvU6ifmq9k3XK1aN6oX7iN5QxETXDe4gQAIgAAIgIApBCwtALwJBD5Slx04X7mPv6KvuvXqEWrOjeNdx+0+ePsNatbkceqmMUPV2EG9XIv4GtSsqpKTEkNxwJH+DQSAKU0eiYIACIAACDCBqBMA3kSBTd+DAEAfBQEQAAEQMI0ABEAEIyUGEC4QAKY1eyQMAiAAAiAAAQABgF4AAiAAAiDgQAIQABAADmz2KDIIgAAIgAAEAAQAegEIgAAIgIADCUAAQAA4sNmjyCAAAiAAAoYFQGpykkpOjMptdqZs88vLKaXSiqVIpM11gxsIgAAIgAAImELAsADIyUxXn61boq4f3NvRQoAd/yNTr1X/3LVKMZMAK/z1fA4BYEqTR6IgAAIgAAJMQEQA/Lp/reK7E4UAO/5Hb/mv49c4QACgc4EACIAACFidgKgA0BygE4RAfunsSxy/Vn4IAKs3e+QPBEAABEDAFAGgOUIWAjcO76/SrXfYjp4heK/fqVYhTz1263WuoX6tnJ6PEADoWCAAAiAAAlYnYKoA0BzjD9tXqMenTVS1KpX36lQF5stNTTc2Nkb1bNNMbXzkLtdUh1YuX48QAFZv9sgfCIAACIBAWASAu6Pc/Nhc1bttc8VO1eqOP6NEcdcIxonXntbl+LVyQgCgY4EACIAACFidQNgFgOYkT69+Vj1083jVrUUjS+0eKJOVoUb37qpW3Hu7+nHHyqAcv1Y2CACrN3vkDwRAAARAIGICQHOW/MhTBKvum6mu7neZ4sV14RwZiImJUY1qVFF3jB2q9j/3oPpl35qQnL57eSAA0LFAAARAAASsTsASAsDdefLz4yueVK/Om65mjhum+ndspXjhXVxsrGFhwEGL2NmP7NlZzZ881jWn/+XGpYYdvmf+IQCs3uyRPxAAARAAAUsKAE+Hyq9/2rlSHXz+IbVy/gz13J03qYenTlBzrh2pbhk5SE0YcLka1r2DuvLyTmri4F7qtlFD1D0TR7lW6y+ZPVWteeAv6oPli9V/9hq/uveWN8/3IADQsUAABEAABKxOIGoEgKeTtfJrCACrN3vkDwRAAARAAAKgMIqhpKCAAEDHAgEQAAEQsDoBCAAIAKu3UeQPBEAABEDABAIQABAAJjQrJAkCIAACIGB1AhAAEABWb6PIHwiAAAiAgAkEIAAgAExoVkgSBEAABEDA6gQgACAArN5GkT8QAAEQAAETCEAAQACY0KyQJAiAAAiAgNUJQABAAFi9jSJ/IAACIAACJhCAAIAAMKFZIUkQAAEQAAGrE4AAgACwehtF/kAABEAABEwgAAEAAWBCs0KSIAACIAACVicAAQABYPU2ivyBAAiAAAiYQAACAALAhGaFJEEABEAABKxOAAIAAsDqbRT5AwEQAAEQMIGAYQFQOjNDSZ6kZ4e0cBqgCS0VSYIACIAACIgS6ExEysi9avlyEAAeowjly2QbYlpYH81EaxqJgQAIgAAIgIAbgSlGnD//tlW9mhAAHgKgcc2qEgJgnFs94SkIgAAIgAAIiBJ4xqgA6Nu+JQSAhwC4rFUTCQHwqGhNIzEQAAEQAAEQKCRQioh+MioAru53GQSAhwAY2bOzhAA4TkSxaK0gAAIgAAIgIE3gWaPOn3//l2uGQwB4CICbRwyQEACcxrXSlY70QAAEQAAEnE2gOxH9KSEA3lx4DwSAhwBYNvdWKQHAIzRZzm6qKD0IgAAIgIAUAV74d17C+RdPTVH/PrAOAsBDAHy7Y6WKi42VEgHvE1FFqcpHOiAAAiAAAs4iEEdEHYlopYTj19Lo3amN+vPjg+qPj/aos+9scrwQOHt4s/rjxF4XkxYNaksJAE7nRyLiURvcQAAEQAAEQMArAV40Vo6IWhPRCCK6g4iWFToQSYfkSuvRO29yOTsWAS4hcGKv+v3dN9VvB9c7RgxwWX8/ulVdOLmvCItZk8eJ8yai00R0DxFxjIDiXlsA3gQBEAABELAlAXbweUTUhoiuJKKZRMSL+bYR0SdE9Lt2dW72Y0pykvr24MYiTk8TAvx4/vguxVfEv9pxiuDAOnX2yBZ1/sPdPst/dN2LZggAzzR5ZOAIEa0iogeJaDIR9SaiukRUwpY9AIUCARAAAZsSYAefT0RtiWgkEd1JRM8R0XYi+pSIzpnt2PWmP2XUEJ/Oz10IXDh9QJ07tkOdefuNqB8VOPPOJnX+g53qz9MHdJW9e9vmng473K//j4iOEtFqInqIiHj9R18iqk9EJW3ah1AsEAABELAkAZ6LL09E7YjoKiL6CxE9T0Q7iOgzKzl4f0IgKTFBfb1/vS4nWEQMnNynzr23Tf321oaoEQNnDm1U597fri6c2h90efe+ujjcDj/Y//snEfEiw7VE9AgR3UhE/YmoIRFlWLIHIVMgAAIgYFEC7OArEFF7IhpFRLOIaAkR7SKiz6VW3/tzzuH47LrhA4J2hu5CgJ/zYjl2rDxNYKU1AyxOeHifRy0uFC7o88x7MK/bN2sYrFO20vd/JqJjRLSeiB4jopuJaAARNcb2RItaIGQLBEDANALxhVuyOhDRaCKaTUQvENFuIvrCLg7en4jIycrwO/cfjHN0/y4vouPhdV5EyFfdYTkV8MA619QEL+LjNQuhXOW7l8Hb890vP6FiYmKs5NQl8/IfIuKIhRuIaCER3UJEg4ioCRFlm9YLkTAIgAAImECAHXxB4Za5MUR0FxG9SER7iOivRPSHP+do98/YkW169iHDV//eHOUl750+4NpeyKMELAp4pIDXEfAVejAjBvzd3w5tdP2W0+C0OE3euqh3Lv+SvBXuetD7/i3jhks63WhK6xci+oiI3iCiRUQ0jYiGFO5iyDGh/yJJEAABEPBJIIGIKhFRJyIaS0RziGgpEe0lor853cEHEjBTxw4Lj/PX6WD5ip1HDtiZ8xU83/k5v8eLD/U6aLO/9/uJvapJnRrR5LjDldffiOgkEW0mosVEdBsRDSWiFkRUhohifPZkfAACIAACHgQSiagyEfE593yc6tzCffD7iOgrIroQyMnhc/Jq/JvWranO8lWzTueM7/03NoLG4ZPtr6m0Yqle2aLNeW9zRHSmMPbBm0T0FBHdTkTDiKgVEeVCIHhYP7wEAZsTYAdfhYi6ENHVRHQ3Eb1ERPuJ6Gs4eJ+G1JDjaVynhvrhnc1w/gbFz8ZnHlS8gwIOX6ydniWijwvjYPDR1hz4igNgcSAsjpeB0xRt7hBQPHsS4NX0dYjoisJh+teJ6BSG6MUMp24n1KZxffWvo9vg/A06f20k4M0lj6jUlGTd/CEWDLV5DozF8TM4jsbTRHRD4fQfFija02+gVFFMgK/srysMWsL7k2EkI8ygS6um6pdjO+H8hZy/JgJ4ZwCmAyLev78rHDnghb4ceIvXB+EGAiAQRgIc05y3D/EWOjh8izBITEhQc24cr855xLfXHBgei87vh8LjndXPq6oV89HmLdLmiYi3NG4sjJZYNYw2EH8FAo4iwIfVTC9c/QsDaB0D6KoLnu8/tnEZrvqFr/q9iYRfP9ileGdFrNzRwehPcv3pIBFNIKJ0R1lnFBYETCLAw2y8Hxgr8eWMlJjBL1c6W90/fTKu+sPg+D3FwFuvPaNqVSkQq0uMpomOJvJOhBVE1NUku4hkQcDWBPgcc95nDwNnQQbtmjZQKx69G44/Ao7fXQj8cWq/Wvfkfapbm2Z2jhwY7TaAT17kUMiIT2Brl4XCSRDoRkSH4fitJXxKl8pU/bq0U/NvnYih/gg7fXcB4P785JvL1eSRg1Wl/Nxod5h2zT9HN+TjuHm3Em4gAAJuBHjOjA/AsWvnt3y5kpMSVfWC8oqPo50wtJ+aN/U6tfyRueqznaswt29Rp+8uANyff/fWG2rt4gVq+oSRqnPLJqpiubIqPi7O8m3QIf3/g8KDkdzMH56CgHMJ9CKibxzS+S1phPnK3kphcN2dGZ4b3z3ADM+f3K++2LVa7XppkVqyYKaK8hMHLdmPgrBh54noHiJKcq7ZR8mdTiCzMORutHfmqM8/L+b77fhuXOlH2ZV+qOKIIzQipoAlRht5WoC3NeMGAo4i0J+Ivg1CMUe9kzVa1pSUFFWlShXVoUMHNWLECHXbbbep3r17i3F54PbJEAAOEQC3Xj1CrN1wmyxfvryKj48XS9NoX4my3/NpofcRUbKjPAAK60gCpYhoeZR10LAYttTUVFW1alWXg7/yyitdDv7xxx9Xq1evVm+//bb65JNPLrkfPnxYJSfLhIjNzkxX/35/B0SAzUXANwc2qJTkJJE2nZmZqT766CNXuzx9+rTat2+fevXVV9UDDzygbrrpJjVkyBDVqlUrVaFCBZWQgPMMAtg9DlvOBxbhBgK2JMAr/P8RoBOIGCYr/kexYsVUtWrVVMeOHdXIkSPV9OnT1cKFC9WaNWvUO++8c4lz9+bwvb3HRlaqvBzJL9RhZfxOZq7ebI7Xjxgo1l4mTpyou92yQNi/f79avny5evDBB10C4YorrlCtW7dWFStWVImJiWL5kuoPEUiH4508REQptvQAKJRjCQwkIj5kw7adnB189erVVadOndRVV12lbr/9drVo0SK1du1axVfq3py3xHubNm0S2wOeXqK4+unwmxABNh0F4EWAHLJZoh8mJSWpgwcPirXrjz/+WB04cECtWLFCPfTQQ+rmm29WQ4cOVW3atFEFBQVOEwgcURDRBB3rLu1V8JF2OJGvePHiqkaNGqpz584uBz9jxgyXg1+3bp06cuSImCEMRRT06tVLxKizY5hx7SgIAJsKgLGD5NrJmDFjwtrmWSCw4Fi5cqV6+OGH1S233OISCG3btnUJBBYkEsLGQmm8R0Q4gdBevtBxpeGT+v60UKfyaSTS0tJcDr5Lly5q1KhR6o477lBPPPGEWr9+vXr33XfDauyCFQFbt25VcUL7vIulpKhvD26ECLCZCOBAQXFxsT7bfzB9lBekHjp0yFJ9QhMIr732mksg3HrrrWrYsGGqXbt2qlKlSmJrZYLhJPDdE0SU6zivgQLbgsAtAh1AxGBxPniIvmbNmqpr165q9OjRaubMmWrx4sVqw4YN6ujRo5YyZsEKAP7+oEGDxFj17NAKAsBGAoBPaGzRoLZY+7juuuuisr+89dZbatWqVeqRRx5R06ZNU8OHD1ft27dXlStXVixqrGSv3PLyGRFVtIVHQCEcQ4DPy45Yh+KT0ng+nhcZzZs3T/E8OS9CCsWxRstvdu/eLbrS+pGZN0EE2EQEzJw4Wqwv8khZpKe8zOqTPKrx+uuvuxYp8kLdunXrWmV741dEVN0x3gMFjWoCD0bC+devX981L7hs2TJ17NgxWzt7XwaQtw9KsU9KTFDvrV8KERDlImD3y0+IHh3M2/t8tT87vn/8+HHX1kaOu9GtWzeVnZ0t1seC7KvfE1H9qPYMyLytCfBpV08F2agNdSbeW9y3b1+Xarej8Qm2TLxISiouANdjzcoV1S/HdkIERKkI+L8jW1V+2dKG+ph7f87IyHCsuHbvixybY8CAAZHYmfB/RNTc1l4EhYtaAje7Gwszn2dlZamxY8cqntNz75h4/om6+uqrxQw+1+E1Q/pAAESpABjco5NoW+DYFehj/wvIxfE7pk6dqsqWLSvKOYDt/DcR1YpaL4GM25JA43Ds8+fVvLx4b9u2bWrv3r0wRl6iA7JR4gWPAYxIUJ+vfOweiIAoEwHPzpsRVB0Hai85OTmKh8MhAP4nADQWp06dcm0JbtGihShzP3VyHKGDbelHo7JQaUT0iZ/GarhTcJxx3pq3ZcsWtX37dtd9165d6sSJE7h7YcCrtCXrgwME/XX3GoiAKBEBp7euULydU7IN3HnnnehrXvqapw166aWXXKGPJdn7SGtxVHoLZNp2BF7y0UBFDBAfNMJBPzi+OO76GNx9993i25raNK7vOlLW7FC1SN9YSOHfT+xVjevUEOl7Wr/mmP8LFixA/9Npg+69917X9sKYmBjRetDqw+1xgO28CQoUVQRGuTVG0cbOC/w4wt19990Hw6PT8LgLpJ49e4rWB9fzVf16qD9O7cdIgEVHAs6f3K+GXN5ZvN45JK9728JzfUJ88uTJiqdOzLKRRMSLAstHlcdAZm1DoBoR/ceMxs2xv3nBEQyNPkPjjRMLJx49ka4fXhR44fQBiACLiQAWZiP6dBevbw6e5a194T19fXP+/PmuA8A4Nol0XyxMbz8RxdnGq6AgUUEgkYiOmtGg69Wrh+HGEK74vRlkPpBIclugVt+TrhwEAWAhAcCCbPQA+REfDvoze/ZsCACB/jhp0iTxaTmtPxLR3KjwGsikbQg84tb4xJRt48aNMeQvYGzcxcCIESPE6se9zm8ZNxwiwAIigJ0/j8q4143Ec56/Hj9+PJy/YH/kEw75UDGJ+vFIg48R7mgb74KCD9IgqgAAE9pJREFUWJpAJ4/GJ9KgeQvN/fffD4MjaHA0IdCkSROROvKs9zuuGw0REGERMHHEAFPqtkOHDuiLJvRFPoOgZMmSZtTZN0SUZWnPgczZgsA+T0dg9DUf6ak5Kzzqm1sMhtM999yjSpUqZYbRUXNuHA8RECERMGXUEFPqtFy5cpiGM8H5a32WjxLnnRVG7aaX33MYdtxAwDQC7b00OkMNuVOnTnD+JhobzehMmTJF7MhgzzZw322TIALCLAJ4CsazHiReJyYmKo57r7UbPMoLcmbKcRVMOFfgFyIqZZr1R8KOJ7BNwshoaTRv3hyGJgzOXzPivK1SYy/9yA6Jj53FPn5j+/gD8fvt+G41ZqD8gj+tPQwZMgR9Mkx9khdYmjAyd7fjvRQAmEKAD6EQcyClS5dWHDBDc054NOdKw50rr7GoVq2aWB16toe2Teqrbw5sgAgwaTTgk+2vqfo1qphWf3yipnt7wXPz+ySfrhgXFydZp/8iopKmeAAk6mgC6z0NfqivObQvH6IBA2O+gfFkPGvWLLNWIruMWOlSmWrnsoUQAcIiYM0TC1TJNFNWkLvqjU/6mzt3LvpkmK7+3fsln2gaqi318bsZjvZUKLw4AT6HWqyR8lGa7h0Az8MrBMaNG6fMDFMaFxer7r1lIgIGCYgAju437Zorxfqet37MQWquv/569MkIOH/N9tWqVUuyjn8golRxL4AEHUtgpTfDEcp7derUgaGJoKHRDE6/fv0kDY7XtPp0bqv4TPpA89r43Pu6gb8f2KDaN2volW0ofc/bb1gIDhs2DH0ywn3yrrvuUiVKlJCs65sc661QcFECNYiIA00Ybpzp6ekYZoywodEEAD+auShQay+V8nPV0XUvQgQEORqw++UnVJnsLMN9TqsHb4/s/LHoL7yjb+79z/M5n+IpODLHcQGSRD0BEnMkgaXejEco7/HQs2ejx+vIGqDLLrvMVCfD7SQ5KVHdef0Y9e/3d0AIBBACPx7eonh/f7zswjCvdTxw4ED0RwsJcraFvC06FNvq4zfXOtJjodBiBDKI6JyPxhVUQ83Pz4exsZix0cRXly5dgqrLUNsDX9E+fc90nCjoRQSc/WiPevD2G1RGybSw1AVPAWn1j8fIinB3/hy0KyUlRaoNfE5EMWLeAAk5jsDoUI295+/GjBkDg2NRAcAGqH379lJGJ2A6datVVm8ueQSjAYVC4LXH56nK5csF5ObZp0J9zVM/7k4Hz60jALguunXrJtkWWjrOa6HAYgQ2hmpk3H9XqVIltXPnTrVr1y6x+969e9Unn3yCuyCDK680d7W5e5vg5z3atVTH33jZsULg0KpnVZvG9SWNfcC0+EAa9Btr240jR46oYsWKBaxLz/7k4zXCA4u5Q2clVIKIfvfRqIJqnLz3XNL5c1oQAPJG7OOPP3YtCpOoc71p8JbBCUP7qe/eesMxQuCvu9eo4b27SS740tUf+UhaOH/5fmMG0wkTJuiqUx397EtnuS2UVorACB2NK2AjLV++vPjVPwSAeUbs9OnTKhxbBD3bVkpykhrRp7vavvRxW8YP4P38G55+QA3o1kElxMcH7DeefIy+ZodihqNCmub0xbfffltyLUAzKaeAdJxD4FWjRod/f/vtt4tf/UMAmGN0NGN+6tQp1bOnefHmA7WrgrxcNfuGqxVfKUd7jIBTW5er6RNGqtwcc05jDMSSP+fdN1rd4tHcviPJd/To0VJCcYFz3BZKKkXgKz3Gxd93eB5r+/btEACC8/SSBsZfWjwScMMNNyiOEuevjs38jP+7a+tm6pWH5yg+BCdaxABvd3zu3jvCPr/vWRd8st/dd98N5x+F/Y/75v79+6XOCXhbyikgHWcQyPc0JqG8btu2rSnOHyMA4buKWbJkieI48aHUv+RveHvcxBEDXMPovFfeamLg24Mb1euL7lVjB/VSxVPFtnGFzD0vL0+tXbsWzj9Knb8mzvmAJoF+xFu5U5zhulBKCQJDBRqd68AfdtZm3LEIMHwigFk3aNBAwhCJpMHR0qoXlHcdi8txBT7c9HJY1w3wfP5765eqRbNvUVf27a442qFEf5FKo0OHDopXkmtOBI/h6yvSrHnhplC7aCfhGJCGMwg8LtHoVqxYYYrzxwhA+A3ayZMn1VVXXSVljMTT4REC3lY458bxausLj6oTW15V3x/apM6d3BfyaMHvJ/YqvrJngfHGsw+6ohl2btlEpRVLFc+/RH/jKRM+XpZ3c0g7IqQX/j7HzJcvXy7V1qY7w3WhlBIEDhs1SLz634wrfy1NjABExiA9+uijknuUpYybz3R4tICP0eWr9KZ1a6rubZu7tuBNHjlYzZo8Tv1l0lh1/YiBalivrqpbm2aqcZ0aqmK5spZ18r76ZWZmpnrxxRfh+KN8yN9TaPGC3LQ0keiQfJw7biCgi8DPvgyN3vcHDRoEAWAzY6QZp61bt6qqVav6dLp62wi+Z/yALWbYqFEj14IxrX7wGBlxbBZ3ociAiAegy/XhS9kShnnBggUQADYVAGzoPvjgA9W3b1+IAIFTMo30t1GjRimenjHL+SDdyIuJOXPmSPQzPtE1Ee4NBAIRaGHEIPFv4+Li1JYtWyAAbCwANMcwf/58lZVl7rG1RtujHX+fm5urFi1aBMfvgD7G055Cbbh6IOOPz0HAcARAdgjaXL1Zj1gDEPkrE00EvP/++4rPMk9OTpYyVEjHx8hC8eLF1S233KI+/PBDOH8HOH+tj5UoUUKiT1wO9wYCgQj8xajarFy5MgSAg4yTZqRYlPG0AC+8M9qG8Pui6wN4VG3YsGHq0KFDcPwO7FsFBQUSfWpyIOOPz0FgoVHj27hxYwgABxopTQisWbNGNWvWTMJgIQ0ixfv6N2/eDMfv4D7VpEkTib7wANwbCAQi8LxRAdC5c2cIAAcbK00ILF68WAlduUgYv6hLo0aNGuqFF16A40dfUt27d5dov08FMv74HASWGxUAAwcOhACA0XI5Lt7HfOedd6r09HQJA+aINLKzs9W8efMUn8egiSk8WmfNSyTqYvjw4RJtfxncGwgEIsABIww1Nj59zKzFf1q6WAQYXQbx6NGjavLkyaps2bKG2pbRtmnl3+fn57vCZ/MWy0g4GfyndfsU9x2Btvt6IOOPz0Fgu9GGNnXqVAgAjAB4dWJ8Vfv888+rHj16qISEBAmjFtVp8M4JXji5bNkyhPBFn/HaZ1iYzZ49W6Kdb4Z7A4FABA4aFQB33XUXBACMmU9jpl1pHj58WM2cOVNVr15dwrhFVRr16tVTHOCFR0Y0Hni07hV4pOvm8ccfl2jfewIZf3z+/+3dsWpUWxiG4SkESzuvwFsQS1tbC/sRUqmggqJgJVMIcWqRyFiIKIhBEDsDkTTnNFZCmlzMOqxcwCxk/3vNv3KegV3tydrDt981//tFMyOBf6cKwGq1IgAE4K8G2+Hh4fmfuQV97nnEm2X4GvVrlZfLZfnx48dfZbPr4eP6uxeTzWYTweM/xpsEWgkQAMN7ZwPqz58/5fXr1+XGjRvnnyg5VUZ3/fOXLl0qN2/eLLXBnZ6e7ixXQ3z3Q3zKPQgSgPre7iGBrQkQAAKQYlDVTxis33D36NGj8yF65cqViBY06xr1W/nqn8E+ffq0fPr0qVShmfLG72fHHtxR948AbJ1ZTgYmQAAIQMqhVb/nvn7HxKtXr8qdO3fKtWvXdvqpg/XT+erf6tdP6Ku/tTg6OkqZW9QQss7uZIQABE44S21NgAAQgGEG2e/fv0t9c7x//36pX5t6/fr1868qrn9LH/FXBpcvXy5Xr149/4+K9Z8lbt26VR4/fnz+m4n6GwpDcXdD8f+UPQHYOrOcDExgsgDUX39++fJl1uPr16/l58+fDhlsZeD79+/l48eP5c2bN6V+c+GLFy/OP4+gfo3u7du3S/3Qqrt375aHDx+e/0XC/v5+efv27fmv7+t/1sOYPZaBgfrBUAH/n6W+t3tIYGsCkwWg/k/n9XrtkAEGMICBAAb29vYIwNax5WRUAgQgYMMSIAKIAQxEMUAAosabdVoJEAACoLVhAAOJGCAArbHlfFQCBCDRxo9qENbRRjEwLgMEIGq8WaeVAAEgANofBjCQiAEC0BpbzkclQAASbXytbdzW5t65d1EMEICo8WadVgIEgABofxjAQCIGCEBrbDkflQABSLTxoxqEdbRRDIzLAAGIGm/WaSVAAAiA9ocBDCRigAC0xpbzUQkQgEQbX2sbt7W5d+5dFAMEIGq8WaeVAAEgANofBjCQiAEC0BpbzkclQAASbfyoBmEdbRQD4zJAAKLGm3VaCRAAAqD9YQADiRggAK2x5XxUAgQg0cbX2sZtbe6dexfFAAGIGm/WaSVAAAiA9ocBDCRigAC0xpbzUQkQgEQbP6pBWEcbxcC4DBCAqPFmnVYCkwXgwYMHZbPZzHq8f/++fP782SEDDGDgwjPw/Pnzslgsph71vd1DAlsTmCwAq9WqHB8fz3qcnJyUs7MzhwwwgIELz0AtVARg69xyMigBAuAN9cK/oZJH8jwSAwQgaLpZppkAASAABAADGEjEAAFozi1PCEqAACTa+CO1FK9Vq8bAPAwQgKDpZplmAgSAAGh/GMBAIgYIQHNueUJQAgQg0cbXqOZpVHKV60gMEICg6WaZZgIEgABofxjAQCIGCEBzbnlCUAIEINHGH6mleK1aNQbmYYAABE03yzQTIAAEQPvDAAYSMUAAmnPLE4ISIACJNr5GNU+jkqtcR2KAAARNN8s0EyAABED7wwAGEjFAAJpzyxOCEiAAiTb+SC3Fa9WqMTAPAwQgaLpZppkAASAA2h8GMJCIAQLQnFueEJQAAUi08TWqeRqVXOU6EgMEIGi6WaaZAAEgANofBjCQiAEC0JxbnhCUAAFItPFHaileq1aNgXkYIABB080yzQQIAAHQ/jCAgUQMEIDm3PKEoAQIQKKNr1HN06jkKteRGCAAQdPNMs0ECAAB0P4wgIFEDBCA5tzyhKAECECijT9SS/FatWoMzMMAAQiabpZpJkAACID2hwEMJGKAADTnlicEJUAAEm18jWqeRiVXuY7EAAEImm6WaSZAAAiA9ocBDCRigAA055YnBCVAABJt/JFaiteqVWNgHgYIQNB0s0wzAQJAALQ/DGAgEQMEoDm3PCEogckCcO/evXJwcDDr8e7du/LhwweHDDCAgQvPwJMnT8pisZh61Pd2DwlsTWCyACyXy7Jerx0ywAAGMBDAwN7e3tThX3+eAGwdfU7WBAhAwIYlQAQQAxiIYoAAGM69EiAABEBrwwAGEjFAAHqNP9chAIk2flSDsI42ioFxGSAABnOvBAgAAdD+MICBRAwQgF7jz3UIQKKNr7WN29rcO/cuigECYDD3SoAAEADtDwMYSMQAAeg1/lyHACTa+FENwjraKAbGZYAAGMy9EiAABED7wwAGEjFAAHqNP9chAIk2vtY2bmtz79y7KAYIgMHcKwECQAC0PwxgIBEDBKDX+HMdApBo40c1COtooxgYlwECYDD3SoAAEADtDwMYSMQAAeg1/lyHACTa+FrbuK3NvXPvohggAAZzrwQIAAHQ/jCAgUQMEIBe4891CECijR/VIKyjjWJgXAYIgMHcK4HJAvDs2bNyeHg46/Ht27fy69cvhwwwgIELz8D+/n5ZLBZTj/re7iGBrQlMFoDValWOj49nPU5OTsrZ2ZlDBhjAwIVnYLPZTB3+9ecJwNbR52RNgAB4Q73wb6jkkTyPxAABMJx7JUAACAABwAAGEjFAAHqNP9chAIk2/kgtxWvVqjEwDwMEwGDulQABIADaHwYwkIgBAtBr/LkOAUi08TWqeRqVXOU6EgMEwGDulQABIADaHwYwkIgBAtBr/LkOAUi08UdqKV6rVo2BeRggAAZzrwQIAAHQ/jCAgUQMEIBe4891CECija9RzdOo5CrXkRggAAZzrwQIAAHQ/jCAgUQMEIBe4891CECijT9SS/FatWoMzMMAATCYeyVAAAiA9ocBDCRigAD0Gn+uQwASbXyNap5GJVe5jsQAATCYeyVAAAiA9ocBDCRigAD0Gn+uQwASbfyRWorXqlVjYB4GCIDB3CsBAkAAtD8MYCARAwSg1/hzHQKQaONrVPM0KrnKdSQGCIDB3CsBAkAAtD8MYCARAwSg1/hzHQKQaOOP1FK8Vq0aA/MwQAAM5l4JEAACoP1hAAOJGCAAvcaf6xCARBtfo5qnUclVriMxQAAM5l4JEAACoP1hAAOJGCAAvcaf6xCARBt/pJbitWrVGJiHAQJgMPdKYLIAvHz5shwdHc16HB8fl9PTU4cMMICBC8/AwcFBWSwWU4/63u4hga0JTBaA5XJZ1uu1QwYYwAAGAhjY29ubOvzrzxOAraPPyZoAAQjYsASIAGIAA1EMEADDuVcCBIAAaG0YwEAiBghAr/HnOgQg0caPahDW0UYxMC4DBMBg7pUAASAA2h8GMJCIAQLQa/y5DgFItPG1tnFbm3vn3kUxQAAM5l4JEAACoP1hAAOJGCAAvcaf6xCARBs/qkFYRxvFwLgMEACDuVcCBIAAaH8YwEAiBghAr/HnOgQg0cbX2sZtbe6dexfFAAEwmHslQAAIgPaHAQwkYoAA9Bp/rkMAEm38qAZhHW0UA+MyQAAM5l4JEAACoP1hAAOJGCAAvcaf6xCARBtfaxu3tbl37l0UAwTAYO6VAAEgANofBjCQiAEC0Gv8uQ4BSLTxoxqEdbRRDIzLAAEwmHslQAAIgPaHAQwkYoAAzDP+/gNvNOhTxrfLcQAAAABJRU5ErkJggg==;" parent="1" vertex="1">
          <mxGeometry x="190" y="160" width="50" height="50" as="geometry" />
        </mxCell>
        <mxCell id="m7VxHknI9QD3Q0uFePXc-24" value="" style="strokeColor=#999999;verticalLabelPosition=bottom;shadow=0;dashed=0;verticalAlign=top;strokeWidth=2;html=1;shape=mxgraph.mockup.misc.editIcon;" parent="1" vertex="1">
          <mxGeometry x="480" y="130" width="30" height="30" as="geometry" />
        </mxCell>
        <mxCell id="m7VxHknI9QD3Q0uFePXc-25" value="" style="strokeColor=#999999;verticalLabelPosition=bottom;shadow=0;dashed=0;verticalAlign=top;strokeWidth=2;html=1;shape=mxgraph.mockup.misc.editIcon;" parent="1" vertex="1">
          <mxGeometry x="480" y="201" width="30" height="30" as="geometry" />
        </mxCell>
        <mxCell id="m7VxHknI9QD3Q0uFePXc-26" value="" style="strokeColor=#999999;verticalLabelPosition=bottom;shadow=0;dashed=0;verticalAlign=top;strokeWidth=2;html=1;shape=mxgraph.mockup.misc.editIcon;" parent="1" vertex="1">
          <mxGeometry x="480" y="271" width="30" height="30" as="geometry" />
        </mxCell>
        <mxCell id="m7VxHknI9QD3Q0uFePXc-28" value="Lorem ipsum dolor sit amet, consectetur adipiscing elit, sed do" style="text;html=1;strokeColor=none;fillColor=none;align=center;verticalAlign=middle;whiteSpace=wrap;rounded=0;" parent="1" vertex="1">
          <mxGeometry x="250" y="130" width="230" height="30" as="geometry" />
        </mxCell>
        <mxCell id="m7VxHknI9QD3Q0uFePXc-29" value="or incididunt ut labore et dolore magna aliqua. Ut enim ad minim veniam, quis no" style="text;html=1;strokeColor=none;fillColor=none;align=center;verticalAlign=middle;whiteSpace=wrap;rounded=0;" parent="1" vertex="1">
          <mxGeometry x="250" y="201" width="230" height="30" as="geometry" />
        </mxCell>
        <mxCell id="m7VxHknI9QD3Q0uFePXc-30" value="aliquip ex ea commodo consequat. Duis aute irure dolor in reprehenderit in volupt" style="text;html=1;strokeColor=none;fillColor=none;align=center;verticalAlign=middle;whiteSpace=wrap;rounded=0;" parent="1" vertex="1">
          <mxGeometry x="254" y="271" width="220" height="30" as="geometry" />
        </mxCell>
        <mxCell id="m7VxHknI9QD3Q0uFePXc-31" value="" style="shape=image;verticalLabelPosition=bottom;labelBackgroundColor=default;verticalAlign=top;aspect=fixed;imageAspect=0;image=data:image/png,iVBORw0KGgoAAAANSUhEUgAAAgAAAAIACAYAAAD0eNT6AAAAAXNSR0IArs4c6QAAIABJREFUeAHtnQe0BEXx9a/kIDnnJAqSRcEAElSMKIKooGBAMQIGEAx/BROICVCRZMKMIiCYwCyiIiBByYggQXLO4fvOZWd5+97bMKG7q3rm9jnv7L7ZmenuX1dV1/R0VwNKIiAC3gnMDWB5ABsAeBGA1wJ4G4B9ARwI4HAA3wNwMoDTAPwFwFkALgdwJYBbZ/w9AuD/zfjjsZnn8drLinvxnrw38/hukSfzZhlYltcAeGFRRpaVZVYSAREQAREQAREYQuAJRce+KYBXAtgTwMFFB/tHABcBuGVGRz2z4/b8P8vOOrAu3wHwmaKOrOsmRd2HYNEhERABERABEcifwJwAngTgpQD2AHBI8RT9LwD3Zdy5h3I8yIAsfgrgiwWjlxTMyE5JBERABERABFwTmAvAusVQ+P4AfgjgPAD3q5Of9bqhrPNAducWLD8G4NUA1gFA1koiIAIiIAIikJzAwgCeWzytHlO8I1dHP3teQdmOvup5HDXgHAey56jK5gDYJkoiIAIiIAIiEIwAnzb51LkrgCOL4ephk+iqdmI6P7zDcB2A4wDsBWAzAPMFkwLdSAREQAREoPUElgKwHYAvAPgrgAc0hF97CN/ayeGoDFcvfB7AKwAs2XrpVQVFQAREQARKE1iheLo/GsCF6uyz7ezLOBuPFm18FIBdtAqhtI7oRBEQARFoBYEnAng+gIOK98jsFMp0HjqnnZyuKF7t7Ahg8VZIuCohAiIgAiLwGIE5AHCd/QEAzgTwsDp8OTwjZICy8TcAXMXBOAWUHSUREAEREIGMCPBJjk90nLR37Qhjryf6dj7Rh2zXm4pJhZwAulhG8q+iioAIiECnCKwEYPciyM6D6vT1lB9YBjg6cHqxwmDFTmmWKisCIiACDgmsDeBDAP4OQO/y9UQf8ul/3L0oa3yd9EEAaznUCxVJBERABFpJYOXiKYxPY+OMtH4Tn1QywFDGnDewZis1TpUSAREQAUMCXKr33mKCViqjrnzkQFSVAY4MMO7Ae7TE0NBaKGsREIHsCTCKGyfycfvZh/S0r9GOzGSA0SI5SsV5KQtmr42qgAiIgAgkILAxgEMz3wa36pOjzm/3aMMdAI4t4k9wC2glERABERCBggDD7+4D4NLMnvLUcbe7447RvpcA2FthiWX7REAEuk6AT/tcq3+vOn4N8XdMBrjHBDcuYlRKjQp03RKq/iLQEQKLFBP6+CQU4wlL9xTX3GSAusCJg9QNJREQARFoHQEukeK7/bvU8cvxkQwMlQHqBkfE1m2d9qtCIiACnSPAWOrbAjhVgXqGGvzcnlRV3jSjK1xO+CsAL9V+BJ2zmaqwCGRPYJ5ii10GSFGnIQaSgfoycFkR+Gr+7K2CKiACItBqAgsXxuoadfxyfCQDQWXghiLaoLYsbrUJVeVEID8CywP4ot7vBzX4emqu/9TcZnZ3Avg8gOXyMxMqsQiIQJsIMC4/J/ZpGZ86qzZ3uh7rxmWEDC60RpsMiuoiAiLgn8CqRcd/n4Z59dQvGTCVAW59TUdAGxH5t5sqoQhkTWAVAF9XbH5Tg+/xaVRlsh8B4n4ZRwPgqJySCIiACAQjwFC9BwHQE7+9oVdnqzYYJwN8NcBYApojEMz86UYi0E0CnHHMfc458Wic0dFv4iMZ8CUD9xRO+2LdNF2qtQiIQF0C3Ip3XwC3qeN35fjQEbsSwFlFoJjvAfgSgAMA7Ang9QBeXMSX3xQA91rg3+rFH1/hsEPg3wIDwsHv/eM8h+dzcln/et6LMet5b+axV5HnlwGwDAxawzKxbHIWfTkCtxYbbVGnlURABERgJAFG7tsVwFXq+JN3/HcD+CeAUwB8BcAHALwGwDOL4dy5R7aavx8YCIpD0Cw768C6sE6sG+vIumrEIC2D/wB4nTYe8qcsKpEIeCDAJ7xzZJijdkzs+M4EcAyA9wPYvnjKXtKDACQuA+vMEQYyIIuvFWzkHMR1DDhSs3XitlZ2IiACTgk8qdiWVE9k4QwvZ2RfAeDkYg7FjgDWUVz30hrAwFJ0SPmqgUvc2GlpAmo4+aSuUzYVQ6C0SOpEEWgXgScCOBDA/Xrqb/TUz87+7wAOA7AzgPUA5DRcn4tUkynZchibrOkUkL0c1/oM6FR9CsCCuQiByikCItCMwBMA8IlU7/nrGc7bAZxWPNnzKXVwMl2zltHVVQmQ/WbFSMFxABgvXw5BdQbXFnN/aBuUREAEWkqA+4z/SUayUidxfjGBjbPfNWTqXzH4SmuXos0ukKxXkvU/FK+q/LeySigCIlCaAJ+UuJ6fQUL0hDSewc3FnIjdAaxUmrBO9Epg6WLEi8FxrpP8T9R/vlbh/h58RagkAiKQOYFti/XZ6viHd/wPF++TGemQQ/pzZd7eKv5oAlzmypUHjHHB1zhyiIfrBG0Ft/TeYTRK/SICIuCZwAoATtATz9AnHhq3rwLYDsDCnhtRZYtKgG3/ykIW+B5cTvJsBscrrHBUGdTNRSA4AU7yu0UGbZpB/28xtMlJY3wSVBKBQQL90QG+KrtcujNNdzjxla/ENElwUGL0XQScEeA2vafKeD1uvK4e6PRlvJwJq/PiMG4DnYHLpE+P6xMnCWrbYeeCq+J1jwCfXhg0RVHUgH8DOBjAJnpi6Z4iRKgxHUfK0mfRk62uvya4q9h3QqNoEYRNtxSBqgRWA0DPvMuG6Q4ARwDgpjVKIhCTAPc3OAoAZa7LOvd7ABxxVBIBETAiwI17urz7GqPB8d2kliwZCWCHs+Xuepxrw9UEj3bUGaDt0dyADiuBqm5DYBkAJ3XU6HAtN9cpM6iRkgh4IMD34pwv0NXomr8AwP0blERABCIT4NpcBqvp0vDjg8WSRsY00Dr9yAKm29cmQNmkjJ4IgDLbJR29qVhWWxueLhQBERhNgNH8+O6xa0blE1qHPFoo9ItbAssB+CQAdoxd0tnDAczvtlVUMBHIkACXJDEmfVcMyaXFqgZttJOhsKrI0wjMW2y0888O6e+FADaYRkH/iIAIVCbAJUicZHNPR4zH6cUQqtbsVxYVXZABAQahOrkjkwa51TCXJkuXMxBMFdEfgcU6MtGPhuIYTerzJ4AqUTQC6wH4GoD7O+DYM5TwItFI6sYi0EICT+9A0JFbi5nT3K1NSQS6SICreT4O4LaWOwIMrbxRFxtYdRaBqgS4tv/eFhsErh3mznsc4VASAREAFip2KGyzI8DRDr4SUBIBERhCgMFsvt/ijp+R0w4AsOiQuuuQCIgAsDgArnppc5TBYwEsqMYWARGYIvAkABe0tPNn7HA+8dO4KYmACEwmQF1hYCHuwtfGlT/nAVh9MgadIQLtJ/AiAHwf3jZF58ZEjNjH95xKIiAC1Qks0WJHgNuVb1Mdia4QgXYQ4PKY/QA83LLOn+/6uBvfku1oJtVCBMwJLAXgcy1cNUDbt4+WCprLlwqQmADfgR3Xso6fIxg/0tBeYklSdl0isAYALqtr22gh5z4p6FeXJLnDdeWmGdzFrk1KfDaA53a4TVV1EUhJgFsS/6VlNuRcACunhKi8RCA1gQ0BXN0ixb22iFQ4Z2qQyk8EOk6ArxC5HXGbdiDkTp/P6Hi7qvotJfCqFoX0ZWhizuzn+mWlHoFlAfxef0kYkLVSjwCHzvcFwNU2bRhVZGTQndS4ItAWAvTUP9KS+N+PAvg2gBXb0jgB67FqSwxwDp0IWStNJ8Dh8++2yM58cHr19J8I5EeA+4O3ZQvfywA8L78mSFZiOQDpnkDlAIwW680BXNQSZ/QbAOYeXVX9IgJ+CTCy389aoIgPFsP98/lF7aJkcgDkALgQRADUVQYSasNmQ6cCWNgLWJVDBMoQ4DvKNsz0/zOAdcpUWOdADoAcAG9qsC6AM1rwEMLIgSt4g6vyiMAwAgzry+HyHN6ljiojY5Fz4w7N7h/WwsOPyQFIJ/N6BTBcBocd5Ryk3Vuwv8C/Aaw1rII6JgJeCGwC4ObMO/8T5G3XEic5AHIAaglOoos4cffEzG3TTQC4VbqSCLgjwAlyOS/F4Zr+V7qjmk+B5ADIAchBWncAwPX2o0b/vB/nduJb5QBaZewOgZcD4PpV78ozqnwML8qNR5TqE5ADkE7+9QqgvpzySm7J/b2M7RUnN9KRURIBcwK7AHgoU2WiN833g0rNCcgBkAPQXIrS3mFXALQBox4MPB/nRkK7pcWl3ERgOoH3Zhx4gzP8tSf39PZs8p8cgHQdiUYAmkjq9Gu5wVCuKwUYmGzP6dXRfyKQhgC3sfTsIY8qG0crGMZXATbCyokcgHT6IAcgrOwyYBnDCTPmxyi74fk4I60qiUAyAlQWzwoxqmxcSvOcZJS6lZEcgHQ6IQcgjm5xFdOlmdq2j8VBoruKwHQCuXb+xwJgdEKlOATkAMgBiCNZae86P4BDM3UCOLKpJALRCByYoWIwqM/20Yjoxn0CcgDkAPRloQ2f3Go4xwmCtNFKIhCcwCcz7PwvBvDU4CR0w2EE5ADIARgmFzkfezKACzK0e5/LGbrK7o/AxzNUAkb00yYa6WRJDoAcgHTSli4nvjb8YYb2j5shKYlAYwK5zfbnLH/OU2AMcKV0BOQAyAFIJ23pc2K8kNxWCWh1QHo5aVWO78vM870RAEMSK6UnIAdADkB6qUub4+YArs/MJn4wLSLl1hYCDPIzajmdx+OnA1i+LfAzrIccgHT6QtZKNgS4LW9ugYMULMhGVrLNlSEyGWXKY0c/rExHApgnW9rtKLgcgHT6IgfAVmcYOIhL7obZIo/HaMsVNthWZrLJnUvmGGfaoyDPLBPfyb0pG7LtLqgcgHQ6IwfAhy69JaN5AZwb9Qof2FQKrwS2zmhXP67RfbFXkB0slxwAOQAdFPvH5hzdnskD0wMAtuliI6nOkwkwDGYugS+uAbDh5CrpjIQE5ADIAUgobq6yWgfAfzJxAu4G8GxX9FQYcwJrAbg5EwE+E8Cy5sRUgJkE5ADIAZgpE136fzkAZ2ViQ28CwCBHSiKApQBclongMrjPAmozlwTkAMgBcCmYCQu1IICTMrGl3BhND1IJhcNjVgsBODsTgeUGHXN6hKgyPUZADoAcAKlCz0blspkQRyy0QVpHpXZuAL/MoPPnioQ9OtpGOVVbDoAcgJzkNXZZGTmQM+9nrlzy9v/PAXBZo1KHCDBM7jcyEM77ALy8Q+2Sc1XlAKQz9mSt5J/AdgDuz8DOHu0fpUoYksD/ZSCUnK36gpCV1r2iEpADIAcgqoBlevMtM1ldtV+mfFXsigR2APCIcweA62q1VKViwxqfPh8AGjv9xWdA1kr5EOAS61uc21xGC3xNPkhV0joEngaAT9be3kMNludWAFQYJREQARFoCwHaXi6/G7R13r7fK9vbFnGbXQ9ulPNf5wL4PwDrzS66joiACIhA9gTWBsAgZt46/sHyXAdgxexJqwLTCHB96jnOBY+RtJ40rdT6RwREQATaRWBNAFc5t8VcHqh4Ky2RO874/4FzgWNQitVawlvVEAEREIFxBFYGcKlzm3w8APYdSpkT+JBzQbsQAF9PKImACIhAVwgsA+A857Z57640Rlvryd3yPM/4vwDAkm2Fr3qJgAiIwBgCtH20gYPv4D19ZxA2LcUe04Cef+K7ptscCxf3H+AGGkoiIAIi0FUCSwO4yLGd5vLFNbraOLnWm/Gd/+lYqDjhj+/BlERABESg6wRoCz1PDDxXkwLzEtFjHXf+NwDg9sNKIiACIiACPQJcAcUleJ5eAQyW5XtqqDwIvNOxEDEQxjp5YFQpRUAERCApgacAYCyUwY7X0/e3JKWhzCoT2AAAozl5Epp+We4A8PTKNdIFIiACItAdAhsCYDTUvt309MnN2RjRUMkhgUUBXOFUcO4B8FyHzFQkERABEfBG4FkA7nJqyy8HsIg3YF0vDwM2nORUYOg1Pq/rDaT6i4AIiEAFAs8HQNvpaQSgXxYFCarQkClO3dOpoHAd6ctTAFAeIiACItAyAtsBoA3td7yePjnXTMkBgXUdv/ffwwEfFUEEREAEciWwl1MHgKMTnHOmZEiA+4Kf71RAvmjIRVmLgAiIQFsIHOrUxv8LwPxtgZxjPY5yKhinAJgzR6AqswiIgAg4IzAHgBOc2vqvOGPVmeLs4FQgzlTUqM7IoCoqAiKQhgC3dOc2vZ7mAfTLwrkKSgkJMIb+zQ6FgSF+l03IQVmJgAiIQFcI0O7TxvY7Xi+fDPAmu59QCjnE7qXx++VgoJ/1EzJQViIgAiLQNQJPdbrJ20+71hBW9d3dYef/oLaNtBIH5SsCItAxAlsCeMBhP/DmjrVD8uquBuBOhw3/puQklKEIiIAIdJfAbg77AY4Cr9rdJolbc84E/b3DRj8kbrV1dxEQAREQgSEEvuSwP/gTAPZVSoEJeAwIcTqAuQPXU7cTAREQARGYTGAeAGc4dAIUAG5y21U6g8Mq3jaH4LaVK1SqhU4WAREQAREISYCz769z5gRw87fVQ1ayy/fiRj+nOmvghwBs0eVGUd1FQAREwAmBZwPgROz+iiwPn78BwL5LqSGBtzprWArXexrWSZeLgAiIgAiEI7C3w35Ck8Mbtu/yAG511rA/aFgnXS4CIiACIhCWAJ+2j3PWV9yu18TNGtlb/Od/AnhisyrpahEQAREQgQgEFgJwkTMn4McR6tmJW77YWUMy/sDanSAfppIbAthff2IgGWgsA9QlpXIEngKA6/E9zAPol2HbckXXWX0C3PjBW8zn7fuF02cpAm90poR9ZdSnL+Oo9pjcHtQlpfIEXu3M9vxbG8SVbzyeebCzBjyyWvF1NgA5AJMNuzo/MSojA3IAqpvUrzvrQz5dvQrdvGIdZ0s6LgfAd0tK1QjIAVDnVqZz0zmT5UQOQDXbw7M5inypIyeAS8e1WdyEduRMTkbX82IUuLZ0kwll1s/DCcgB8CPHXvRJ5agnE3IAhtuYSUefBYAdrxe5+4NiA4xvsl0cNRaF5iPji6tfxxCQA+DH8HgxgCpHPZmQAzDG0Ez4iRORPcndThPK29mfubzuWkeN9WcAc3a2NZpXXA6AL8PjyQiqLNVkQw5AfXs0l7P9Aq4pXk/Ur1FLrzzIUefPfQfWbCnnVNWSA1DNyKtTFK9RMiAHoJnVYlx+T9vIf6JZddp39RoA7nfkALyhfYiT10gOgDq0UR2ajleTDTkAzc3Xbo76F/Z1esAcaNOTHTXOTwbKpa/1CcgBqGbk1SmK1ygZkANQ3w4NXvlD9TODOHx8f76jRuEchMV9YMm+FHIA1KGN6tB0vJpsyAEIYw6XcLZ1cOd3lJ0DwNmOHIBXhpEz3UWBgFzNPFaHW63D9cZLDkA4k/oqR/3NOQDYB3Y27eqoMfgaQikcAY0A5N3peOsEu1weOQDh7BLvdKKjfqezywLnA3CVk4bg5hErhpWxzt9NDoAcgC532iHrLgcgrDnlNvPcqjdkG9W915UA5g1bvTzutp+TBmDDvSMPZFmVUg6ADwNT1zDpOj/tJwcgvOnb01H/8/7w1fN9R060u81JAzDgT6ffw0QSFTkAfjoQdeZ5t4UcgPBGijb/r076oFsBLBa+in7v+Bkn4B8AwM2HlMITkAOQd6cjp8FP+8kBCG+feMf1HG0896k4VfR31+UA3OPEATjAH57WlEgOgJ8ORJ153m0hByCeWeQ2vR70424Ay8Srpp87f9kJ8EsAcCKiUhwCcgB8GBYPxk1laCYLcgDi2CjelRPwLnbSJ30xXjV93HkVJyF/HwWwtQ8krS2FHIBmRl+dpvj1ZUAOQFwzuSUA9gl93laf9wFYKW5Vbe/+dQeQ2bjH2mLoRO5yAOwNipUhU75h214OQHyT+QMnfdOR8atqkwN3ZHrIAeR7Aaxsg6BTucoBCNsJqFPtLk85APFNJ5+8PcxNexDAqvGrmz6HYxx0/jSi+6eveidzlAPQ3Q5LzkrYtpcDkMaEcia+B9k9PE110+VC74pL7qzhXgNgwXTV7nROcgDs5d1a35R/GBmQA5DGlD7RyWZB3C54hTRVTpMLPRoPxoB7DyilISAHwIfMe9A7laGZLMgBSGOzmMtuTvqqQ9JVOW5OXPfP9+7WRqDzOy/FbeZZd5cDYC/z1jqn/MPIgByAWeYl2gFGCDzLQX/FFQHsO7NPXNvowRBsnj3JvCogB8CH3HvQPZWhmSzIAUhr+7Zy0mcdnLba4XNjfOO7HMA8LnzVdMcJBOQANDP66jTFry8DcgAmGJsIP5/goN+6E8CiEeqW7JYfdgCRkw+flKzGyqhPQA6AOrB+B6bPZrIgB6BvVdJ9ctk6J+NZy+4+6aocNieG2b3eAcDsh1HCNkuyu8kBsDce1sZL+YeRATkAyczWtIy+4KD/4sq1eaaVKpN/dncAj68flsqEV9uKuWERc4FxF/QnBpKB+jJAXVJKT2BJJ6+ws3MAnwDgQgcOQGe2WEyvG8pRBERABFpPgCPI1iNZFwHg6oRs0rYOoN0BYIlsiKmgIiACIiAC3ghwBNnDRPYXeQMzrjynOXAAPjGugPpNBERABERABEoQOMhBf/bzEuV0ccraDrZW5NP/4i5oqBAiIAIiIAI5E+BIMpfkWb4K4HbFa+UA0UPY3wNyAKUyioAIiIAIZEHgQGMHgM7HYd5JMWiB9fuS2wEwAJGSCIiACIiACIQg4GEUgKMQi4SoTKx7vM+Bl/SxWJXTfUVABERABDpLwMN2wXt5pc+lf5cYOwB6+vcqHSqXCIiACORNgCPctxn3cRcDYF/rLnnYQIHBRpREQAREQAREIAYBD6MAW8SoWNN7/sDYM2Lc5mWaVkLXi4AIiIAIiMAIAksD4Fa9lisCvjOibGaHGTLReuOEo81qr4xFQAREQAS6QuCbxg4A+1pXIe4/YAyE3tj6XZE+1VMEREAERMCMwHoOYt2816z2MzLmhIRLjR2AX80ok/4VAREQAREQgVgEfmPc53F/ABdpc2MQfPp/oQsSKoQIiIAIiEAXCLzMQb/3TA+gjzEG4XZZhIfGURlEQAREQASCE/Cw4+1Xg9eq4g3nd7Au8q0Vy6zTRUAEREAERKApgXcYP/wy7g37YLP0OmMAN1oDMCOvjEVABERABCwJLADgJuM+8NWWAE41rvzHLSuvvEVABERABDpNwDow0M+s6K8A4GFDB+BBAMtZVV75ioAIiIAIdJ7A8gAeMuwHmfeyFq3wfsNKc+b/CRaVVp4iIAIiIAIiMEDgp8Z94R4DZUn29UzjSnMZhpIIiIAIiIAIWBJ4hXFfeHrqyq9uHAnpegBzpa608hMBERABERCBGQTYF11n6AQ8CmDVGWWK+u+HDSvL4f9PR62dbi4CIiACIiAC5QkcbNwn7lO+qM3PPN+4sms1r4LuIAIiIAIiIAJBCDzZeFT8rCC1KHGTtY07/z+UKKNOEQEREAEREIGUBPguniPUVn9PSlHZjxhWkGB3TVFJ5SECIiACIiACFQi82bhvTPIagEMNVh7OHQAYfUlJBERABERABDwRWBDAnYb94xmxYaxo/J7jiNgV1P1FQAREQAREoCaBrxk6AFwNwD46WmLAAaunf+a7abSa6cYiIAIiIAIi0IzAc4z7SG5QFC391rBy/wbALRhjpg0BbGnwt2jMSrX03gsVoaA58WXjos2eDoArRFYCsFhL6517teYu2mY1AOsB4J7mmwHYCADjiyypDb7cNrF0bnLTsI/6j2E/yf15oqTFjWMec51l7PR7o4aj06E0nAA7hFcCYOyJ7wBgBErOBSkzEnU/gAsA/LiIHbFL0ckMz0lHQxKYs3DM3g7giwB+AeAKAI+UbDsG+/odgCMBMOz41nIMQjbP2HtJ58bimfjjF0rKeBkbVvUc7pET5YFyJ8NKEcIzJmJvfoIcgOYMm95hPgDbFp3GuZHmnNBD/wYAOgRLNC2wrn+cANdC7wngRAC3RrAXdOjoFHwUwLMSjAg+XrGWf5HOhW1gymbVjjvk+TuGrU7vbscaVurKRMouByCG5JS7J4fxDzXYX5s7Wp5WLC+dv1xRddYAAT5tcGkuGXISUkhDNuleVwM4CMCaA+XR1/IEpHPlWVU5k68BrkqsC4O68vUqhS1z7hwAbjCs0GfLFDLAOXIAAkCscAt2uHxivMxQtgYV5xYAlDWT7TUrcPNwKt/Z/xDAAw7ajo7HHwG8PNGDggf+dcsgnatLrtp1hxjqBV+fBZ0vx4k6g4Yy9fdUs//lAFQT8rpnPxHAXgCuNZarUXLMTo0jXkkia9WFaHTdswGcbPC0P6qtZh7nnA+OSHAOgtIUAencFIsU3zixdaZspvz/aSEreYBhZf4b2psZA0YOwBg4AX6iUX43AD5pp1SGunlxQg09+UUC1D33W/D9/i8zaTe294UAnpc79ADll84FgFjjFhw1v8ZQXxixN1jizOu6RrTpdZxBnCrJAYhHmh7p3wzlqIkcckiNT5VBh9XioQ56Zw4Z7w/gvkzbjqMVXBbaxSSds231wwx15s+hqs5JPpwo1cSANrmWQ46pkhyA8KQZuvnwCsu/mshK7Gt/A2Dl8Ijc3pHLUxl/IzbX2PfnslEuR+xKks75aOnnGurOQwAWDoFhe8NKcAiFQympkhyAsKSfAuA8Q/mJ0bHcDmCHsJjc3Y0jHZyjwVcgMRha3fOEDgSIks75USf2XdcZ6tDLQqD4smEFvhqiAhXuIQegAqwJp74ewF2GshOzk+Gscy5ZnGcCgxx/XqoI2hOTn+W9GQMi1aTi1O0vnUtNfHJ+RxnaQM5fapwuNqzAKxqXvtoN5ABU4zXsbD49cimdpZFPlfevATA8alvSUwFwbX0qflb5cD4DRzbbkqRzflvyVYb6xBUxjdIKhoXnO4zUs6/lADQSl8eWXh1jKDMWHcr5AJZvhs3F1Yy0eVOH2o7zmtowL4Cz/KVzLlRoaCE4h459mYVt4khlo5gmDJVqUXDmycATaJ4mAAAgAElEQVQeqZMcgPrEOfHoFEN5sZJT5suJcjlHo3u+8T7mlm3HSIK5JulcHi3HGflWMs4Q/rXT0YYF5+YvqZMcgHrEucMbN3uxEnIP+TJeRY4rBLjJDmPse2BoVYb/qyf2pldJ54BcdI7LaK1kmyuwaqeLDAvOrV1TJzkA1Ynz/eO3DOXESrGG5fsvANw1M5dEHWvrRM1h7TPu2B65NFoRj0I61+tUc9A5y82B+IqyVuKWkKk39+grKN9Fplz+1wckB6BPovyn5daXfXnx9PlXAAuWx2d2JsMc/0+O2+NPZtymmBO2ckjSuelP1N51jvM0rKKfsg+v9VDCPditDOv3jLRQDkA18AzrayUjnvPlJjmeEycmXa62myW7XB0QNIZ6BCGQzg23Od517keG+lYrHoCll/mGCIpT5pZyAMpQ6p3D4eOuvzse54S8szzK5Gf+2NAYjWPm4Tc6RqlXH5UVAOnc8M6/Lzeede6thjr3mbICNnieVdx2DllYLauSAzAoAaO/00BeYSjQfYX3/EnnyOPTJN91e+bmoWzHjRZ9s1+kc5Pl1qvOUWg4QdhKtivvCzCv4dNd7UkLAVRTDkA5iDSQVsKcU76XAeA2rF7SRoZ6nVO7saxv89JoRTmkc+VsjjedGxQjq0n1fLXFVSOlE0NlWiksQw9bJTkAk8m/3FA2rGSySb4HT0aa5AxOquVkqSZ16dK1dxqORM4UCOlcNbn1onMz29EyLPDGMwsz7n/LYcLXjStY5N/kAIwHzK1h27A7XMqOjFHA1h+PNcmvfD+ast5tyOu7SVpmfCbSuepy60XnZrbsmwx18B0zCzPu/2MNC7r6uIJF/k0OwHjAnzKUi5w7lD8Va7fH043369IAblXb1XKAnhevWUrdWTpX3QGgrbDWuWGNy50arezY14cVaNQxqw2AbhhVoETH5QCMBr0agAcMBdhKcULl+5rRaKP/Yjn0GIqf1X0YaMYiJgmFQjrXrMO01LlhSs2gaVb7bfxzWIGGHVsYAINiWCjcicMKlPCYHIDRsI8wkgkLOYyRp1VHspIct8a2bMfRahH1F+lcs37ISufGCYXVfins00vtXLqFoaH/wDhyCX6TAzAc8nIAOJM0RsfYpXtuNxxv1KNfUrs1lttzDV7hSOfC2BsLnRun0NzjxsrmPWdcwfq/7WlYwM37hTD6lAMwHPwXDWXCSlli5HtO4o5kGQD3qu2CGNxa0dSGq1Opo9K5MB1lap2b1LhbGerjuyYVjr9/zaiADwLg9paWSQ7AbPp8JXS3kUzE6ISt70kDkCp9Qu0WpPOnzPwhVaMBkM6F6fz7up5S5yaJCfcJ4SqFftlSfnIu0MR0tlHhzpxYsvgnyAGYzfgtRvKQUjFS5vWN2YijHOGEoyvVdsEMLSOUplqhJJ0L20Gm0rmyisxRiZQ2p58Xo/uOTXMZvus9dGzJ0vwoB2A2Zz759AXI4+eNAM4CwLbjJzs9q0msZfhw+90UuwVaDjWW4cAVJZyk9ZdiyRbfs9/hXNY+Ols9ohyRzoW1Oal0rqwwMNhdGR0JfQ5fB3JnwpFpXaOCsaI7jyxVuh/kAExnzWVIVltCjxJ+TkY8GQCfkviOe1hiB8vJP/T8bzaU6VF1eP2wQgc+xrqPyt/q+KUAGKWNk5FGGaK1AOwL4AyHssfyc2QlZpLOxZHbFDpXVi52MdRN6tfI9FrDgtH5sE5yAKa3wAcN5WFmJ/UwgKMBrDC9iBP/47ySDwG43VFdfjax1M1O4F4eDGU7k6HV/+w4uZSuauf5DAC/dVQP8mOZYibpXBy5ja1zVWRiA0OZ3mFcQQ8wKhgnAM4zrmCJfpMDMB20F+PLIBbrTC9a5f+WBPATI/me2fFyUmVMeX+uk3ryVQyXPVXaiGRIy77SkQNHZzJmks7FcQBi61wVmaCDbjUR8CPjCmq149QF4wqV8Dc5AFOw5zOcDzLYYf4i4P7sfALl8LKHOQKbTaEO/m1/Bw4A37uGXIO9JgCr3dQG5fG04K01dUPpXJzOv99+MXVuqhXLfbvQSEfH7m/BjrgPK+Xn98oxi36WHIApxB4mkdEhHfWueKqk1b9Zxrro69XHqhe79BXWk8g42WiT0qUtf+ISAPg6oc/Q4pN1Y0cdI0nn4rZtTJ2rKg9WD9tcgTA00dBaRXvjMKGHJAdgqhU+bmxouRw1ZlyII43rR1mLkbh73P2GdeOkUc4lipU4icl6PseWkSonnYvrAMTSuTriwBUlFg7sPaP2tuAQm0WBmCf3u/aQ5ABMtcJJhvLACWyMYR8z8b20VcwLyvxtkSr3NMN2Y70YwS522t64ju+JVEHpXNw+KJbO1REHSxledViBX2qoVGsMK5DBMTkAU9AvMZSH/5sqRtRvlvtesLPkNr2h006G7cYthxcPXaER9/uNYT0PH1Gmpoelc3EdgFg6V6fdLR+4XziswFbvRTk702q7zZkc5AD0iPDpmCszqDCp/7gldKldq2Y2Xs3/uTwodR37+cXY+8JyAuD7arZBncu4HM8qRgWdj9BJOpdGD2PoXB1Z4Ct3q3063jGswIcYGcKJ4QmHFTbSMTkAPbBPMZIFdoyfitS2o277YsO6MphR6PR9o/pw3gFj2KdMfzWq6zURKimdS+MAxNC5uuJg9Qrys8MKzOhq/SeTlJ/HDCuM0TE5AD3wHCJKKQODeT0zcdtbBs2J4ewwgt4gz1TfuVwzdbIKmsORh9BxHKRzaeQ2hs7VlftvGukq46HMSozLncpYDObz/lklsTsgB6DHnlHbBtso1ffrjF4HWS3J+VIEUWfQpFTtNZjP2yPUZdItn2pUV9abSxJDJulcGrmNoXN15eADRvJ73swCM0CK1fsIRvnykuQA9FrizUaC+VMjQbBSRD4BhE5XG7XdxqErUuJ+tFsMODToiKT6PnQmdYkyjzpFOpemHWPo3Kg2nXTcyumjzkxLyxspEZXVwnBMq/zAP3IAejCsJoQeNtAWKb++ykj+j49QyVuM6pJq9v9MZFbBy9afWZCG/0vn0jgAMXSubtNzImsqh3VmPksNFnpTw4KEHkobrFfV73IAesQYmGmmwKT4/5NVGyzQ+S8wqu+pgco/eBur1RtN4/0P1qHK9x8BuMLgj/EWQibpXBqbE0Pn6soBlwGnsKvD8thosNDcIWjYSbGPzRqKGCyUwXc5AD3oVkvJmK9FYmS32LI+7P6/i1DZYfmkOBahKp26pXQujQ7G0Lm6gspXWIzMl0I/Z+YxLfjeXkaF4IQlT0kOQK81ZIzSKGUMYzRT0VP970mPcyyLdC5fnWsib1YbXL1zsNAHGzkApwwWwsF3OQC9RpAxytcYperwZ+bjQH2zLoJ0Ll+dayJ4vzTqez89WGjuxjdToVP8/5XBQjj4Lgeg1wgyRmn0QSMADpTeSRGkc/nqXBMROsKo7/32YKGttg/l8itPSQ5ArzVkjPI1Rikc92F5eNLjHMsinctX55rI235GDsC0hw+rTShe3YRchGvlAPSgyhjla4yGdc4pjkVQx07dUjqXr841EdSdjRwABv57PHGbxBRGYmYeXH7oKckB6LWGjFEafZjmhQdShJk6lur/QMXv7G2kc/nqXBOhfbZR33tTv9CMaW21qxYDEHlKcgB6rSFjlK8xStXhz8zHkx7nWBbpXL4610TeVjRyAB4BMBcLblUAGhCr4CGjGkwOQI+MjFG+xmhmx5zq/1E6pePlCEjn8tW5ci08/Cw+gKfS0Zn5LMMiMaLVzB9S/H/HcB6mR+UA9PDLGKXRCb0CMFV3V5lL5/LVuaaCdLdRH7weC76NUeZXNqUW4Xo5AD2oMkb5GqMUzvuwPCKoY6duKZ3LV+eaCupVRn3w1iz4TkaZ/70ptQjXywHoQZUxytcYDeucUxyLoI6duqV0Ll+dayqo5xj1wdyNEO8wypwRkLwlOQC9FpExytcYpejsh+XhTZdzK490Ll+dayprpxn1wW9hwa0CETD6oLckB6DXIjJG+RqjYZ1zimPedDm38kjn8tW5prL2QyMHYG8W/ECjzL/UlFqE6+UA9KDKGOVrjFJ09sPyiKCOnbqldC5fnWsqqIcb9cGfYMG/apQ5Bd5bkgPQaxEZo3yN0bDOOcWxJrrMCcEpyhgyD24hHTJJ59LIQIyVN03lgB1xSNkse6/HHsKtNgLaoym1CNfLAehBlTFKo5AxjFFZ5Q99XhN1lAMASOfy1bkmss9r32PkADy2IdDJRpm/vim1CNfLAehBlTHK1xiF7tjL3q+JOsoBkANQVs6anhfD6W4i+7x2V6M++CRm/mujzF/clFqE6+UA9KDKAZADUNXQNlFHOQByAKrKW93zPToALzXqg0+l0p5hlHnod2hNDFD/WjkAPRJyAOQAVDWwfR2q8ykHQA5AVXmre75HB4ABeerWp8l1f6KynmuUOXdB8pbkAPRaRA5AGoWMYYyaGIQm1zbRZTkAcgCayF6Va2PoXBPZ57WbGfXBZzPzS4wy37gptQjXywHoQZUDIAegilHluU2SHAA5AFXlre75Hh2ATYz64AuptFcbZf7YRgRNrEaEa+UA9KDKAZADUNXANlFHOQByAKrKW93zPToAGxr1wdQ73GSU+VpNLEaka+UA9MDKAZADUNXANlFJOQByAKrKW93zPToAaxv1wTdQaW83yny1JhYj0rVyAHpg5QDIAahqYJuopBwAOQBV5a3u+R4dgDWM+uBbqLR3GWW+QhOLEelaOQA9sHIA5ABUNbBNVFIOgByAqvJW93yPDsBKRn0wH/5xr1HmSzWxGJGulQPQAysHQA5AVQPbRCXlAMgBqCpvdc/36AAsbdQH8+EfDxhlvkgTixHpWjkAPbByAOQAVDWwTVRSDoAcgKryVvd8jw7AokZ98H1U2oeNMp+/icWIdK0cgB5YOQByAKoa2CYqKQdADkBVeat7vkcHYAGjPvhBKu2jRpnP2cRiRLpWDkAPrBwAOQBVDWwTlZQDIAegqrzVPd+jA8C+sG59mlz3CJVWDsCU6ZIDIAegiUJVvTaGMapahlDnT2lR9W9yAOQAhJLDSfeJoXPVJX76FaYOgF4BTDWGHIAeC40ApPHIYxijSQYw1u9TWlT9mxwAOQCx5HLmfWPoXHWJn36F6SsATQKcagw5AD0WcgDkAMw0nJP+n9Ki6t/kAMgBmCRfoX736ACYTgLUMsApgyUHQA5AKENT5j4xjFGZfGOcM6VF1b/JAZADEEMmh90zhs5Vl/jpV5guA1QgoKnGkAPQY6ERAI0ADDOe445NaVH1b3IA5ACMk62Qv3l0AEwDASkU8JTBkgMgByCksZl0rxjGaFKesX6f0qLq3+QAyAGIJZcz7xtD56pL/PQrTEMBazOgqcaQA9BjoREAjQDMNJyT/p/Sourf5ADIAZgkX6F+9+gAmG4GpO2ApwyWHAA5AKEMTZn7xDBGZfKNcc6UFlX/JgdADkAMmRx2zxg6V13ip19huh3wJUZBCDaezsDFf3IAes2gEQCNAAwznuOONVFgOQByAMbJVsjfPDoAmxj1wRdSac81yvzZTSxGpGvlAPTAygGQA1DV6DZRSTkAcgCqylvd8z06AJsZ9cFnU2nPMMp8yyYWI9K1cgB6YOUAyAGoamCbqKQcADkAVeWt7vkeHYDnGfXBf6LS/too85c0sRiRrpUD0AMrB0AOQFUD20Ql5QDIAagqb3XP9+gAvMyoDz6VSnuyUeavb2IxIl0rB6AHVg6AHICqBraJSsoBkANQVd7qnu/RAdjVqA8+iUr7XaPM92piMSJdKwegB1YOgByAqga2iUrKAZADUFXe6p7v0QF4n1EffCyV9itGmR/QxGJEulYOQA+sHAA5AFUNbBOVlAMgB6CqvNU936MD8EmjPvgwKu2njTL/chOLEelaOQA9sHIA5ABUNbCRVHLibWnQq5Y1xPmhJzFL59K0o0cH4KtGMvxxate+Rpl/f6Jqpz9BDkCPuYxRvsYoROdW5x7ptbWXoxyAZrJKXbdIdKDqyFnTazw6AMcZsXg/G/7tRpk/NgPRQvLG5CkHoAdHDkAa4xTDGDU1kHWvH6NWUX+SA9BMVuUARBXPUjf/jVEfvBtL91qjzM8qhSbtSXIAerzlADQzqmU7UTkAzfVbDkAzWZUD0FwGm97hH0Z98A4s+DZGmXPij7ckB6DXInIAmhlVOQDpNFsOQDNZlQOQTlZH5XSVUR+8NQtktRHBnaNoGB6XA9CDLwegmVGVA5BOieUANJNVOQDpZHVUTvcYOQDrskDLG2VOIznPKCJGx+UA9MDLAWhmVOUApFNgOQDNZFUOQDpZHZbTfIb979Is0NwAHjUqBJ0PT0kOQK815AA0M6pyANJptRyAZrIqByCdrA7LaUWjvvcRAHP2C3SLUSE27RfAyaccgF5DyAFoZlTlAKRTaDkAzWRVDkA6WR2W03OM+t4bBwtzkVEhXjNYCAff5QD0GkEOQDOjKgcgnTLLAWgmq3IA0snqsJx2Nup7/zlYmD8YFYJBiDwlOQC91pAD0MyoygFIp9VyAJrJqhyAdLI6LKcPGvW9vx0sjNWGQNyHwFOSA9BrDTkAzYyqHIB0Wi0HoJmsygFIJ6vDcjrCyAF4bCOgfoE+Y1SIn/UL4ORTDkCvIeQANDOqcgDSKbQcgGayKgcgnawOy+mXRn3vpwYLs6dRIaa9hxgskNF3OQA98HIAmhlVOQDpFFgOQDNZlQOQTlaH5WQ1/+4dg4XZ3sgBuGuwEA6+ywHoNYIcgGZGVQ5AOmWWA9BMVuUApJPVmTk9AYBVEKCXDRZmEyMHgIZyicGCGH+XA9BrgA8byQP3xbZILzCqb4wNsR40qgvjiVik043qy+VbIZN0rpkjU9bpjqFzdeVgGSPZJStGAH48LWdYkI0fL4X9FzkAvTaweiV0mJEIvMpI/o+PUF+rmB6LR6hLmVteYNR265cpXIVzpHNpHIAYOlehmaedavngveRgSTgUca+RIvH1g5ckB6DXEm82koWTjQThA0b1/UaE+lptLGLhyNNu8TVi2ae/kOetGrjtpHNp2jGGztUVhVcbye7QfXj+ZVSY99elF+E6OQA9qFZPxNcBmCNCu0665XFGsv+lSQWr8Tsn1obs6Mrea9qkohrlrnPJOkZ1JZPQry6lc2nkNobO1ZFdXmP14HHusALz6aussoc872vDCmN0TA5AD/wLjWSBcvXMxG0/LwB6xCFluuy9Ysx5OMOoLr9I3G7M7kNGdeXeKaE3MpPOpdHBGDpXV/S/ZSS/Q1+DHGJUmL/VpRfhOjkAPahPMZIFdpwHRmjXcbd8iWFd3zKuYDV/+75RfTj5cNGaZa572ZlGdb2mboHHXCedS+MAxNC5Mc069qezjeT34GGl2sOoMHcbDfsOYyAHoEeFM7qtZpPfAGChYY0T6RifXMs+sYc+b/MIdbJawkk2e0eoz6hbcgKV1S6mvxlVqAbHpXNp9DCGztVpdu7EZzXv7u3DCmz5JLTGsAIZHJMDMAX9EsOO8WNTxYj6bUvDOrLDfGw/7sA13MmwTrcBSLUagLHMQztkZe93eOA2699OOhe/TWPoXL/9qnw+2VB+txlW0CcZFugVwwpkcEwOwBT0kwzlgTO7V54qSpRvfIdrNQTHjubWKLUCNjJsN9br0Ej1Gryt1YS5voOw12BhAn6XzsV1AGLpXB0RsAq+RxleZViBOSRxn5HxYBAMD0kOwFQrHGAkC30jew6ABaaKE/zbUcb1YwS7GGl+APcb1o3D8hyFiJXWBnCHYf0on1tEqpx0Lq4DEEvn6ogDRzn7ti7lJyMPjlxpdb5RoThxyUOSAzDVCtbD41QKLs+jYxo6WQVdGVT0j4au1MD9rOS4Xz++2+Q7+tCJS+8uM7JRg3XjypEYSToXt1OMqXNV5cFq6TFHPUemHxopF6N5eUhWhpOK7y3RyFlNUukbW35ykl6o2eUMHLOv4eSxwXqFDiU7KD9WTxeD9eNrnFcOFqrh9zUBWG2cMlivmKFkpXNxHYCYOldVvC806mu/M66gVjOIOeM89LracfUc9ZscgOlkfm0kpIMGl98ZpGq96UWr/N9SAE50Uh92jjFj53Om80yGFv8/AoBPXU11m+/8rYf9+/w+WFnyql0gnYsju7F1rkor09F7yEhHx75uf41Roahc61YhGOlcOQDTwe5nKA99g9v/fBgAg0atOL2IE//jPAIKvZcOhPWJHfKYHa6n+l4OgLaFIzBV0qYA/uBIBtl2T69SgRrnSufiOACxda5KU29gKNNjQ+9bhtZ8XRWCkc6VAzAdLGeL8imu3wl7+OQEt1MAvBXAstOL+/h/TyyGn78JwGpznHGsdn68pPG+0FkaVwaL3+gIfA4ARyjmGlF12iA+Zf/VyauaQU5cphc7SefiyG0KnSsrG7sY6iYDTo1MVEqrlQAeYjRbOQCMzcy8U/+9aKQkTP1gtd/6oOEd9/3GYjkfy3kWgP847DgGy8+wwzFXN/RbzsOEssF6z/z+QPFOnx39nwCcZ7ixz8yyjfr/I324kT+lc2GdgFQ6V1YsGEdilIzFPF4q6N7fjQpH422drByAmI0+7t5vLAHcapeyceXO+bevl2Ae4hQOt//bSJdzbp9RZefyxtVDNEyJe0jnwnaQqXSuRNM+dso/jPTyL2UKeIxR4TgpYsEyBYx4jhyA2XAXBkDPcZRh1PFqbFKu+Pi42i2Y3KZcQy6dq6ZTk2xQSp2bbUGnH2EfZzUB8IjpRRn+n9WeAGzEWAE2htd09lE5ALOZ8Mjn1ZEE6Ui4BrfqRLjhLVLuKMOeMvDHJAOp3yczYqj0lEk6N7lNyshtap2bJCPPM9THUlt2Wy4h4gxYyyQHYDh9TrbzEBOgjMJ7Psci5DVD83pmkkPZOGSb0nGjFkrnwsithc4Nt6K9o5xHYiXzzx5XsP5vHH6ymvnNWNiWSQ7AaPpWE1eslCV0vv8cF4JzNPbGv3DZJCfcha5Pl+63Q+NWqHcD6VwzubXSuXGtzRVMFrrDPr30LqtWUYpuMvC0BxtLDsAgjenfuTzJMsa8hdKEzHPH6TiT/vdVI6MTkp/VvRildGTs9MitKJ1r1lla6tww0eAoktWy5ErRdrl+2krhuCuhVZIDMJ68JpXV0wsGs0k9hDzYkoyhT+faSqdzznfrQZAG36Vz9eTWWueGiQo3srLSBU7uL53eZVhQBkmwSnIAxpPnTnNXGMqGlfI0yZfD71R86/Q2tVtl4/tt60YDIJ2r3ml60bmZ4rOboQ5S/0unZxgWlO+9rJIcgMnkGTyoSYfYtWsPnIw0yRkcxuY64K7xr1tfhlJePknLTM5EOldNbr3o3MyWtVpiTx3YaGZhxv3PWOJW73srvasYV4kav8kBKAeN2zfXNaxduo6hY61jWwy2KGOQW0X6zK3d3zIIzsF36Vw5m+NN5wZF52Iju8kVXJU3H2OITgulZcStFQapJfwuB6AcbMbatxJmC5mskyc72kpedzn0jc96p5Fe12FodQ23RfeWpHOT+yOvOkdZ4oROK3k+vY4wc9MOqwKXCVFbp06TrpEDMInQ1O/rKzbAWP2o9M5tCmuSb9811G0rm1I238sAcCm0xySdG98neda53Q11rtYrke0MC8zhLoskB6AadUaWKmtYu3Te96phTH42O7hL1XazZJdDpXxN4jlJ54bbHO8692NDfXtpHYFe0nBXtZuN1t7KAaguKZYjRR6dCk60S7HbX/WWmn7FGgCuNzRK3truYQBj90qfjs/0P+ncdCfAu87Nabj+nwGAFq8rrVYBgWgcuBIhdZIDUJ0417d/Qx3JY0+TjDy2WHWEZldwSPk2tR0478jbpL9xQiGdm3IActA5huC1cni5zXbtdJRhwVPtvT0IRw7AII3y3znD9OeGsmKlXIP5/hfASuWRuTlzK8MVP4P8LL9/2E1rlC+IdA7IRef2N7SNXykvUrPPfL1hwf84uzjRj8gBqI94XgCW77ksOxAGR7KMYFm/1XpXcoeyOw113bLtDmoKz/B66Zwh/ApZn2GoW6+tUM5ZpzIQhpVycs/kRWaVKO4BOQDN+PJdl+WokYWs/h0At93NPfGV242G+p667fjOnzOzc0/SOd8tuCgAylpq+WZ+fLXFXSUbpYuMCs8KcCVCyiQHoDltvp/kshMLgU+d568AcH12W9JaAP7TgbbjbH9v28Q2kSHpXBN6ca99laE+nR+ial8yrAB3MUuZ5ACEo80Z1W2dYEbP+tA60bXC4Y12J67++Zmhzsd24hgpbsNo9GxvLJ2z5T8sd8sR0S8OK1DVY680NAZcppRyK045AFWlY/z5TwbwD0P5idGZcFe9l4yvdva/8olyLwAPtqztjgfAIdk2J+mcn9Zl33WdoQ7VWv8/E5/lOwwa8M1mFiji/3IAwsOdD8Bhhu/BQjoBHPK3ClMdvmUm35G6x8h4IRla3Ov2zJb5TW6Z8WdI58bzSfXrloa6wzl0wSJa/s2wIoekai0AcgDiwWZc/Fx3o6MXv2s8NK7vzOVm+2a8idDJAFZ0TThe4aRz8diWubPl6/Na8f9HVcpyHeM1ADgkmSLJAYhLmUNibwfAYXSLJ8GqeXJf8c8DWCgulizuzsiB7EyrMrQ6n7uK8gms60k6ZyMB5H6tob4EjW2xiWFFaECelagN5QCkAc0tcvmOmc6dVQcxLl9uhX1kh58cx0kBJ9AdZxgmfFy78TdGPuNoDZfHKU0RkM5NsUjxbXNj2xZ0J1J6M/8zrBCfwlIkOQApKE/lwXeV7wLAmdmTDHuK3zkywcAwbVjXP0U5zjeGEeYGLNyCNUXbjMuDqzJ+B4CTnlKNFsahGv+u0rn4jJkD5z2Nk9mYv/GVZXA9+JZhha6OUaEhciAHYAiURIc2LpbW3ZBYzvi0z6HtHQHMk6iubcqGwbr4xH2awagAYxbQYePrCaXqBKRz1dZlD5YAAB2NSURBVJmVuYKdL/usmJ38uHt/rUwhq57DkILjMo39G19DxE5yAGITnnx/dsIvAvBZAGcB4G5WoWXr8iJiIWW67cvCJhMPd8ZqAN4J4EeR5nkwgA8djQ8CeHq4Ynf+TtK5sCLwnAg2q4oNZPCh4Im7nHFpQZWChDyXHULsJAcgNuHq9+dWli8vjP43AfwVwK0l5ZAdxrnFO+tPANgZwCrVi6ArahDga0POF2C4XW5fe0qxpLCsDeFGL78BcHgxX2QLAIx9rxSfgHSuGeMvlLRPIfvH/r0YuyNaCP1fG1bsygSvAWiwOHO4K3+N40Q305NGVy9QvKtfHQCHMp9bfDIQCvewCLYGtlEpdfFMAhwe5cPEygCeCoAje3xi4pwCtiV/49JDJX8EpHOT24TyfZVhP/nLyUWsf8a7DStGD+eZ9YuuK0VABERABEQgKgEGz+o/jVt8cpl1tMQoaJxxa1Ex5smlWUoiIAIiIAIi4JHA1w37R86XWi42lDMNK3hXy3Zfi91Wur8IiIAIiEAaAtwZ9E7D/jFo9L9RyDgD12oEgPm+YVTBdFwEREAEREAEjAjsZtw3vj9FvblnuKUD8McUlVQeIiACIiACIlCBwJ+N+0ZOok2SuLTK0gmgE6IkAiIgAiIgAh4IPMV4fhw37EuW9jN2AA5MVlNlJAIiIAIiIALjCRxs3Ce+b3zxwv7KNbyWqwGu11rhsA2qu4mACIiACNQiMBcAxt+3GhVnX8w+OWmy3tt926S1VWYiIAIiIAIiMJvAdoadP50Ok3lx7zGu9Amz20FHREAEREAERCApgZ8a94XcUTV5YrjVhw0rzpjH0YMeJKeqDEVABERABHIhwOB4Zfe3iPGKgHkvYwWLcYdjVKrsPbnBi5IIiIAIiIAIWBD4tHEfyK3MzdJOxpW/BcCCZrVXxiIgAiIgAl0lwM2RbjbuA6Ns/Vu2QecDcJsxgLeVLazOEwEREAEREIFABPjuvexodYzzuC26+RbZRxtDuAQA9x5XEgEREAEREIEUBLjt70XGfd/hKSo6KQ/r7Q/pWb14UiH1uwiIgAiIgAgEIvBy486f/d6mgerS6Db0hPgUHmOIo+w9T21UA10sAiIgAiIgAuUJ/Na4z/tX+aLGP3MfYxh0FDaIX03lIAIiIAIi0HEC6zvo7xiHx01aEsD9xlC+5oaGCiICIiACItBWAt827uvY17LPdZW+7wDKsq6IqDAiIAIiIAJtIsAAeA8Y93V0QNylrYyh8DXAx91RUYFEQAREQATaQoA70ZadmxbrvOd6hXmhMZzbASzmFY7KJQIiIAIikC2BJQDcadzHcekhJ967TNYbBNHjOsAlGRVKBERABEQgZwIenv738AxwIQB3GHtIzH9xz5BUNhEQAREQgawIeHj65+jDwt6pfdnYAeAogDYJ8i4lKp8IiIAI5EPgIAf92iE54FoTwCPGsO4CsFQOsFRGERABERAB1wS45M763f+jAJ7smtJA4X5l7ABwFOBTA+XRVxEQAREQARGoQ+BgB/2Z6ba/VaG91AEwemzugiVUBanzRUAEREAEzAgsDeBuB/3ZNmYEamTMZQqMVRxrHWTZ+3LWppIIiIAIiIAI1CHwOQf92Pmel/6NgrqbA3D03OjBKaUnsGGxJJPLMvUnBpKB+jJAXVJKT4DzyDifrOwDZ6zzdklf9eY5zgvgOgfw6MEppSfwRgdtH0shdV97o9ilNqAuKaUnwFn31nL2XwBzp696mBz3cwCQcZu5MkEpLQE5APbGw9p4Kf8wMiAHIK3tYm5rOIj5T/15X/qqh8uRQQsYntfaEBwfrkq6U0kCcgDs5d5a75R/GBmQA1DS6AQ87acO+i0GtVskYJ1MbvV5ByBpiLYwqX13M5UDEMb4qxMVRzkAae3o85z0WQw+lH3iFr33OgD6DwBzZE8znwrIAVDHJecljAzIAUhn9+YEcJ6D/uqeNk1g9xAemMboTenkqPM5yQEIY/zViYqjHIB05nR3B50/df4L6aocP6eVnEyo+F8OmynEb44kOcgBUMcl5yWMDMgBSGKywM3srnfgANwPYIU0VU6Xy1EOwNIgaaOgNG0uByCM8VcnKo5yANLYrM846aM4Yt66tAqABx0A5nwElkUpLgE5AOq45LyEkQE5AHFtFe++GoD7HPRP7CNb2z8d4wAwjdJ348tT53OQAxDG+KsTFUc5APHN6Y+c9E2Hx6+qXQ4rA+D7DWujxq0VudRDKR4BOQD2cm6tZ8o/jAzIAYhnp3jnrQCwT7CWV45ArBi3qvZ3P9QBaDb0pQDms8fR2hLIAbA3KNYGTfmHkQE5APHM5PwALnfSJ3UibD03WOBWvR6MgyYExlMsOQA+ZNyDnqkMzWRBDkA8O8VgOx7kk5sOdWbjOm7T6wH6QwC001Yc5ZID4EPGPeiZytBMFuQAxLFR6zuZmE79+HicKvq862IAbnXiBPxFEQKjCIkcgGZGX52m+PVlQA5AeBPFiH9/c9IH3QJg0fBV9H3HfZzAp5K9yzeqLEsnB0AdWL8D02czWZADEN4EvsdR/8OydC7NA+AKJ43AOQmtn32ZWMLkADQz+uo0xa8vA3IAwhovrkbzMg/t3wDmDVu9fO72OicOABXtlHywZVFSOQDqwPodmD6byYIcgLAm7yRH/c6rw1Ytr7s9AcDfHTXG9nnhc11aOQDNjL46TfHry4AcgHCmjh1un6v1J+cgsA/sdGIQBuuG6Od/HYAlOt0a4SovB8CPXPflW595tokcgDB2aUknm/309XDzMNXK/y4nOHICWBal5gTkAOTZ2fSNkz79tJ8cgOb2iHc4zlE/w7IoFQRWd7IRQ9/ovUkt05iAHAA/HUhfrvWZZ5vIAWhsjvAWR50/N6RbtXmV2nWHTzpqoLsBrNkuvMlrIwcgz85GToK/dpMD0Mx8reFo1j/1a/9m1Wnn1QsAuMqRE3AmgLnbiTpJreQA+OtI1Lnn2SZyAOqbrLkAMNibF9m/GsCC9avT7it3dtRQFJiPtRt31NrJAfBjdLwYP5WjnkzIAahvqhhi15Pc7Vi/Ku2/kksi/uCowbhXwDPbjz1KDeUA+DI8noygylJNNuQA1DNRzwbwsKP+5Lf1qtGtq9ZxtEEDDRWjFS7UrSYIUls5ANWMvDpF8RolA3IAqpukJxZbvo9imvr4AwDWrl6Nbl7hZbfAvpAc081maFRrOQDq0Pr6o89msiAHoLop+qajJ3/Kv7aer9CGnBB4pbMG1LubCg0IQA5AM6OvTlP8+jIgB6Ca7dnJWd/BUeT5q1VBZ7/IWSPeBYCvJ5TKEdigmETJiZT6EwPJQH0ZoC4plSOwlrMlf3TiXlqu6DprJoHjnTkBF2o+wMwm0v8iIAIi4ILAwgAudtZnKOJfA9FYFsCtzhr0RG3g0KBFdakIiIAIhCfAFWQ/ctZX3AJgmfBV7dYd3+ysUTmks3e3mkC1FQEREAHXBPZz2E/s6ppYRoX7pbPG5drSF2TET0UVAREQgbYS4I6yjNnSnzTp4fPXGikOJ26rOJzYcQOAFcNVUXcSAREQARGoSGAlADc66/y5lww3uFMKSGAPZ41ML/MMAPMErKNuJQIiIAIiUI4Aba+nOP/9kYd3lSu+zqpCYA4ADKXYh+zl88tVKqFzRUAEREAEghD4qsP+4I8A2FcpRSDAPZTvcNjo3GtaSQREQAREIA2B3R32A7cD4OtqpYgEdnPY8A8C2CZinXVrERABERCBHoEXOpz0xxHpN6iB0hDwFiCIjX8ngPXTVF+5iIAIiEAnCTAa620OHwIZH0YpEYGlAHAWvpd5AP1yXKOVAYkkQNmIgAh0jcByAK5yaPe5CkEBfxJL43YOBYGOwFkAFkzMQtmJgAiIQJsJcHvfcxza/EcBvKzN4D3XzeMsUDoBPwMwp2dwKpsIiIAIZEKAtpRD7P2RVk+fh2XCsJXFnA/AeU4F44hWElelREAERCAtAXaynjr9flku0Da/aQVhWG6cFHKvUwHZa1iBdUwEREAERKAUgfc5te33AVivVA10UnQC73QqJNwzgHMVlERABERABKoR2B7AI05tO+MQKDkhwK0gf+JUUO7XxkFOpETFEAERyIUA46rQdvaH2z19/jAXiF0q50IALnYqMPcAeG6XGkN1FQEREIGaBJ4F4C6ntvxSAAvXrJcui0yAgXi8zgdgCOOnR66/bi8CIiACORPYEMCtTjt/vvffKGe4XSi7xxjR/eErRrCigCuJgAiIgAhMJ7AugJuddv604W+cXlz955XANx0LESMYruUVnMolAiIgAgYEngTgOsd2+2gDJsqyJgFG4vMaH4CeJMNZrlyzbrpMBERABNpEgDvoeQzx2x+5PVvr/fMTN24dfJNjj/IyAIxtrSQCIiACXSWwNICLHNtpvpJYrauNk3u9uZSEa/H7npy3T0aSWjJ3yCq/CIiACNQgQNtHG+jNLvfL8xCArWvUS5c4IrCPYwGjoF0IYAVHvFQUERABEYhNgLvnne/cNr8nNgTdPw2B7zsXtH8DWD0NCuUiAiIgAqYEOP+J6+n7T9oeP79rSkiZByWwQLFNr0dB65eJk2DWDFpr3UwEREAEfBGgjfM84Y/2+ExN+vMlNCFKwwl3/3Xudf4PAIMZKYmACIhA2wisDeBa5zaY5VuxbeBVnx4BRnG627kAMgrWpmowERABEWgRgY2dr8rikz+jyD6jRcxVlSEEPO8w1X8dwDjYWw0puw75JTAfgC31l4QBWSvlQ2AzAAyF3rdvHj+566B2bs1HphqV9EPOhZEKwg2EuIxRKQ8CjDvh0bC1sUxkrZQHAT7IeN3YZ1A3uFpMqUMEjsnAYHPzCXmleQilHIB0DpAcgDx0gqOtXrf0Hez8j8gDp0oZksCcAE7MwAl4FMD+ISuue0UhIAdADkAUwcr0pnsB4LD6YEfr8fspAObKlLGK3ZAAlwf+JQMhpeIcKUFt2NpxL5cDkM7YawQgriw3uTsfrA7LxKb+HQD3jVHqMAGGo/QelKLvOf8SwEIdbivPVZcDIAfAs3ymKBs7059m0vlfAYDRCJVEAE/OYIlK3wk4S5sIuZRYOQByAFwKZqJCLQ+Au+b17ZTnzxsBcPthJRF4nMAGAG7LRICvAbDh4yXXFw8E5ACkM/56BeBB4qfKsG4G0f36DgmXIzImgZIIzCLAddyced8XFs+fXFrzklk10AErAnIA0umNHAArKZ+d7wsA3J6JzWSgny1mV0FHRGCKwCsAcBtIz51/v2wPAthtquj6ZkhADkA6nZEDYCjoA1nvnpGtpE3fdqDs+ioCIwm8PpMlLH1HgCsE5hlZG/2QgoAcADkAKeTMQx5cNndQJg9JtJFcSv0mD+BUhnwI7JmRgFPIzwCwQj54W1dSOQByAFon1EMqxI1y/pqRbWTn/64h9dAhEZhI4L0ZCTqdgJsAPH9irXRCDAJyAOQAxJArT/fk+/PrM7OJ+3oCqLLkR2DvzAT+YQAU+ifkhzrrEssBkAOQtQCPKTxtCSP7cc5R/7VjDp8fHlMn/SQCpQkckJngUzlPArBI6RrqxKYE5ACk6xzIWikNAQYe+1GG9u9jafAol64Q+GSGSnAJAK7RVYpPQA6AHID4UpY2h7UA/CtDu/e5tJiUW1cIHJihMtwJ4NVdaSDDesoBkANgKH7Bs94pk218Z76K+HRwErqhCAwQ4Pv1mUKXw//Hah+BgVYM/1UOQDq90CuA8PLbvyOH/LmsOAebNrOMXJqoJALRCXwgUwW5EsBm0el0MwM5AOk6DTkAcXRsUwCXZWrbPhoHie4qAsMJvD9TRWFELHrKcw+vlo7WJCAHQA5ATdExv4yBfTiymdss//4IwIfMCaoAnSTAYEEMNNEXxJw+/wJgjU62WpxKywFIpwcaAQgnw2sC+FumNuwRBfkJJwi6Uz0Cr8vYc76nWN9br+a6apCAHAA5AIPykMP3XTOd6McHLcY7UXjfHKSsA2XkJhPcaSqnEYDBsv4EwJIdaKeYVZQDkE7+NQLQTJIXBfD9jO3V/QC2b4ZAV4tAWAJbAeCSu8GONafv1wHYISySTt1NDkA62ZcDUF+1dswwnO+gHb1DW/rWb3xdGZfA04t4/IMCm9t3RhDkhh9K1QjIAZADUE1i0p69MoCTM35AoR29EcDT0mJTbiJQjcDqAC7NXNE4N4CzguesVvVOny0HQA6ARwWYA8DumY9OsvO/AsCTPQJWmURgJoElAPw5cyeASncOgI1nVk7/DyUgB0AOwFDBMDy4fmZb944aLT0TwNKGHJW1CFQmsGALhtyokIwbcCgA1kdpNAE5AHIARktH2l/mB7A/gAda8BDyK0UwTSs8yi0cAQ6hf7UFStgfgntBODStu5McADkAHoR6CwAXt8TmfA0AgxQpiUDWBPYDwKAVo4a4cjnOoEc/ALBK1q0Rp/ByANLJN1krTSewGoDjWmBjaAtpK/eZXj39JwJ5E+C61btboqAcWuRrgYXzbpKgpV8WwO/1l4QBWSv1CPDVHIf772uJbaGN3E6NKwJtJLABgKtaoqj01G8qIglqtUAbpVV18kyAs/sZye/6FtmTazXp2LPIqWwhCCwPgLNacxn2L1POfwF4cQg4uocIiMBEAlsDOLdlNuQfAFaaWHOdIAItILBA5qE4RzkFJwDg5iJKIiAC4QlwHTwDdY3Sv1yPfwcAVy4oiUCnCOxdbGqRq+IOKzfnB3xR63Y7JceqbFwCywA4JONNx4bZCR7jEuP3xkWnu4uAbwJctnNDC716TubhREFN2PItfyqdXwLcoIsT/Bj/flQnmuvxmwE83y96lUwE0hHgu6+/t1DJaZzkCKSTI+XUDgJt7vhpE/i+n8sWlURABAoCnBfwrZY6AVT6uwB8GgDDJCuJgAjMJsCO/6BCV3J9sp9Ubgb30fv+2W2vIyLwGAEu7eFmPJMUKdff6Qjw1QDfayqJgAj0nGIO9d/eYr1nnIK3qrFFQAQmE9gQwGUtNgZ0Xvhe81MAlpuMQ2eIQCsJcEnwgS3YqW/Sw8glANZrZQuqUiIQicAiAI5vuRNAw8FVA98EQKdHSQS6QGAjAMe2ZLOeSZ3/D7WZTxdEWnWMRaDtrwQGDcjpAHYEoMiCsaRJ97UiwMh9nPV+MgDuqTEo9238ziH/vaxgK18RaBOBtVsY+Wuc0bu8MB7agrhNUtzNusxbhOxltMxxMt+m31hXDfl3U95V60gEOHP28A4ZERpErhXmPAG+K1USgZwIUGa56uWWDuksRzYOAzBfTg2lsopATgS4U9aNHTIqdAQYMYwhUF+h/cFzEtXOlXXuQkZ/Wshsm57qJ9WFwcxe1rkWV4VFwIDA0gAYd3+SUrbxd+5+xmWE6xtwV5YiMIzAU4r1+//rqE7+XKt5homFjolAXAKcMHdrR40OnZuzAOyuWcZxhUx3H0qAr+Sof6d1ZFLfsIcJLuWl/imJgAgYEVgVwO867ATQMN0J4BgAzwHwBKN2ULbtJ0DZ2gwAo9kxoNWwTrErx34LYJX2N7lqKAL+CXCJ0R4ySo8Z5KsAfAHAs+QM+BfcDEpI3Xp2IVNXd7zT7zvb7wZALkoiIAKOCHA04FcyUo8/mf23mC/A9ddzOWonFcU3AXZufNLnXJNrpE+P69Mv9dTvW3BVOhEgAb6b5BK6rgxHlqnnTUX0tW3lDEhJhhAY7PSvle5Msx23Fe/69XptiODokAh4JMAY+z+WIZtmyPqOAlcSHAlgBwCLemw8lSkJgcUAvArAUQAoE3350OcUi+MALJukNZSJCIhAcAIvBfBvGbeRxv3hYjUBt2HlqwKu5VZqJwGGmN4YwL7F7P0HpRcj9eIKAC9upxioViLQLQJcssTtRu+XwRtp8PpPfZzdzXjtXN7EORVKeRPg0yv30+CTbJeXzPble9InnSLOfVAY7rzlXqUXgVkEngrgD3ICJjoBg0byomKI+I0A1tLKglky5ekA31Gzjd4E4GgAF0vWK8k6lxOTn5IIiECLCXAi3H9kHCsZx75TwOAnDP7CERVy1BwCO0XhUypn63PXOT7hc6Jnv530WZ4FVzpwlEST/OxkWTmLQFICNJ6fAMBtO2Us6zPgPgXnAPgygF0AbABgnqQt2Y3MyJRsyZis/wGA8zcku/UZ3AvgAAALdEOEVEsREIGZBFYslsfJkNY3pDPZ0SngJCrOJeDkQj5drQOAk9CUJhPgTnocXeFkvWOLSZqavxJOPimvlM3VJjeFzhABEegCgS0AnKknqqhPlHzi4v4F3wTwgSJewyYAlumCgM2oI+vMujNmBVmQCdmQ0UyHSv+HY/JXAJvPaAv9KwIiIAKPvQPcCcCVMsLJOyF2fBcC+AWAIwB8EADbgmFo+UQ8b0byybKyzNybYeeiLqwT68Y6qpMP16GXdY44IvUavefPSItUVBEwIkADvreWTSV3AiYZ87sBcK8Dvv/mRMQfAPhKMZfjPcWrBsZ9YDwDTo7jmnf+PRnA6sWQL4Pf8G9wmRe/949zWJjn8pr+9bwX78l783UG8+L8EebNMvy6KBPLxjJOqod+T8foFgDv1bwUI0uqbEUgYwILFe9hOfNdRlsMJAP5yAAdMc4/oWOnJAIiIAK1CSxZGBMN3ebTAaiz7mZbPVCEuVb43trmTheKgAgMI8AVA4yhrxCq3exc5FT4bXd2/IcDWGGY4uqYCIiACIQisHIRLlQjAn47BHXW3WgbdvxcKrlGKOXWfURABESgDAEu5eJ7xns0R0BzJCQDSWWAcRE4Gqcn/jKWSueIgAhEI0BH4GAAmizYjadOjS7YtfPtAA4EsHQ0bdaNRUAERKAGAa4aYFz2q/U0mPRpUB2yXYeciv31xf4T2nuihmHSJSIgAukIzF2sF79AjoAcAclAIxk4v9iaer506qucREAERKA5Ae4u9iIAPwfwiDqCRh1BqidN5WM/mkBdOQXANorc19wI6Q4iIAL2BDhLmRMGb5UjIEdAMjBUBu4sJvY91V5dVQIREAERCE9gYQB7ArhIncDQTkBP4PZP4KnbgLpAnaBuKImACIhAJwgw1jyXMmkZYfc6vdSdrLf8uIzvuGKPBb4qUxIBERCBThJYAsD7NCqgEYEOjApxN0RuprR4JzVdlRYBERCBMQQ4KnAogJs60Bl4eypVeeKMxNxWROvjjop62h+j/PpJBERABEiAWxJvWwyTau+BOB2TOvx4XB8utmzm9skLSKVFQAREQATqEeDOZnsAOB3AoxoZ0KsCpzLA5Xt/AvBuAIyOqSQCIiACIhCQAHckZLRBOQPxnl41MlCN7b+KKH2rB5Rz3UoEREAERGAMAcYW2AfAGQo0pFGBhKMCfNL/M4C9AajTH6Og+kkEREAEUhBYsgg/fDIAbpGqp1gxCCkDfKfPUSeOPi2fQqCVhwiIgAiIQHUCCxYTCBlj4L9yBuQM1ZSBG4tJqJzIp014quuhrhABERABUwJcdsWlhR8phm0fqtkZhHya1L18jk5QNjiJ78MAnqYle6Z6q8xFQAREIDgBjg5wPTb3JThLqwo6PzpwRRGNckc95QfXNd1QBERABFwT4BLDnQEcDoDbF2vXQp9P5yFGTdi23F73KwB20lI913qpwomACIhAcgIM0coARJ8pXhncp1cG2Y4S3FtM3ONoz8sALJZcmpShCIiACIhAtgTmArBOscKAIYr52kCjBD5HCTicf2wxU3+zIppktoKngouACIiACPgjsBCA5wB4J4CjAPxNOxomHSXg7pFkzlUebAO2BdtESQREQAREQASSE5gTwFoAXlXMIv8egHPkGDRyDNjRnw3guwXTHQA8BQBZK4mACIiACIiAawJzAFgNwAsBvAPA5wD8BMB5AO7S/ALcCeBcAMcD+GzBaBsAq2oZnmu5VuFEQAREQAQaElgKwEbFxMN3Afh08R779wAYY57BaHLcAIllZtlZh98VdWLdWEdOsmSdWXclERABERABERCBEQQ45M3liusC2AoA16y/tYhF/0kAXwLwbQAnFlvQMmQtJyteDIAT424GcOvA3/1DRh54bPAcXsNreQ/ei/c8DcAJRV7Mk3kzHv5bijKxbCwjy6ph+hGNqcMi4IXA/wfa0OMs+KGbPAAAAABJRU5ErkJggg==;" parent="1" vertex="1">
          <mxGeometry x="50" y="53.25" width="73.5" height="73.5" as="geometry" />
        </mxCell>
        <mxCell id="m7VxHknI9QD3Q0uFePXc-32" value="" style="rounded=0;whiteSpace=wrap;html=1;" parent="1" vertex="1">
          <mxGeometry x="40" y="480" width="720" height="320" as="geometry" />
        </mxCell>
        <mxCell id="m7VxHknI9QD3Q0uFePXc-37" style="edgeStyle=orthogonalEdgeStyle;rounded=0;orthogonalLoop=1;jettySize=auto;html=1;exitX=0.5;exitY=1;exitDx=0;exitDy=0;entryX=0.5;entryY=0;entryDx=0;entryDy=0;" parent="1" source="m7VxHknI9QD3Q0uFePXc-33" target="m7VxHknI9QD3Q0uFePXc-34" edge="1">
          <mxGeometry relative="1" as="geometry" />
        </mxCell>
        <mxCell id="m7VxHknI9QD3Q0uFePXc-33" value="Frontend&lt;br&gt;Vite(React)" style="rounded=0;whiteSpace=wrap;html=1;" parent="1" vertex="1">
          <mxGeometry x="325" y="524" width="120" height="60" as="geometry" />
        </mxCell>
        <mxCell id="m7VxHknI9QD3Q0uFePXc-38" style="edgeStyle=orthogonalEdgeStyle;rounded=0;orthogonalLoop=1;jettySize=auto;html=1;exitX=0.5;exitY=1;exitDx=0;exitDy=0;entryX=0.5;entryY=0;entryDx=0;entryDy=0;" parent="1" source="m7VxHknI9QD3Q0uFePXc-34" target="m7VxHknI9QD3Q0uFePXc-36" edge="1">
          <mxGeometry relative="1" as="geometry" />
        </mxCell>
        <mxCell id="m7VxHknI9QD3Q0uFePXc-34" value="Backend&lt;br&gt;ExpressJS" style="rounded=0;whiteSpace=wrap;html=1;" parent="1" vertex="1">
          <mxGeometry x="325" y="620" width="120" height="60" as="geometry" />
        </mxCell>
        <mxCell id="m7VxHknI9QD3Q0uFePXc-36" value="Database&lt;br&gt;JSON" style="shape=datastore;whiteSpace=wrap;html=1;" parent="1" vertex="1">
          <mxGeometry x="325" y="700" width="125" height="90" as="geometry" />
        </mxCell>
      </root>
    </mxGraphModel>
  </diagram>
</mxfile>
